{
.appVersion = "3151";
copyright = "Created in 2020 for Juan Arturo García, updated in 2022. SIL Open Font License.";
customParameters = (
{
name = "Enforce Compatibility Check";
value = 1;
}
);
date = "2022-12-12 10:24:24 +0000";
designer = "Mateo Broillet";
designerURL = www.mateobroillet.ch;
disablesAutomaticAlignment = 1;
familyName = Sector;
featurePrefixes = (
{
automatic = 1;
code = "languagesystem DFLT dflt;\012";
name = Languagesystems;
}
);
features = (
{
automatic = 1;
code = "feature salt;\012feature ss01;\012feature ss02;\012";
name = aalt;
},
{
automatic = 1;
code = "lookup ccmp_Other_1 {\012	@CombiningTopAccents = [acutecomb circumflexcomb dieresiscomb dotaccentcomb gravecomb ringcomb tildecomb];\012	@CombiningNonTopAccents = [cedillacomb];\012	sub [i]' @CombiningTopAccents by [idotless];\012	sub [i]' @CombiningNonTopAccents @CombiningTopAccents by [idotless];\012} ccmp_Other_1;\012";
name = ccmp;
},
{
automatic = 1;
code = "sub O by O.ss01;\012";
name = salt;
},
{
automatic = 1;
code = "sub O by O.ss01;\012";
name = ss01;
},
{
automatic = 1;
code = "sub O by O.ss02;\012";
name = ss02;
}
);
fontMaster = (
{
alignmentZones = (
"{680, 16}",
"{680, 16}",
"{520, 16}",
"{0, -16}",
"{-240, -16}"
);
ascender = 680;
capHeight = 680;
custom = Normal;
descender = -240;
guideLines = (
{
position = "{428, -89}";
},
{
position = "{409, 720}";
},
{
position = "{301, 680}";
},
{
position = "{301, 570}";
},
{
position = "{563, 350}";
}
);
iconName = Light;
id = "C8365536-00F6-4CBD-B31D-2172D190A829";
userData = {
GSCornerRadius = 15;
};
xHeight = 520;
}
);
glyphs = (
{
glyphname = A;
lastChange = "2020-12-25 14:04:59 +0000";
layers = (
{
layerId = "C8365536-00F6-4CBD-B31D-2172D190A829";
paths = (
{
closed = 1;
nodes = (
"166 0 OFFCURVE",
"264 25 OFFCURVE",
"264 55 CURVE SMOOTH",
"264 85 OFFCURVE",
"166 110 OFFCURVE",
"135 110 CURVE SMOOTH",
"104 110 OFFCURVE",
"79 86 OFFCURVE",
"79 55 CURVE SMOOTH",
"79 24 OFFCURVE",
"104 0 OFFCURVE",
"135 0 CURVE SMOOTH"
);
},
{
closed = 1;
nodes = (
"240 408 OFFCURVE",
"261 430 OFFCURVE",
"261 458 CURVE SMOOTH",
"261 486 OFFCURVE",
"240 508 OFFCURVE",
"212 508 CURVE SMOOTH",
"184 508 OFFCURVE",
"161 486 OFFCURVE",
"161 458 CURVE SMOOTH",
"161 430 OFFCURVE",
"184 408 OFFCURVE",
"212 408 CURVE SMOOTH"
);
},
{
closed = 1;
nodes = (
"161 170 OFFCURVE",
"184 272 OFFCURVE",
"184 300 CURVE SMOOTH",
"184 328 OFFCURVE",
"163 350 OFFCURVE",
"135 350 CURVE SMOOTH",
"107 350 OFFCURVE",
"84 328 OFFCURVE",
"84 300 CURVE SMOOTH",
"84 272 OFFCURVE",
"107 170 OFFCURVE",
"135 170 CURVE SMOOTH"
);
},
{
closed = 1;
nodes = (
"161 170 OFFCURVE",
"184 192 OFFCURVE",
"184 220 CURVE SMOOTH",
"184 248 OFFCURVE",
"163 270 OFFCURVE",
"135 270 CURVE SMOOTH",
"107 270 OFFCURVE",
"84 248 OFFCURVE",
"84 220 CURVE SMOOTH",
"84 192 OFFCURVE",
"107 170 OFFCURVE",
"135 170 CURVE SMOOTH"
);
},
{
closed = 1;
nodes = (
"161 90 OFFCURVE",
"184 112 OFFCURVE",
"184 140 CURVE SMOOTH",
"184 168 OFFCURVE",
"163 270 OFFCURVE",
"135 270 CURVE SMOOTH",
"107 270 OFFCURVE",
"84 168 OFFCURVE",
"84 140 CURVE SMOOTH",
"84 112 OFFCURVE",
"107 90 OFFCURVE",
"135 90 CURVE SMOOTH"
);
},
{
closed = 1;
nodes = (
"305 205 OFFCURVE",
"330 230 OFFCURVE",
"330 260 CURVE",
"330 290 OFFCURVE",
"305 315 OFFCURVE",
"275 315 CURVE",
"245 315 OFFCURVE",
"145 290 OFFCURVE",
"145 260 CURVE",
"145 230 OFFCURVE",
"245 205 OFFCURVE",
"275 205 CURVE"
);
},
{
closed = 1;
nodes = (
"230 205 OFFCURVE",
"330 230 OFFCURVE",
"330 260 CURVE",
"330 290 OFFCURVE",
"230 315 OFFCURVE",
"200 315 CURVE",
"170 315 OFFCURVE",
"145 290 OFFCURVE",
"145 260 CURVE",
"145 230 OFFCURVE",
"170 205 OFFCURVE",
"200 205 CURVE"
);
},
{
closed = 1;
nodes = (
"325 570 OFFCURVE",
"423 594 OFFCURVE",
"423 625 CURVE SMOOTH",
"423 656 OFFCURVE",
"325 680 OFFCURVE",
"294 680 CURVE SMOOTH",
"263 680 OFFCURVE",
"238 656 OFFCURVE",
"238 625 CURVE SMOOTH",
"238 594 OFFCURVE",
"263 570 OFFCURVE",
"294 570 CURVE SMOOTH"
);
},
{
closed = 1;
nodes = (
"382 570 OFFCURVE",
"405 594 OFFCURVE",
"405 625 CURVE SMOOTH",
"405 656 OFFCURVE",
"382 680 OFFCURVE",
"351 680 CURVE SMOOTH",
"320 680 OFFCURVE",
"295 656 OFFCURVE",
"295 625 CURVE SMOOTH",
"295 594 OFFCURVE",
"320 570 OFFCURVE",
"351 570 CURVE SMOOTH"
);
},
{
closed = 1;
nodes = (
"596 0 OFFCURVE",
"621 24 OFFCURVE",
"621 55 CURVE SMOOTH",
"621 86 OFFCURVE",
"596 110 OFFCURVE",
"565 110 CURVE SMOOTH",
"534 110 OFFCURVE",
"436 86 OFFCURVE",
"436 55 CURVE SMOOTH",
"436 24 OFFCURVE",
"534 0 OFFCURVE",
"565 0 CURVE SMOOTH"
);
},
{
closed = 1;
nodes = (
"593 170 OFFCURVE",
"616 272 OFFCURVE",
"616 300 CURVE SMOOTH",
"616 328 OFFCURVE",
"593 350 OFFCURVE",
"565 350 CURVE SMOOTH",
"537 350 OFFCURVE",
"516 328 OFFCURVE",
"516 300 CURVE SMOOTH",
"516 272 OFFCURVE",
"539 170 OFFCURVE",
"565 170 CURVE SMOOTH"
);
},
{
closed = 1;
nodes = (
"593 170 OFFCURVE",
"616 192 OFFCURVE",
"616 220 CURVE SMOOTH",
"616 248 OFFCURVE",
"593 270 OFFCURVE",
"565 270 CURVE SMOOTH",
"537 270 OFFCURVE",
"516 248 OFFCURVE",
"516 220 CURVE SMOOTH",
"516 192 OFFCURVE",
"539 170 OFFCURVE",
"565 170 CURVE SMOOTH"
);
},
{
closed = 1;
nodes = (
"593 90 OFFCURVE",
"616 112 OFFCURVE",
"616 140 CURVE SMOOTH",
"616 168 OFFCURVE",
"593 270 OFFCURVE",
"565 270 CURVE SMOOTH",
"537 270 OFFCURVE",
"516 168 OFFCURVE",
"516 140 CURVE SMOOTH",
"516 112 OFFCURVE",
"539 90 OFFCURVE",
"565 90 CURVE SMOOTH"
);
},
{
closed = 1;
nodes = (
"455 204 OFFCURVE",
"555 229 OFFCURVE",
"555 259 CURVE",
"555 289 OFFCURVE",
"455 314 OFFCURVE",
"425 314 CURVE",
"395 314 OFFCURVE",
"370 289 OFFCURVE",
"370 259 CURVE",
"370 229 OFFCURVE",
"395 204 OFFCURVE",
"425 204 CURVE"
);
},
{
closed = 1;
nodes = (
"530 204 OFFCURVE",
"555 229 OFFCURVE",
"555 259 CURVE",
"555 289 OFFCURVE",
"530 314 OFFCURVE",
"500 314 CURVE",
"470 314 OFFCURVE",
"370 289 OFFCURVE",
"370 259 CURVE",
"370 229 OFFCURVE",
"470 204 OFFCURVE",
"500 204 CURVE"
);
},
{
closed = 1;
nodes = (
"437 570 OFFCURVE",
"462 594 OFFCURVE",
"462 625 CURVE SMOOTH",
"462 656 OFFCURVE",
"437 680 OFFCURVE",
"406 680 CURVE SMOOTH",
"375 680 OFFCURVE",
"277 656 OFFCURVE",
"277 625 CURVE SMOOTH",
"277 594 OFFCURVE",
"375 570 OFFCURVE",
"406 570 CURVE SMOOTH"
);
},
{
closed = 1;
nodes = (
"380 205 OFFCURVE",
"405 230 OFFCURVE",
"405 260 CURVE",
"405 290 OFFCURVE",
"380 315 OFFCURVE",
"350 315 CURVE",
"320 315 OFFCURVE",
"295 290 OFFCURVE",
"295 260 CURVE",
"295 230 OFFCURVE",
"320 205 OFFCURVE",
"350 205 CURVE"
);
},
{
closed = 1;
nodes = (
"239 0 OFFCURVE",
"264 25 OFFCURVE",
"264 55 CURVE",
"264 85 OFFCURVE",
"239 110 OFFCURVE",
"209 110 CURVE",
"179 110 OFFCURVE",
"79 86 OFFCURVE",
"79 55 CURVE",
"79 24 OFFCURVE",
"179 0 OFFCURVE",
"209 0 CURVE"
);
},
{
closed = 1;
nodes = (
"521 0 OFFCURVE",
"621 24 OFFCURVE",
"621 55 CURVE",
"621 86 OFFCURVE",
"521 110 OFFCURVE",
"491 110 CURVE",
"461 110 OFFCURVE",
"436 86 OFFCURVE",
"436 55 CURVE",
"436 24 OFFCURVE",
"461 0 OFFCURVE",
"491 0 CURVE"
);
},
{
closed = 1;
nodes = (
"218 371 OFFCURVE",
"247 470 OFFCURVE",
"221 485 CURVE",
"195 499 OFFCURVE",
"123 426 OFFCURVE",
"108 400 CURVE",
"93 374 OFFCURVE",
"102 339 OFFCURVE",
"128 324 CURVE",
"154 309 OFFCURVE",
"188 318 OFFCURVE",
"204 345 CURVE"
);
},
{
closed = 1;
nodes = (
"327 546 OFFCURVE",
"318 581 OFFCURVE",
"292 596 CURVE",
"266 610 OFFCURVE",
"232 601 OFFCURVE",
"216 575 CURVE",
"201 549 OFFCURVE",
"173 450 OFFCURVE",
"199 435 CURVE",
"225 420 OFFCURVE",
"296 494 OFFCURVE",
"312 520 CURVE"
);
},
{
closed = 1;
nodes = (
"510 408 OFFCURVE",
"533 430 OFFCURVE",
"533 458 CURVE SMOOTH",
"533 486 OFFCURVE",
"510 508 OFFCURVE",
"482 508 CURVE SMOOTH",
"454 508 OFFCURVE",
"433 486 OFFCURVE",
"433 458 CURVE SMOOTH",
"433 430 OFFCURVE",
"454 408 OFFCURVE",
"482 408 CURVE SMOOTH"
);
},
{
closed = 1;
nodes = (
"506 318 OFFCURVE",
"540 309 OFFCURVE",
"566 324 CURVE",
"592 339 OFFCURVE",
"601 374 OFFCURVE",
"586 400 CURVE",
"571 426 OFFCURVE",
"499 499 OFFCURVE",
"473 485 CURVE",
"447 470 OFFCURVE",
"476 371 OFFCURVE",
"490 345 CURVE"
);
},
{
closed = 1;
nodes = (
"398 494 OFFCURVE",
"469 420 OFFCURVE",
"495 435 CURVE",
"521 450 OFFCURVE",
"493 549 OFFCURVE",
"478 575 CURVE",
"462 601 OFFCURVE",
"428 610 OFFCURVE",
"402 596 CURVE",
"376 581 OFFCURVE",
"367 546 OFFCURVE",
"382 520 CURVE"
);
}
);
width = 700;
}
);
unicode = 0041;
},
{
glyphname = AE;
lastChange = "2020-12-30 12:56:08 +0000";
layers = (
{
layerId = "C8365536-00F6-4CBD-B31D-2172D190A829";
paths = (
{
closed = 0;
nodes = (
"313 55 LINE"
);
},
{
closed = 1;
nodes = (
"400 0 OFFCURVE",
"498 24 OFFCURVE",
"498 55 CURVE SMOOTH",
"498 86 OFFCURVE",
"400 110 OFFCURVE",
"369 110 CURVE SMOOTH",
"338 110 OFFCURVE",
"313 86 OFFCURVE",
"313 55 CURVE SMOOTH",
"313 24 OFFCURVE",
"338 0 OFFCURVE",
"369 0 CURVE SMOOTH"
);
},
{
closed = 1;
nodes = (
"475 0 OFFCURVE",
"498 24 OFFCURVE",
"498 55 CURVE SMOOTH",
"498 86 OFFCURVE",
"475 110 OFFCURVE",
"444 110 CURVE SMOOTH",
"413 110 OFFCURVE",
"313 86 OFFCURVE",
"313 55 CURVE",
"313 24 OFFCURVE",
"413 0 OFFCURVE",
"444 0 CURVE SMOOTH"
);
},
{
closed = 1;
nodes = (
"399 0 OFFCURVE",
"499 25 OFFCURVE",
"499 55 CURVE",
"499 85 OFFCURVE",
"399 110 OFFCURVE",
"369 110 CURVE",
"339 110 OFFCURVE",
"314 85 OFFCURVE",
"314 55 CURVE",
"314 25 OFFCURVE",
"339 0 OFFCURVE",
"369 0 CURVE"
);
},
{
closed = 1;
nodes = (
"367 85 OFFCURVE",
"396 99 OFFCURVE",
"405 125 CURVE SMOOTH",
"414 152 OFFCURVE",
"430 255 OFFCURVE",
"404 264 CURVE SMOOTH",
"377 273 OFFCURVE",
"321 186 OFFCURVE",
"311 159 CURVE SMOOTH",
"301 133 OFFCURVE",
"316 105 OFFCURVE",
"342 95 CURVE SMOOTH"
);
},
{
closed = 1;
nodes = (
"369 85 OFFCURVE",
"423 174 OFFCURVE",
"433 200 CURVE SMOOTH",
"443 227 OFFCURVE",
"430 255 OFFCURVE",
"404 264 CURVE SMOOTH",
"377 273 OFFCURVE",
"348 261 OFFCURVE",
"339 235 CURVE SMOOTH",
"330 208 OFFCURVE",
"316 105 OFFCURVE",
"342 95 CURVE SMOOTH"
);
},
{
closed = 1;
nodes = (
"550 0 OFFCURVE",
"648 24 OFFCURVE",
"648 55 CURVE SMOOTH",
"648 86 OFFCURVE",
"550 110 OFFCURVE",
"519 110 CURVE SMOOTH",
"488 110 OFFCURVE",
"463 86 OFFCURVE",
"463 55 CURVE SMOOTH",
"463 24 OFFCURVE",
"488 0 OFFCURVE",
"519 0 CURVE SMOOTH"
);
},
{
closed = 1;
nodes = (
"625 0 OFFCURVE",
"648 24 OFFCURVE",
"648 55 CURVE SMOOTH",
"648 86 OFFCURVE",
"625 110 OFFCURVE",
"594 110 CURVE SMOOTH",
"563 110 OFFCURVE",
"463 86 OFFCURVE",
"463 55 CURVE SMOOTH",
"463 24 OFFCURVE",
"563 0 OFFCURVE",
"594 0 CURVE SMOOTH"
);
},
{
closed = 0;
nodes = (
"313 339 LINE"
);
},
{
closed = 1;
nodes = (
"397 250 OFFCURVE",
"418 272 OFFCURVE",
"418 300 CURVE",
"418 328 OFFCURVE",
"397 350 OFFCURVE",
"369 350 CURVE SMOOTH",
"341 350 OFFCURVE",
"318 328 OFFCURVE",
"318 300 CURVE SMOOTH",
"318 272 OFFCURVE",
"341 250 OFFCURVE",
"369 250 CURVE SMOOTH"
);
},
{
closed = 1;
nodes = (
"475 284 OFFCURVE",
"498 308 OFFCURVE",
"498 339 CURVE SMOOTH",
"498 370 OFFCURVE",
"475 394 OFFCURVE",
"444 394 CURVE SMOOTH",
"413 394 OFFCURVE",
"388 370 OFFCURVE",
"388 339 CURVE",
"388 308 OFFCURVE",
"413 284 OFFCURVE",
"444 284 CURVE SMOOTH"
);
},
{
closed = 1;
nodes = (
"384 330 OFFCURVE",
"413 344 OFFCURVE",
"422 370 CURVE SMOOTH",
"431 397 OFFCURVE",
"447 500 OFFCURVE",
"421 509 CURVE SMOOTH",
"394 518 OFFCURVE",
"338 431 OFFCURVE",
"328 404 CURVE SMOOTH",
"318 378 OFFCURVE",
"333 350 OFFCURVE",
"359 340 CURVE SMOOTH"
);
},
{
closed = 1;
nodes = (
"386 330 OFFCURVE",
"440 419 OFFCURVE",
"450 445 CURVE SMOOTH",
"460 472 OFFCURVE",
"447 500 OFFCURVE",
"421 509 CURVE SMOOTH",
"394 518 OFFCURVE",
"365 506 OFFCURVE",
"356 480 CURVE SMOOTH",
"347 453 OFFCURVE",
"333 350 OFFCURVE",
"359 340 CURVE SMOOTH"
);
},
{
closed = 1;
nodes = (
"550 284 OFFCURVE",
"648 308 OFFCURVE",
"648 339 CURVE SMOOTH",
"648 370 OFFCURVE",
"550 394 OFFCURVE",
"519 394 CURVE SMOOTH",
"488 394 OFFCURVE",
"463 370 OFFCURVE",
"463 339 CURVE SMOOTH",
"463 308 OFFCURVE",
"488 284 OFFCURVE",
"519 284 CURVE SMOOTH"
);
},
{
closed = 1;
nodes = (
"625 284 OFFCURVE",
"648 308 OFFCURVE",
"648 339 CURVE SMOOTH",
"648 370 OFFCURVE",
"625 394 OFFCURVE",
"594 394 CURVE SMOOTH",
"563 394 OFFCURVE",
"463 370 OFFCURVE",
"463 339 CURVE SMOOTH",
"463 308 OFFCURVE",
"563 284 OFFCURVE",
"594 284 CURVE SMOOTH"
);
},
{
closed = 1;
nodes = (
"397 490 OFFCURVE",
"418 512 OFFCURVE",
"418 540 CURVE SMOOTH",
"418 568 OFFCURVE",
"397 590 OFFCURVE",
"369 590 CURVE SMOOTH",
"341 590 OFFCURVE",
"318 568 OFFCURVE",
"318 540 CURVE SMOOTH",
"318 512 OFFCURVE",
"341 490 OFFCURVE",
"369 490 CURVE SMOOTH"
);
},
{
closed = 0;
nodes = (
"313 625 LINE"
);
},
{
closed = 1;
nodes = (
"398 570 OFFCURVE",
"498 595 OFFCURVE",
"498 625 CURVE",
"498 655 OFFCURVE",
"398 680 OFFCURVE",
"368 680 CURVE",
"338 680 OFFCURVE",
"313 655 OFFCURVE",
"313 625 CURVE",
"313 595 OFFCURVE",
"338 570 OFFCURVE",
"368 570 CURVE"
);
},
{
closed = 1;
nodes = (
"475 570 OFFCURVE",
"498 594 OFFCURVE",
"498 625 CURVE SMOOTH",
"498 656 OFFCURVE",
"475 680 OFFCURVE",
"444 680 CURVE SMOOTH",
"413 680 OFFCURVE",
"313 656 OFFCURVE",
"313 625 CURVE",
"313 594 OFFCURVE",
"413 570 OFFCURVE",
"444 570 CURVE SMOOTH"
);
},
{
closed = 1;
nodes = (
"550 570 OFFCURVE",
"648 594 OFFCURVE",
"648 625 CURVE SMOOTH",
"648 656 OFFCURVE",
"550 680 OFFCURVE",
"519 680 CURVE SMOOTH",
"488 680 OFFCURVE",
"463 656 OFFCURVE",
"463 625 CURVE SMOOTH",
"463 594 OFFCURVE",
"488 570 OFFCURVE",
"519 570 CURVE SMOOTH"
);
},
{
closed = 1;
nodes = (
"625 570 OFFCURVE",
"648 594 OFFCURVE",
"648 625 CURVE SMOOTH",
"648 656 OFFCURVE",
"625 680 OFFCURVE",
"594 680 CURVE SMOOTH",
"563 680 OFFCURVE",
"463 656 OFFCURVE",
"463 625 CURVE SMOOTH",
"463 594 OFFCURVE",
"563 570 OFFCURVE",
"594 570 CURVE SMOOTH"
);
},
{
closed = 1;
nodes = (
"140 0 OFFCURVE",
"238 25 OFFCURVE",
"238 55 CURVE SMOOTH",
"238 85 OFFCURVE",
"140 110 OFFCURVE",
"109 110 CURVE SMOOTH",
"78 110 OFFCURVE",
"53 86 OFFCURVE",
"53 55 CURVE SMOOTH",
"53 24 OFFCURVE",
"78 0 OFFCURVE",
"109 0 CURVE SMOOTH"
);
},
{
closed = 1;
nodes = (
"214 408 OFFCURVE",
"235 430 OFFCURVE",
"235 458 CURVE SMOOTH",
"235 486 OFFCURVE",
"214 508 OFFCURVE",
"186 508 CURVE SMOOTH",
"158 508 OFFCURVE",
"135 486 OFFCURVE",
"135 458 CURVE SMOOTH",
"135 430 OFFCURVE",
"158 408 OFFCURVE",
"186 408 CURVE SMOOTH"
);
},
{
closed = 1;
nodes = (
"135 170 OFFCURVE",
"158 272 OFFCURVE",
"158 300 CURVE SMOOTH",
"158 328 OFFCURVE",
"137 350 OFFCURVE",
"109 350 CURVE SMOOTH",
"81 350 OFFCURVE",
"58 328 OFFCURVE",
"58 300 CURVE SMOOTH",
"58 272 OFFCURVE",
"81 170 OFFCURVE",
"109 170 CURVE SMOOTH"
);
},
{
closed = 1;
nodes = (
"135 170 OFFCURVE",
"158 192 OFFCURVE",
"158 220 CURVE SMOOTH",
"158 248 OFFCURVE",
"137 270 OFFCURVE",
"109 270 CURVE SMOOTH",
"81 270 OFFCURVE",
"58 248 OFFCURVE",
"58 220 CURVE SMOOTH",
"58 192 OFFCURVE",
"81 170 OFFCURVE",
"109 170 CURVE SMOOTH"
);
},
{
closed = 1;
nodes = (
"135 90 OFFCURVE",
"158 112 OFFCURVE",
"158 140 CURVE SMOOTH",
"158 168 OFFCURVE",
"137 270 OFFCURVE",
"109 270 CURVE SMOOTH",
"81 270 OFFCURVE",
"58 168 OFFCURVE",
"58 140 CURVE SMOOTH",
"58 112 OFFCURVE",
"81 90 OFFCURVE",
"109 90 CURVE SMOOTH"
);
},
{
closed = 1;
nodes = (
"279 205 OFFCURVE",
"304 230 OFFCURVE",
"304 260 CURVE",
"304 290 OFFCURVE",
"279 315 OFFCURVE",
"249 315 CURVE",
"219 315 OFFCURVE",
"119 290 OFFCURVE",
"119 260 CURVE",
"119 230 OFFCURVE",
"219 205 OFFCURVE",
"249 205 CURVE"
);
},
{
closed = 1;
nodes = (
"204 205 OFFCURVE",
"304 230 OFFCURVE",
"304 260 CURVE",
"304 290 OFFCURVE",
"204 315 OFFCURVE",
"174 315 CURVE",
"144 315 OFFCURVE",
"119 290 OFFCURVE",
"119 260 CURVE",
"119 230 OFFCURVE",
"144 205 OFFCURVE",
"174 205 CURVE"
);
},
{
closed = 1;
nodes = (
"299 570 OFFCURVE",
"397 594 OFFCURVE",
"397 625 CURVE SMOOTH",
"397 656 OFFCURVE",
"299 680 OFFCURVE",
"268 680 CURVE SMOOTH",
"237 680 OFFCURVE",
"212 656 OFFCURVE",
"212 625 CURVE SMOOTH",
"212 594 OFFCURVE",
"237 570 OFFCURVE",
"268 570 CURVE SMOOTH"
);
},
{
closed = 1;
nodes = (
"356 570 OFFCURVE",
"379 594 OFFCURVE",
"379 625 CURVE SMOOTH",
"379 656 OFFCURVE",
"356 680 OFFCURVE",
"325 680 CURVE SMOOTH",
"294 680 OFFCURVE",
"269 656 OFFCURVE",
"269 625 CURVE SMOOTH",
"269 594 OFFCURVE",
"294 570 OFFCURVE",
"325 570 CURVE SMOOTH"
);
},
{
closed = 1;
nodes = (
"354 205 OFFCURVE",
"379 230 OFFCURVE",
"379 260 CURVE",
"379 290 OFFCURVE",
"354 315 OFFCURVE",
"324 315 CURVE",
"294 315 OFFCURVE",
"269 290 OFFCURVE",
"269 260 CURVE",
"269 230 OFFCURVE",
"294 205 OFFCURVE",
"324 205 CURVE"
);
},
{
closed = 1;
nodes = (
"213 0 OFFCURVE",
"238 25 OFFCURVE",
"238 55 CURVE",
"238 85 OFFCURVE",
"213 110 OFFCURVE",
"183 110 CURVE",
"153 110 OFFCURVE",
"53 86 OFFCURVE",
"53 55 CURVE",
"53 24 OFFCURVE",
"153 0 OFFCURVE",
"183 0 CURVE"
);
},
{
closed = 1;
nodes = (
"192 371 OFFCURVE",
"221 470 OFFCURVE",
"195 485 CURVE",
"169 499 OFFCURVE",
"97 426 OFFCURVE",
"82 400 CURVE",
"67 374 OFFCURVE",
"76 339 OFFCURVE",
"102 324 CURVE",
"128 309 OFFCURVE",
"162 318 OFFCURVE",
"178 345 CURVE"
);
},
{
closed = 1;
nodes = (
"301 546 OFFCURVE",
"292 581 OFFCURVE",
"266 596 CURVE",
"240 610 OFFCURVE",
"206 601 OFFCURVE",
"190 575 CURVE",
"175 549 OFFCURVE",
"147 450 OFFCURVE",
"173 435 CURVE",
"199 420 OFFCURVE",
"270 494 OFFCURVE",
"286 520 CURVE"
);
}
);
width = 700;
}
);
unicode = 00C6;
},
{
glyphname = B;
lastChange = "2020-12-30 13:17:51 +0000";
layers = (
{
layerId = "C8365536-00F6-4CBD-B31D-2172D190A829";
paths = (
{
closed = 1;
nodes = (
"200 570 OFFCURVE",
"298 594 OFFCURVE",
"298 625 CURVE SMOOTH",
"298 656 OFFCURVE",
"200 680 OFFCURVE",
"169 680 CURVE SMOOTH",
"138 680 OFFCURVE",
"113 656 OFFCURVE",
"113 625 CURVE SMOOTH",
"113 594 OFFCURVE",
"138 570 OFFCURVE",
"169 570 CURVE SMOOTH"
);
},
{
closed = 1;
nodes = (
"500 285 OFFCURVE",
"523 309 OFFCURVE",
"523 340 CURVE SMOOTH",
"523 371 OFFCURVE",
"500 395 OFFCURVE",
"469 395 CURVE SMOOTH",
"438 395 OFFCURVE",
"338 371 OFFCURVE",
"338 340 CURVE SMOOTH",
"338 309 OFFCURVE",
"438 285 OFFCURVE",
"469 285 CURVE SMOOTH"
);
},
{
closed = 1;
nodes = (
"200 0 OFFCURVE",
"298 24 OFFCURVE",
"298 55 CURVE SMOOTH",
"298 86 OFFCURVE",
"200 110 OFFCURVE",
"169 110 CURVE SMOOTH",
"138 110 OFFCURVE",
"113 86 OFFCURVE",
"113 55 CURVE SMOOTH",
"113 24 OFFCURVE",
"138 0 OFFCURVE",
"169 0 CURVE SMOOTH"
);
},
{
closed = 1;
nodes = (
"275 285 OFFCURVE",
"373 309 OFFCURVE",
"373 340 CURVE SMOOTH",
"373 371 OFFCURVE",
"275 395 OFFCURVE",
"244 395 CURVE SMOOTH",
"213 395 OFFCURVE",
"188 371 OFFCURVE",
"188 340 CURVE",
"188 309 OFFCURVE",
"213 285 OFFCURVE",
"244 285 CURVE SMOOTH"
);
},
{
closed = 1;
nodes = (
"350 285 OFFCURVE",
"373 309 OFFCURVE",
"373 340 CURVE SMOOTH",
"373 371 OFFCURVE",
"350 395 OFFCURVE",
"319 395 CURVE SMOOTH",
"288 395 OFFCURVE",
"188 371 OFFCURVE",
"188 340 CURVE SMOOTH",
"188 309 OFFCURVE",
"288 285 OFFCURVE",
"319 285 CURVE SMOOTH"
);
},
{
closed = 1;
nodes = (
"425 285 OFFCURVE",
"523 309 OFFCURVE",
"523 340 CURVE SMOOTH",
"523 371 OFFCURVE",
"425 395 OFFCURVE",
"394 395 CURVE SMOOTH",
"363 395 OFFCURVE",
"338 371 OFFCURVE",
"338 340 CURVE SMOOTH",
"338 309 OFFCURVE",
"363 285 OFFCURVE",
"394 285 CURVE SMOOTH"
);
},
{
closed = 1;
nodes = (
"165 405 OFFCURVE",
"219 494 OFFCURVE",
"229 520 CURVE SMOOTH",
"239 547 OFFCURVE",
"226 575 OFFCURVE",
"200 584 CURVE SMOOTH",
"173 593 OFFCURVE",
"144 581 OFFCURVE",
"135 555 CURVE SMOOTH",
"126 528 OFFCURVE",
"112 425 OFFCURVE",
"138 415 CURVE SMOOTH"
);
},
{
closed = 1;
nodes = (
"197 250 OFFCURVE",
"218 272 OFFCURVE",
"218 300 CURVE",
"218 328 OFFCURVE",
"197 430 OFFCURVE",
"169 430 CURVE SMOOTH",
"141 430 OFFCURVE",
"118 328 OFFCURVE",
"118 300 CURVE SMOOTH",
"118 272 OFFCURVE",
"141 250 OFFCURVE",
"169 250 CURVE SMOOTH"
);
},
{
closed = 1;
nodes = (
"165 85 OFFCURVE",
"219 174 OFFCURVE",
"229 200 CURVE SMOOTH",
"239 227 OFFCURVE",
"226 255 OFFCURVE",
"200 264 CURVE SMOOTH",
"173 273 OFFCURVE",
"144 261 OFFCURVE",
"135 235 CURVE SMOOTH",
"126 208 OFFCURVE",
"112 105 OFFCURVE",
"138 95 CURVE SMOOTH"
);
},
{
closed = 1;
nodes = (
"163 85 OFFCURVE",
"192 99 OFFCURVE",
"201 125 CURVE SMOOTH",
"210 152 OFFCURVE",
"226 255 OFFCURVE",
"200 264 CURVE SMOOTH",
"173 273 OFFCURVE",
"117 186 OFFCURVE",
"107 160 CURVE SMOOTH",
"97 133 OFFCURVE",
"112 105 OFFCURVE",
"138 95 CURVE SMOOTH"
);
},
{
closed = 1;
nodes = (
"197 250 OFFCURVE",
"218 352 OFFCURVE",
"218 380 CURVE SMOOTH",
"218 408 OFFCURVE",
"197 430 OFFCURVE",
"169 430 CURVE SMOOTH",
"141 430 OFFCURVE",
"118 408 OFFCURVE",
"118 380 CURVE SMOOTH",
"118 352 OFFCURVE",
"141 250 OFFCURVE",
"169 250 CURVE SMOOTH"
);
},
{
closed = 1;
nodes = (
"165 405 OFFCURVE",
"192 419 OFFCURVE",
"201 445 CURVE SMOOTH",
"210 472 OFFCURVE",
"226 575 OFFCURVE",
"200 584 CURVE SMOOTH",
"173 593 OFFCURVE",
"117 506 OFFCURVE",
"107 480 CURVE",
"98 453 OFFCURVE",
"112 425 OFFCURVE",
"138 415 CURVE SMOOTH"
);
},
{
closed = 1;
nodes = (
"575 410 OFFCURVE",
"596 512 OFFCURVE",
"596 540 CURVE SMOOTH",
"596 568 OFFCURVE",
"575 590 OFFCURVE",
"547 590 CURVE SMOOTH",
"519 590 OFFCURVE",
"496 568 OFFCURVE",
"496 540 CURVE SMOOTH",
"496 512 OFFCURVE",
"519 410 OFFCURVE",
"547 410 CURVE SMOOTH"
);
},
{
closed = 1;
nodes = (
"575 410 OFFCURVE",
"596 432 OFFCURVE",
"596 460 CURVE SMOOTH",
"596 488 OFFCURVE",
"575 590 OFFCURVE",
"547 590 CURVE SMOOTH",
"519 590 OFFCURVE",
"496 488 OFFCURVE",
"496 460 CURVE",
"496 432 OFFCURVE",
"519 410 OFFCURVE",
"547 410 CURVE SMOOTH"
);
},
{
closed = 1;
nodes = (
"500 570 OFFCURVE",
"523 594 OFFCURVE",
"523 625 CURVE SMOOTH",
"523 656 OFFCURVE",
"500 680 OFFCURVE",
"469 680 CURVE SMOOTH",
"438 680 OFFCURVE",
"413 656 OFFCURVE",
"413 625 CURVE SMOOTH",
"413 594 OFFCURVE",
"438 570 OFFCURVE",
"469 570 CURVE SMOOTH"
);
},
{
closed = 1;
nodes = (
"275 570 OFFCURVE",
"298 594 OFFCURVE",
"298 625 CURVE SMOOTH",
"298 656 OFFCURVE",
"275 680 OFFCURVE",
"244 680 CURVE SMOOTH",
"213 680 OFFCURVE",
"113 656 OFFCURVE",
"113 625 CURVE",
"113 594 OFFCURVE",
"213 570 OFFCURVE",
"244 570 CURVE SMOOTH"
);
},
{
closed = 1;
nodes = (
"350 570 OFFCURVE",
"448 594 OFFCURVE",
"448 625 CURVE SMOOTH",
"448 656 OFFCURVE",
"350 680 OFFCURVE",
"319 680 CURVE SMOOTH",
"288 680 OFFCURVE",
"263 656 OFFCURVE",
"263 625 CURVE SMOOTH",
"263 594 OFFCURVE",
"288 570 OFFCURVE",
"319 570 CURVE SMOOTH"
);
},
{
closed = 1;
nodes = (
"425 570 OFFCURVE",
"448 594 OFFCURVE",
"448 625 CURVE SMOOTH",
"448 656 OFFCURVE",
"425 680 OFFCURVE",
"394 680 CURVE SMOOTH",
"363 680 OFFCURVE",
"263 656 OFFCURVE",
"263 625 CURVE SMOOTH",
"263 594 OFFCURVE",
"363 570 OFFCURVE",
"394 570 CURVE SMOOTH"
);
},
{
closed = 1;
nodes = (
"537 568 OFFCURVE",
"548 579 OFFCURVE",
"548 593 CURVE",
"548 607 OFFCURVE",
"537 618 OFFCURVE",
"523 618 CURVE",
"509 618 OFFCURVE",
"498 607 OFFCURVE",
"498 593 CURVE",
"498 579 OFFCURVE",
"509 568 OFFCURVE",
"523 568 CURVE"
);
},
{
closed = 1;
nodes = (
"519 270 OFFCURVE",
"496 248 OFFCURVE",
"496 220 CURVE SMOOTH",
"496 192 OFFCURVE",
"520 87 OFFCURVE",
"548 87 CURVE SMOOTH",
"576 87 OFFCURVE",
"596 192 OFFCURVE",
"596 220 CURVE SMOOTH",
"596 248 OFFCURVE",
"575 270 OFFCURVE",
"547 270 CURVE SMOOTH"
);
},
{
closed = 1;
nodes = (
"438 110 OFFCURVE",
"413 86 OFFCURVE",
"413 55 CURVE SMOOTH",
"413 24 OFFCURVE",
"438 0 OFFCURVE",
"469 0 CURVE SMOOTH",
"500 0 OFFCURVE",
"523 24 OFFCURVE",
"523 55 CURVE SMOOTH",
"523 86 OFFCURVE",
"500 110 OFFCURVE",
"469 110 CURVE SMOOTH"
);
},
{
closed = 1;
nodes = (
"213 110 OFFCURVE",
"113 86 OFFCURVE",
"113 55 CURVE",
"113 24 OFFCURVE",
"213 0 OFFCURVE",
"244 0 CURVE SMOOTH",
"275 0 OFFCURVE",
"298 24 OFFCURVE",
"298 55 CURVE SMOOTH",
"298 86 OFFCURVE",
"275 110 OFFCURVE",
"244 110 CURVE SMOOTH"
);
},
{
closed = 1;
nodes = (
"288 110 OFFCURVE",
"263 86 OFFCURVE",
"263 55 CURVE SMOOTH",
"263 24 OFFCURVE",
"288 0 OFFCURVE",
"319 0 CURVE SMOOTH",
"350 0 OFFCURVE",
"448 24 OFFCURVE",
"448 55 CURVE SMOOTH",
"448 86 OFFCURVE",
"350 110 OFFCURVE",
"319 110 CURVE SMOOTH"
);
},
{
closed = 1;
nodes = (
"363 110 OFFCURVE",
"263 86 OFFCURVE",
"263 55 CURVE SMOOTH",
"263 24 OFFCURVE",
"363 0 OFFCURVE",
"394 0 CURVE SMOOTH",
"425 0 OFFCURVE",
"448 24 OFFCURVE",
"448 55 CURVE SMOOTH",
"448 86 OFFCURVE",
"425 110 OFFCURVE",
"394 110 CURVE SMOOTH"
);
},
{
closed = 1;
nodes = (
"509 112 OFFCURVE",
"498 101 OFFCURVE",
"498 87 CURVE",
"498 73 OFFCURVE",
"509 62 OFFCURVE",
"523 62 CURVE",
"537 62 OFFCURVE",
"548 73 OFFCURVE",
"548 87 CURVE",
"548 101 OFFCURVE",
"537 112 OFFCURVE",
"523 112 CURVE"
);
},
{
closed = 1;
nodes = (
"519 270 OFFCURVE",
"496 168 OFFCURVE",
"496 140 CURVE SMOOTH",
"496 112 OFFCURVE",
"519 90 OFFCURVE",
"547 90 CURVE SMOOTH",
"575 90 OFFCURVE",
"596 112 OFFCURVE",
"596 140 CURVE SMOOTH",
"596 168 OFFCURVE",
"575 270 OFFCURVE",
"547 270 CURVE SMOOTH"
);
},
{
closed = 1;
nodes = (
"523 253 OFFCURVE",
"534 264 OFFCURVE",
"534 278 CURVE SMOOTH",
"534 292 OFFCURVE",
"523 303 OFFCURVE",
"509 303 CURVE SMOOTH",
"495 303 OFFCURVE",
"484 292 OFFCURVE",
"484 278 CURVE SMOOTH",
"484 264 OFFCURVE",
"495 253 OFFCURVE",
"509 253 CURVE SMOOTH"
);
},
{
closed = 1;
nodes = (
"523 376 OFFCURVE",
"534 387 OFFCURVE",
"534 401 CURVE SMOOTH",
"534 415 OFFCURVE",
"523 426 OFFCURVE",
"509 426 CURVE SMOOTH",
"495 426 OFFCURVE",
"484 415 OFFCURVE",
"484 401 CURVE SMOOTH",
"484 387 OFFCURVE",
"495 376 OFFCURVE",
"509 376 CURVE SMOOTH"
);
}
);
width = 700;
}
);
unicode = 0042;
},
{
glyphname = C;
lastChange = "2020-12-30 12:27:50 +0000";
layers = (
{
layerId = "C8365536-00F6-4CBD-B31D-2172D190A829";
paths = (
{
closed = 1;
nodes = (
"309 570 OFFCURVE",
"409 595 OFFCURVE",
"409 625 CURVE",
"409 655 OFFCURVE",
"309 680 OFFCURVE",
"279 680 CURVE",
"249 680 OFFCURVE",
"224 655 OFFCURVE",
"224 625 CURVE",
"224 595 OFFCURVE",
"249 570 OFFCURVE",
"279 570 CURVE"
);
},
{
closed = 1;
nodes = (
"459 570 OFFCURVE",
"559 595 OFFCURVE",
"559 625 CURVE",
"559 655 OFFCURVE",
"459 680 OFFCURVE",
"429 680 CURVE",
"399 680 OFFCURVE",
"374 655 OFFCURVE",
"374 625 CURVE",
"374 595 OFFCURVE",
"399 570 OFFCURVE",
"429 570 CURVE"
);
},
{
closed = 1;
nodes = (
"534 570 OFFCURVE",
"559 595 OFFCURVE",
"559 625 CURVE",
"559 655 OFFCURVE",
"534 680 OFFCURVE",
"504 680 CURVE",
"474 680 OFFCURVE",
"374 655 OFFCURVE",
"374 625 CURVE",
"374 595 OFFCURVE",
"474 570 OFFCURVE",
"504 570 CURVE"
);
},
{
closed = 1;
nodes = (
"162 207 OFFCURVE",
"184 309 OFFCURVE",
"184 337 CURVE",
"184 365 OFFCURVE",
"162 387 OFFCURVE",
"134 387 CURVE",
"106 387 OFFCURVE",
"84 365 OFFCURVE",
"84 337 CURVE",
"84 309 OFFCURVE",
"106 207 OFFCURVE",
"134 207 CURVE"
);
},
{
closed = 1;
nodes = (
"162 207 OFFCURVE",
"184 229 OFFCURVE",
"184 257 CURVE",
"184 285 OFFCURVE",
"162 387 OFFCURVE",
"134 387 CURVE",
"106 387 OFFCURVE",
"84 285 OFFCURVE",
"84 257 CURVE",
"84 229 OFFCURVE",
"106 207 OFFCURVE",
"134 207 CURVE"
);
},
{
closed = 1;
nodes = (
"162 367 OFFCURVE",
"184 389 OFFCURVE",
"184 417 CURVE",
"184 445 OFFCURVE",
"162 547 OFFCURVE",
"134 547 CURVE",
"106 547 OFFCURVE",
"84 445 OFFCURVE",
"84 417 CURVE",
"84 389 OFFCURVE",
"106 367 OFFCURVE",
"134 367 CURVE"
);
},
{
closed = 1;
nodes = (
"249 110 OFFCURVE",
"224 85 OFFCURVE",
"224 55 CURVE",
"224 25 OFFCURVE",
"249 0 OFFCURVE",
"279 0 CURVE",
"309 0 OFFCURVE",
"409 25 OFFCURVE",
"409 55 CURVE",
"409 85 OFFCURVE",
"309 110 OFFCURVE",
"279 110 CURVE"
);
},
{
closed = 1;
nodes = (
"399 110 OFFCURVE",
"374 85 OFFCURVE",
"374 55 CURVE",
"374 25 OFFCURVE",
"399 0 OFFCURVE",
"429 0 CURVE",
"459 0 OFFCURVE",
"559 25 OFFCURVE",
"559 55 CURVE",
"559 85 OFFCURVE",
"459 110 OFFCURVE",
"429 110 CURVE"
);
},
{
closed = 1;
nodes = (
"474 110 OFFCURVE",
"374 85 OFFCURVE",
"374 55 CURVE",
"374 25 OFFCURVE",
"474 0 OFFCURVE",
"504 0 CURVE",
"534 0 OFFCURVE",
"559 25 OFFCURVE",
"559 55 CURVE",
"559 85 OFFCURVE",
"534 110 OFFCURVE",
"504 110 CURVE"
);
},
{
closed = 1;
nodes = (
"106 547 OFFCURVE",
"84 525 OFFCURVE",
"84 497 CURVE",
"84 469 OFFCURVE",
"106 367 OFFCURVE",
"134 367 CURVE",
"162 367 OFFCURVE",
"184 469 OFFCURVE",
"184 497 CURVE",
"184 525 OFFCURVE",
"162 547 OFFCURVE",
"134 547 CURVE"
);
},
{
closed = 1;
nodes = (
"162 127 OFFCURVE",
"184 149 OFFCURVE",
"184 177 CURVE",
"184 205 OFFCURVE",
"162 227 OFFCURVE",
"134 227 CURVE",
"106 227 OFFCURVE",
"84 205 OFFCURVE",
"84 177 CURVE",
"84 149 OFFCURVE",
"106 127 OFFCURVE",
"134 127 CURVE"
);
},
{
closed = 1;
nodes = (
"384 570 OFFCURVE",
"409 595 OFFCURVE",
"409 625 CURVE",
"409 655 OFFCURVE",
"384 680 OFFCURVE",
"354 680 CURVE",
"324 680 OFFCURVE",
"224 655 OFFCURVE",
"224 625 CURVE",
"224 595 OFFCURVE",
"324 570 OFFCURVE",
"354 570 CURVE"
);
},
{
closed = 1;
nodes = (
"324 110 OFFCURVE",
"224 85 OFFCURVE",
"224 55 CURVE",
"224 25 OFFCURVE",
"324 0 OFFCURVE",
"354 0 CURVE",
"384 0 OFFCURVE",
"409 25 OFFCURVE",
"409 55 CURVE",
"409 85 OFFCURVE",
"384 110 OFFCURVE",
"354 110 CURVE"
);
},
{
closed = 1;
nodes = (
"341 123 OFFCURVE",
"277 206 OFFCURVE",
"257 224 CURVE SMOOTH",
"236 243 OFFCURVE",
"203 239 OFFCURVE",
"185 218 CURVE SMOOTH",
"167 197 OFFCURVE",
"171 166 OFFCURVE",
"192 148 CURVE SMOOTH",
"214 130 OFFCURVE",
"305 79 OFFCURVE",
"323 101 CURVE SMOOTH"
);
},
{
closed = 1;
nodes = (
"341 123 OFFCURVE",
"339 154 OFFCURVE",
"318 172 CURVE",
"296 190 OFFCURVE",
"203 239 OFFCURVE",
"185 218 CURVE SMOOTH",
"167 197 OFFCURVE",
"232 114 OFFCURVE",
"253 95 CURVE SMOOTH",
"273 77 OFFCURVE",
"305 79 OFFCURVE",
"323 101 CURVE SMOOTH"
);
},
{
closed = 1;
nodes = (
"309 593 OFFCURVE",
"218 542 OFFCURVE",
"196 524 CURVE SMOOTH",
"175 506 OFFCURVE",
"171 475 OFFCURVE",
"189 454 CURVE SMOOTH",
"207 433 OFFCURVE",
"240 429 OFFCURVE",
"261 448 CURVE SMOOTH",
"281 466 OFFCURVE",
"345 549 OFFCURVE",
"327 571 CURVE SMOOTH"
);
},
{
closed = 1;
nodes = (
"309 593 OFFCURVE",
"277 595 OFFCURVE",
"257 577 CURVE SMOOTH",
"236 558 OFFCURVE",
"171 475 OFFCURVE",
"189 454 CURVE SMOOTH",
"207 433 OFFCURVE",
"300 482 OFFCURVE",
"322 500 CURVE",
"343 518 OFFCURVE",
"345 549 OFFCURVE",
"327 571 CURVE SMOOTH"
);
},
{
closed = 1;
nodes = (
"470 581 OFFCURVE",
"509 484 OFFCURVE",
"523 461 CURVE SMOOTH",
"538 437 OFFCURVE",
"571 432 OFFCURVE",
"594 447 CURVE SMOOTH",
"617 462 OFFCURVE",
"623 494 OFFCURVE",
"607 516 CURVE SMOOTH",
"590 539 OFFCURVE",
"517 614 OFFCURVE",
"494 598 CURVE SMOOTH"
);
},
{
closed = 1;
nodes = (
"470 581 OFFCURVE",
"464 551 OFFCURVE",
"479 528 CURVE",
"495 505 OFFCURVE",
"571 432 OFFCURVE",
"594 447 CURVE SMOOTH",
"617 462 OFFCURVE",
"578 560 OFFCURVE",
"563 584 CURVE SMOOTH",
"549 607 OFFCURVE",
"517 614 OFFCURVE",
"494 598 CURVE SMOOTH"
);
},
{
closed = 1;
nodes = (
"517 59 OFFCURVE",
"590 134 OFFCURVE",
"607 157 CURVE SMOOTH",
"623 179 OFFCURVE",
"617 211 OFFCURVE",
"594 226 CURVE SMOOTH",
"571 241 OFFCURVE",
"538 236 OFFCURVE",
"523 212 CURVE SMOOTH",
"509 189 OFFCURVE",
"470 92 OFFCURVE",
"494 75 CURVE SMOOTH"
);
},
{
closed = 1;
nodes = (
"517 59 OFFCURVE",
"549 66 OFFCURVE",
"563 89 CURVE SMOOTH",
"578 113 OFFCURVE",
"617 211 OFFCURVE",
"594 226 CURVE SMOOTH",
"571 241 OFFCURVE",
"495 168 OFFCURVE",
"479 145 CURVE",
"464 122 OFFCURVE",
"470 92 OFFCURVE",
"494 75 CURVE SMOOTH"
);
}
);
width = 700;
}
);
unicode = 0043;
},
{
glyphname = D;
lastChange = "2020-12-30 12:35:33 +0000";
layers = (
{
layerId = "C8365536-00F6-4CBD-B31D-2172D190A829";
paths = (
{
closed = 1;
nodes = (
"370 0 OFFCURVE",
"395 25 OFFCURVE",
"395 55 CURVE",
"395 85 OFFCURVE",
"370 110 OFFCURVE",
"340 110 CURVE",
"310 110 OFFCURVE",
"210 85 OFFCURVE",
"210 55 CURVE",
"210 25 OFFCURVE",
"310 0 OFFCURVE",
"340 0 CURVE"
);
},
{
closed = 1;
nodes = (
"295 0 OFFCURVE",
"395 25 OFFCURVE",
"395 55 CURVE SMOOTH",
"395 85 OFFCURVE",
"295 110 OFFCURVE",
"265 110 CURVE",
"235 110 OFFCURVE",
"210 85 OFFCURVE",
"210 55 CURVE",
"210 25 OFFCURVE",
"235 0 OFFCURVE",
"265 0 CURVE"
);
},
{
closed = 1;
nodes = (
"220 410 OFFCURVE",
"240 512 OFFCURVE",
"240 540 CURVE SMOOTH",
"240 568 OFFCURVE",
"219 590 OFFCURVE",
"191 590 CURVE SMOOTH",
"163 590 OFFCURVE",
"140 568 OFFCURVE",
"140 540 CURVE SMOOTH",
"140 512 OFFCURVE",
"164 410 OFFCURVE",
"192 410 CURVE SMOOTH"
);
},
{
closed = 1;
nodes = (
"219 250 OFFCURVE",
"240 272 OFFCURVE",
"240 300 CURVE",
"240 328 OFFCURVE",
"219 430 OFFCURVE",
"191 430 CURVE SMOOTH",
"163 430 OFFCURVE",
"140 328 OFFCURVE",
"140 300 CURVE SMOOTH",
"140 272 OFFCURVE",
"163 250 OFFCURVE",
"191 250 CURVE SMOOTH"
);
},
{
closed = 1;
nodes = (
"219 90 OFFCURVE",
"240 192 OFFCURVE",
"240 220 CURVE SMOOTH",
"240 248 OFFCURVE",
"219 270 OFFCURVE",
"191 270 CURVE SMOOTH",
"163 270 OFFCURVE",
"140 248 OFFCURVE",
"140 220 CURVE SMOOTH",
"140 192 OFFCURVE",
"163 90 OFFCURVE",
"191 90 CURVE SMOOTH"
);
},
{
closed = 1;
nodes = (
"217 90 OFFCURVE",
"240 112 OFFCURVE",
"240 140 CURVE SMOOTH",
"240 168 OFFCURVE",
"219 270 OFFCURVE",
"191 270 CURVE SMOOTH",
"163 270 OFFCURVE",
"140 168 OFFCURVE",
"140 140 CURVE SMOOTH",
"140 112 OFFCURVE",
"163 90 OFFCURVE",
"191 90 CURVE SMOOTH"
);
},
{
closed = 1;
nodes = (
"219 250 OFFCURVE",
"240 352 OFFCURVE",
"240 380 CURVE SMOOTH",
"240 408 OFFCURVE",
"219 430 OFFCURVE",
"191 430 CURVE SMOOTH",
"163 430 OFFCURVE",
"140 408 OFFCURVE",
"140 380 CURVE SMOOTH",
"140 352 OFFCURVE",
"163 250 OFFCURVE",
"191 250 CURVE SMOOTH"
);
},
{
closed = 1;
nodes = (
"220 410 OFFCURVE",
"241 432 OFFCURVE",
"241 460 CURVE SMOOTH",
"241 488 OFFCURVE",
"219 590 OFFCURVE",
"191 590 CURVE SMOOTH",
"163 590 OFFCURVE",
"141 488 OFFCURVE",
"141 460 CURVE",
"141 432 OFFCURVE",
"164 410 OFFCURVE",
"192 410 CURVE SMOOTH"
);
},
{
closed = 1;
nodes = (
"412 570 OFFCURVE",
"437 595 OFFCURVE",
"437 625 CURVE",
"437 655 OFFCURVE",
"412 680 OFFCURVE",
"382 680 CURVE",
"352 680 OFFCURVE",
"252 655 OFFCURVE",
"252 625 CURVE",
"252 595 OFFCURVE",
"352 570 OFFCURVE",
"382 570 CURVE"
);
},
{
closed = 1;
nodes = (
"262 570 OFFCURVE",
"287 595 OFFCURVE",
"287 625 CURVE",
"287 655 OFFCURVE",
"262 680 OFFCURVE",
"232 680 CURVE",
"202 680 OFFCURVE",
"102 655 OFFCURVE",
"102 625 CURVE",
"102 595 OFFCURVE",
"202 570 OFFCURVE",
"232 570 CURVE"
);
},
{
closed = 1;
nodes = (
"187 570 OFFCURVE",
"287 595 OFFCURVE",
"287 625 CURVE",
"287 655 OFFCURVE",
"187 680 OFFCURVE",
"157 680 CURVE",
"127 680 OFFCURVE",
"102 655 OFFCURVE",
"102 625 CURVE",
"102 595 OFFCURVE",
"127 570 OFFCURVE",
"157 570 CURVE"
);
},
{
closed = 1;
nodes = (
"577 171 OFFCURVE",
"599 273 OFFCURVE",
"599 301 CURVE",
"599 329 OFFCURVE",
"577 351 OFFCURVE",
"549 351 CURVE",
"521 351 OFFCURVE",
"499 329 OFFCURVE",
"499 301 CURVE",
"499 273 OFFCURVE",
"521 171 OFFCURVE",
"549 171 CURVE"
);
},
{
closed = 1;
nodes = (
"577 171 OFFCURVE",
"599 193 OFFCURVE",
"599 221 CURVE",
"599 249 OFFCURVE",
"577 351 OFFCURVE",
"549 351 CURVE",
"521 351 OFFCURVE",
"499 249 OFFCURVE",
"499 221 CURVE",
"499 193 OFFCURVE",
"521 171 OFFCURVE",
"549 171 CURVE"
);
},
{
closed = 1;
nodes = (
"577 331 OFFCURVE",
"599 353 OFFCURVE",
"599 381 CURVE",
"599 409 OFFCURVE",
"577 511 OFFCURVE",
"549 511 CURVE",
"521 511 OFFCURVE",
"499 409 OFFCURVE",
"499 381 CURVE",
"499 353 OFFCURVE",
"521 331 OFFCURVE",
"549 331 CURVE"
);
},
{
closed = 1;
nodes = (
"202 110 OFFCURVE",
"102 85 OFFCURVE",
"102 55 CURVE",
"102 25 OFFCURVE",
"202 0 OFFCURVE",
"232 0 CURVE",
"262 0 OFFCURVE",
"287 25 OFFCURVE",
"287 55 CURVE",
"287 85 OFFCURVE",
"262 110 OFFCURVE",
"232 110 CURVE"
);
},
{
closed = 1;
nodes = (
"127 110 OFFCURVE",
"102 85 OFFCURVE",
"102 55 CURVE",
"102 25 OFFCURVE",
"127 0 OFFCURVE",
"157 0 CURVE",
"187 0 OFFCURVE",
"287 25 OFFCURVE",
"287 55 CURVE",
"287 85 OFFCURVE",
"187 110 OFFCURVE",
"157 110 CURVE"
);
},
{
closed = 1;
nodes = (
"521 511 OFFCURVE",
"499 489 OFFCURVE",
"499 461 CURVE",
"499 433 OFFCURVE",
"521 331 OFFCURVE",
"549 331 CURVE",
"577 331 OFFCURVE",
"599 433 OFFCURVE",
"599 461 CURVE",
"599 489 OFFCURVE",
"577 511 OFFCURVE",
"549 511 CURVE"
);
},
{
closed = 1;
nodes = (
"337 570 OFFCURVE",
"437 595 OFFCURVE",
"437 625 CURVE",
"437 655 OFFCURVE",
"337 680 OFFCURVE",
"307 680 CURVE",
"277 680 OFFCURVE",
"252 655 OFFCURVE",
"252 625 CURVE",
"252 595 OFFCURVE",
"277 570 OFFCURVE",
"307 570 CURVE"
);
},
{
closed = 1;
nodes = (
"383 79 OFFCURVE",
"474 130 OFFCURVE",
"496 148 CURVE SMOOTH",
"517 166 OFFCURVE",
"521 197 OFFCURVE",
"503 218 CURVE SMOOTH",
"485 239 OFFCURVE",
"452 243 OFFCURVE",
"431 224 CURVE SMOOTH",
"411 206 OFFCURVE",
"347 123 OFFCURVE",
"365 101 CURVE SMOOTH"
);
},
{
closed = 1;
nodes = (
"383 79 OFFCURVE",
"415 77 OFFCURVE",
"435 95 CURVE SMOOTH",
"456 114 OFFCURVE",
"521 197 OFFCURVE",
"503 218 CURVE SMOOTH",
"485 239 OFFCURVE",
"392 190 OFFCURVE",
"370 172 CURVE",
"349 154 OFFCURVE",
"347 123 OFFCURVE",
"365 101 CURVE SMOOTH"
);
},
{
closed = 1;
nodes = (
"346 548 OFFCURVE",
"410 465 OFFCURVE",
"430 447 CURVE SMOOTH",
"451 428 OFFCURVE",
"484 432 OFFCURVE",
"502 453 CURVE SMOOTH",
"520 474 OFFCURVE",
"516 505 OFFCURVE",
"495 523 CURVE SMOOTH",
"473 541 OFFCURVE",
"382 592 OFFCURVE",
"364 570 CURVE SMOOTH"
);
},
{
closed = 1;
nodes = (
"346 548 OFFCURVE",
"348 517 OFFCURVE",
"369 499 CURVE",
"391 481 OFFCURVE",
"484 432 OFFCURVE",
"502 453 CURVE SMOOTH",
"520 474 OFFCURVE",
"455 557 OFFCURVE",
"434 576 CURVE SMOOTH",
"414 594 OFFCURVE",
"382 592 OFFCURVE",
"364 570 CURVE SMOOTH"
);
}
);
width = 700;
}
);
unicode = 0044;
},
{
glyphname = Eth;
lastChange = "2020-12-30 12:36:02 +0000";
layers = (
{
components = (
{
name = D;
}
);
layerId = "C8365536-00F6-4CBD-B31D-2172D190A829";
paths = (
{
closed = 1;
nodes = (
"124 313 OFFCURVE",
"146 292 OFFCURVE",
"174 292 CURVE SMOOTH",
"202 292 OFFCURVE",
"224 313 OFFCURVE",
"224 341 CURVE SMOOTH",
"224 369 OFFCURVE",
"202 392 OFFCURVE",
"174 392 CURVE SMOOTH",
"146 392 OFFCURVE",
"124 369 OFFCURVE",
"124 341 CURVE SMOOTH"
);
},
{
closed = 1;
nodes = (
"44 315 OFFCURVE",
"66 292 OFFCURVE",
"94 292 CURVE SMOOTH",
"122 292 OFFCURVE",
"224 313 OFFCURVE",
"224 341 CURVE SMOOTH",
"224 369 OFFCURVE",
"122 392 OFFCURVE",
"94 392 CURVE SMOOTH",
"66 392 OFFCURVE",
"44 369 OFFCURVE",
"44 341 CURVE SMOOTH"
);
},
{
closed = 1;
nodes = (
"204 313 OFFCURVE",
"226 292 OFFCURVE",
"254 292 CURVE SMOOTH",
"282 292 OFFCURVE",
"304 313 OFFCURVE",
"304 341 CURVE SMOOTH",
"304 369 OFFCURVE",
"282 392 OFFCURVE",
"254 392 CURVE SMOOTH",
"226 392 OFFCURVE",
"204 369 OFFCURVE",
"204 341 CURVE SMOOTH"
);
},
{
closed = 1;
nodes = (
"384 369 OFFCURVE",
"362 392 OFFCURVE",
"334 392 CURVE",
"306 392 OFFCURVE",
"204 369 OFFCURVE",
"204 341 CURVE",
"204 313 OFFCURVE",
"306 292 OFFCURVE",
"334 292 CURVE SMOOTH",
"362 292 OFFCURVE",
"384 315 OFFCURVE",
"384 341 CURVE"
);
}
);
width = 700;
}
);
unicode = 00D0;
},
{
glyphname = E;
lastChange = "2020-12-30 09:47:25 +0000";
layers = (
{
layerId = "C8365536-00F6-4CBD-B31D-2172D190A829";
paths = (
{
closed = 1;
nodes = (
"197 570 OFFCURVE",
"295 594 OFFCURVE",
"295 625 CURVE SMOOTH",
"295 656 OFFCURVE",
"197 680 OFFCURVE",
"166 680 CURVE SMOOTH",
"135 680 OFFCURVE",
"110 656 OFFCURVE",
"110 625 CURVE SMOOTH",
"110 594 OFFCURVE",
"135 570 OFFCURVE",
"166 570 CURVE SMOOTH"
);
},
{
closed = 1;
nodes = (
"497 0 OFFCURVE",
"595 24 OFFCURVE",
"595 55 CURVE SMOOTH",
"595 86 OFFCURVE",
"497 110 OFFCURVE",
"466 110 CURVE SMOOTH",
"435 110 OFFCURVE",
"410 86 OFFCURVE",
"410 55 CURVE SMOOTH",
"410 24 OFFCURVE",
"435 0 OFFCURVE",
"466 0 CURVE SMOOTH"
);
},
{
closed = 1;
nodes = (
"572 0 OFFCURVE",
"595 24 OFFCURVE",
"595 55 CURVE SMOOTH",
"595 86 OFFCURVE",
"572 110 OFFCURVE",
"541 110 CURVE SMOOTH",
"510 110 OFFCURVE",
"410 86 OFFCURVE",
"410 55 CURVE SMOOTH",
"410 24 OFFCURVE",
"510 0 OFFCURVE",
"541 0 CURVE SMOOTH"
);
},
{
closed = 1;
nodes = (
"197 0 OFFCURVE",
"295 24 OFFCURVE",
"295 55 CURVE SMOOTH",
"295 86 OFFCURVE",
"197 110 OFFCURVE",
"166 110 CURVE SMOOTH",
"135 110 OFFCURVE",
"110 86 OFFCURVE",
"110 55 CURVE SMOOTH",
"110 24 OFFCURVE",
"135 0 OFFCURVE",
"166 0 CURVE SMOOTH"
);
},
{
closed = 1;
nodes = (
"272 0 OFFCURVE",
"295 24 OFFCURVE",
"295 55 CURVE SMOOTH",
"295 86 OFFCURVE",
"272 110 OFFCURVE",
"241 110 CURVE SMOOTH",
"210 110 OFFCURVE",
"110 86 OFFCURVE",
"110 55 CURVE",
"110 24 OFFCURVE",
"210 0 OFFCURVE",
"241 0 CURVE SMOOTH"
);
},
{
closed = 1;
nodes = (
"347 0 OFFCURVE",
"445 24 OFFCURVE",
"445 55 CURVE SMOOTH",
"445 86 OFFCURVE",
"347 110 OFFCURVE",
"316 110 CURVE SMOOTH",
"285 110 OFFCURVE",
"260 86 OFFCURVE",
"260 55 CURVE SMOOTH",
"260 24 OFFCURVE",
"285 0 OFFCURVE",
"316 0 CURVE SMOOTH"
);
},
{
closed = 1;
nodes = (
"422 0 OFFCURVE",
"445 24 OFFCURVE",
"445 55 CURVE SMOOTH",
"445 86 OFFCURVE",
"422 110 OFFCURVE",
"391 110 CURVE SMOOTH",
"360 110 OFFCURVE",
"260 86 OFFCURVE",
"260 55 CURVE SMOOTH",
"260 24 OFFCURVE",
"360 0 OFFCURVE",
"391 0 CURVE SMOOTH"
);
},
{
closed = 1;
nodes = (
"194 490 OFFCURVE",
"215 512 OFFCURVE",
"215 540 CURVE SMOOTH",
"215 568 OFFCURVE",
"194 590 OFFCURVE",
"166 590 CURVE SMOOTH",
"138 590 OFFCURVE",
"115 568 OFFCURVE",
"115 540 CURVE SMOOTH",
"115 512 OFFCURVE",
"138 490 OFFCURVE",
"166 490 CURVE SMOOTH"
);
},
{
closed = 1;
nodes = (
"194 250 OFFCURVE",
"215 272 OFFCURVE",
"215 300 CURVE",
"215 328 OFFCURVE",
"194 350 OFFCURVE",
"166 350 CURVE SMOOTH",
"138 350 OFFCURVE",
"115 328 OFFCURVE",
"115 300 CURVE SMOOTH",
"115 272 OFFCURVE",
"138 250 OFFCURVE",
"166 250 CURVE SMOOTH"
);
},
{
closed = 1;
nodes = (
"497 570 OFFCURVE",
"595 594 OFFCURVE",
"595 625 CURVE SMOOTH",
"595 656 OFFCURVE",
"497 680 OFFCURVE",
"466 680 CURVE SMOOTH",
"435 680 OFFCURVE",
"410 656 OFFCURVE",
"410 625 CURVE SMOOTH",
"410 594 OFFCURVE",
"435 570 OFFCURVE",
"466 570 CURVE SMOOTH"
);
},
{
closed = 1;
nodes = (
"572 570 OFFCURVE",
"595 594 OFFCURVE",
"595 625 CURVE SMOOTH",
"595 656 OFFCURVE",
"572 680 OFFCURVE",
"541 680 CURVE SMOOTH",
"510 680 OFFCURVE",
"410 656 OFFCURVE",
"410 625 CURVE SMOOTH",
"410 594 OFFCURVE",
"510 570 OFFCURVE",
"541 570 CURVE SMOOTH"
);
},
{
closed = 1;
nodes = (
"272 570 OFFCURVE",
"295 594 OFFCURVE",
"295 625 CURVE SMOOTH",
"295 656 OFFCURVE",
"272 680 OFFCURVE",
"241 680 CURVE SMOOTH",
"210 680 OFFCURVE",
"110 656 OFFCURVE",
"110 625 CURVE",
"110 594 OFFCURVE",
"210 570 OFFCURVE",
"241 570 CURVE SMOOTH"
);
},
{
closed = 1;
nodes = (
"347 570 OFFCURVE",
"445 594 OFFCURVE",
"445 625 CURVE SMOOTH",
"445 656 OFFCURVE",
"347 680 OFFCURVE",
"316 680 CURVE SMOOTH",
"285 680 OFFCURVE",
"260 656 OFFCURVE",
"260 625 CURVE SMOOTH",
"260 594 OFFCURVE",
"285 570 OFFCURVE",
"316 570 CURVE SMOOTH"
);
},
{
closed = 1;
nodes = (
"422 570 OFFCURVE",
"445 594 OFFCURVE",
"445 625 CURVE SMOOTH",
"445 656 OFFCURVE",
"422 680 OFFCURVE",
"391 680 CURVE SMOOTH",
"360 680 OFFCURVE",
"260 656 OFFCURVE",
"260 625 CURVE SMOOTH",
"260 594 OFFCURVE",
"360 570 OFFCURVE",
"391 570 CURVE SMOOTH"
);
},
{
closed = 1;
nodes = (
"272 284 OFFCURVE",
"295 308 OFFCURVE",
"295 339 CURVE SMOOTH",
"295 370 OFFCURVE",
"272 394 OFFCURVE",
"241 394 CURVE SMOOTH",
"210 394 OFFCURVE",
"185 370 OFFCURVE",
"185 339 CURVE",
"185 308 OFFCURVE",
"210 284 OFFCURVE",
"241 284 CURVE SMOOTH"
);
},
{
closed = 1;
nodes = (
"347 284 OFFCURVE",
"445 308 OFFCURVE",
"445 339 CURVE SMOOTH",
"445 370 OFFCURVE",
"347 394 OFFCURVE",
"316 394 CURVE SMOOTH",
"285 394 OFFCURVE",
"260 370 OFFCURVE",
"260 339 CURVE SMOOTH",
"260 308 OFFCURVE",
"285 284 OFFCURVE",
"316 284 CURVE SMOOTH"
);
},
{
closed = 1;
nodes = (
"422 284 OFFCURVE",
"445 308 OFFCURVE",
"445 339 CURVE SMOOTH",
"445 370 OFFCURVE",
"422 394 OFFCURVE",
"391 394 CURVE SMOOTH",
"360 394 OFFCURVE",
"260 370 OFFCURVE",
"260 339 CURVE SMOOTH",
"260 308 OFFCURVE",
"360 284 OFFCURVE",
"391 284 CURVE SMOOTH"
);
},
{
closed = 1;
nodes = (
"569 490 OFFCURVE",
"590 512 OFFCURVE",
"590 540 CURVE SMOOTH",
"590 568 OFFCURVE",
"569 680 OFFCURVE",
"541 680 CURVE SMOOTH",
"513 680 OFFCURVE",
"490 568 OFFCURVE",
"490 540 CURVE SMOOTH",
"490 512 OFFCURVE",
"513 490 OFFCURVE",
"541 490 CURVE SMOOTH"
);
},
{
closed = 1;
nodes = (
"569 0 OFFCURVE",
"590 112 OFFCURVE",
"590 140 CURVE SMOOTH",
"590 168 OFFCURVE",
"569 190 OFFCURVE",
"541 190 CURVE SMOOTH",
"513 190 OFFCURVE",
"490 168 OFFCURVE",
"490 140 CURVE SMOOTH",
"490 112 OFFCURVE",
"513 0 OFFCURVE",
"541 0 CURVE SMOOTH"
);
},
{
closed = 1;
nodes = (
"166 85 OFFCURVE",
"220 174 OFFCURVE",
"230 200 CURVE SMOOTH",
"240 227 OFFCURVE",
"227 255 OFFCURVE",
"201 264 CURVE SMOOTH",
"174 273 OFFCURVE",
"145 261 OFFCURVE",
"136 235 CURVE SMOOTH",
"127 208 OFFCURVE",
"113 105 OFFCURVE",
"139 95 CURVE SMOOTH"
);
},
{
closed = 1;
nodes = (
"164 85 OFFCURVE",
"193 99 OFFCURVE",
"202 125 CURVE SMOOTH",
"211 152 OFFCURVE",
"227 255 OFFCURVE",
"201 264 CURVE SMOOTH",
"174 273 OFFCURVE",
"118 186 OFFCURVE",
"108 159 CURVE SMOOTH",
"98 133 OFFCURVE",
"113 105 OFFCURVE",
"139 95 CURVE SMOOTH"
);
},
{
closed = 1;
nodes = (
"183 330 OFFCURVE",
"237 419 OFFCURVE",
"247 445 CURVE SMOOTH",
"257 472 OFFCURVE",
"244 500 OFFCURVE",
"218 509 CURVE SMOOTH",
"191 518 OFFCURVE",
"162 506 OFFCURVE",
"153 480 CURVE SMOOTH",
"144 453 OFFCURVE",
"130 350 OFFCURVE",
"156 340 CURVE SMOOTH"
);
},
{
closed = 1;
nodes = (
"181 330 OFFCURVE",
"210 344 OFFCURVE",
"219 370 CURVE SMOOTH",
"228 397 OFFCURVE",
"244 500 OFFCURVE",
"218 509 CURVE SMOOTH",
"191 518 OFFCURVE",
"135 431 OFFCURVE",
"125 404 CURVE SMOOTH",
"115 378 OFFCURVE",
"130 350 OFFCURVE",
"156 340 CURVE SMOOTH"
);
}
);
width = 700;
}
);
unicode = 0045;
},
{
glyphname = F;
lastChange = "2020-12-30 11:29:19 +0000";
layers = (
{
layerId = "C8365536-00F6-4CBD-B31D-2172D190A829";
paths = (
{
closed = 1;
nodes = (
"197 570 OFFCURVE",
"295 594 OFFCURVE",
"295 625 CURVE SMOOTH",
"295 656 OFFCURVE",
"197 680 OFFCURVE",
"166 680 CURVE SMOOTH",
"135 680 OFFCURVE",
"110 656 OFFCURVE",
"110 625 CURVE SMOOTH",
"110 594 OFFCURVE",
"135 570 OFFCURVE",
"166 570 CURVE SMOOTH"
);
},
{
closed = 1;
nodes = (
"197 0 OFFCURVE",
"295 24 OFFCURVE",
"295 55 CURVE SMOOTH",
"295 86 OFFCURVE",
"197 110 OFFCURVE",
"166 110 CURVE SMOOTH",
"135 110 OFFCURVE",
"110 86 OFFCURVE",
"110 55 CURVE SMOOTH",
"110 24 OFFCURVE",
"135 0 OFFCURVE",
"166 0 CURVE SMOOTH"
);
},
{
closed = 1;
nodes = (
"272 0 OFFCURVE",
"295 24 OFFCURVE",
"295 55 CURVE SMOOTH",
"295 86 OFFCURVE",
"272 110 OFFCURVE",
"241 110 CURVE SMOOTH",
"210 110 OFFCURVE",
"110 86 OFFCURVE",
"110 55 CURVE",
"110 24 OFFCURVE",
"210 0 OFFCURVE",
"241 0 CURVE SMOOTH"
);
},
{
closed = 1;
nodes = (
"194 490 OFFCURVE",
"215 512 OFFCURVE",
"215 540 CURVE SMOOTH",
"215 568 OFFCURVE",
"194 590 OFFCURVE",
"166 590 CURVE SMOOTH",
"138 590 OFFCURVE",
"115 568 OFFCURVE",
"115 540 CURVE SMOOTH",
"115 512 OFFCURVE",
"138 490 OFFCURVE",
"166 490 CURVE SMOOTH"
);
},
{
closed = 1;
nodes = (
"194 250 OFFCURVE",
"215 272 OFFCURVE",
"215 300 CURVE",
"215 328 OFFCURVE",
"194 350 OFFCURVE",
"166 350 CURVE SMOOTH",
"138 350 OFFCURVE",
"115 328 OFFCURVE",
"115 300 CURVE SMOOTH",
"115 272 OFFCURVE",
"138 250 OFFCURVE",
"166 250 CURVE SMOOTH"
);
},
{
closed = 1;
nodes = (
"497 570 OFFCURVE",
"595 594 OFFCURVE",
"595 625 CURVE SMOOTH",
"595 656 OFFCURVE",
"497 680 OFFCURVE",
"466 680 CURVE SMOOTH",
"435 680 OFFCURVE",
"410 656 OFFCURVE",
"410 625 CURVE SMOOTH",
"410 594 OFFCURVE",
"435 570 OFFCURVE",
"466 570 CURVE SMOOTH"
);
},
{
closed = 1;
nodes = (
"572 570 OFFCURVE",
"595 594 OFFCURVE",
"595 625 CURVE SMOOTH",
"595 656 OFFCURVE",
"572 680 OFFCURVE",
"541 680 CURVE SMOOTH",
"510 680 OFFCURVE",
"410 656 OFFCURVE",
"410 625 CURVE SMOOTH",
"410 594 OFFCURVE",
"510 570 OFFCURVE",
"541 570 CURVE SMOOTH"
);
},
{
closed = 1;
nodes = (
"272 570 OFFCURVE",
"295 594 OFFCURVE",
"295 625 CURVE SMOOTH",
"295 656 OFFCURVE",
"272 680 OFFCURVE",
"241 680 CURVE SMOOTH",
"210 680 OFFCURVE",
"110 656 OFFCURVE",
"110 625 CURVE",
"110 594 OFFCURVE",
"210 570 OFFCURVE",
"241 570 CURVE SMOOTH"
);
},
{
closed = 1;
nodes = (
"347 570 OFFCURVE",
"445 594 OFFCURVE",
"445 625 CURVE SMOOTH",
"445 656 OFFCURVE",
"347 680 OFFCURVE",
"316 680 CURVE SMOOTH",
"285 680 OFFCURVE",
"260 656 OFFCURVE",
"260 625 CURVE SMOOTH",
"260 594 OFFCURVE",
"285 570 OFFCURVE",
"316 570 CURVE SMOOTH"
);
},
{
closed = 1;
nodes = (
"422 570 OFFCURVE",
"445 594 OFFCURVE",
"445 625 CURVE SMOOTH",
"445 656 OFFCURVE",
"422 680 OFFCURVE",
"391 680 CURVE SMOOTH",
"360 680 OFFCURVE",
"260 656 OFFCURVE",
"260 625 CURVE SMOOTH",
"260 594 OFFCURVE",
"360 570 OFFCURVE",
"391 570 CURVE SMOOTH"
);
},
{
closed = 1;
nodes = (
"272 284 OFFCURVE",
"295 308 OFFCURVE",
"295 339 CURVE SMOOTH",
"295 370 OFFCURVE",
"272 394 OFFCURVE",
"241 394 CURVE SMOOTH",
"210 394 OFFCURVE",
"185 370 OFFCURVE",
"185 339 CURVE",
"185 308 OFFCURVE",
"210 284 OFFCURVE",
"241 284 CURVE SMOOTH"
);
},
{
closed = 1;
nodes = (
"347 284 OFFCURVE",
"445 308 OFFCURVE",
"445 339 CURVE SMOOTH",
"445 370 OFFCURVE",
"347 394 OFFCURVE",
"316 394 CURVE SMOOTH",
"285 394 OFFCURVE",
"260 370 OFFCURVE",
"260 339 CURVE SMOOTH",
"260 308 OFFCURVE",
"285 284 OFFCURVE",
"316 284 CURVE SMOOTH"
);
},
{
closed = 1;
nodes = (
"422 284 OFFCURVE",
"445 308 OFFCURVE",
"445 339 CURVE SMOOTH",
"445 370 OFFCURVE",
"422 394 OFFCURVE",
"391 394 CURVE SMOOTH",
"360 394 OFFCURVE",
"260 370 OFFCURVE",
"260 339 CURVE SMOOTH",
"260 308 OFFCURVE",
"360 284 OFFCURVE",
"391 284 CURVE SMOOTH"
);
},
{
closed = 1;
nodes = (
"569 490 OFFCURVE",
"590 512 OFFCURVE",
"590 540 CURVE SMOOTH",
"590 568 OFFCURVE",
"569 680 OFFCURVE",
"541 680 CURVE SMOOTH",
"513 680 OFFCURVE",
"490 568 OFFCURVE",
"490 540 CURVE SMOOTH",
"490 512 OFFCURVE",
"513 490 OFFCURVE",
"541 490 CURVE SMOOTH"
);
},
{
closed = 1;
nodes = (
"166 85 OFFCURVE",
"220 174 OFFCURVE",
"230 200 CURVE SMOOTH",
"240 227 OFFCURVE",
"227 255 OFFCURVE",
"201 264 CURVE SMOOTH",
"174 273 OFFCURVE",
"145 261 OFFCURVE",
"136 235 CURVE SMOOTH",
"127 208 OFFCURVE",
"113 105 OFFCURVE",
"139 95 CURVE SMOOTH"
);
},
{
closed = 1;
nodes = (
"164 85 OFFCURVE",
"193 99 OFFCURVE",
"202 125 CURVE SMOOTH",
"211 152 OFFCURVE",
"227 255 OFFCURVE",
"201 264 CURVE SMOOTH",
"174 273 OFFCURVE",
"118 186 OFFCURVE",
"108 159 CURVE SMOOTH",
"98 133 OFFCURVE",
"113 105 OFFCURVE",
"139 95 CURVE SMOOTH"
);
},
{
closed = 1;
nodes = (
"183 330 OFFCURVE",
"237 419 OFFCURVE",
"247 445 CURVE SMOOTH",
"257 472 OFFCURVE",
"244 500 OFFCURVE",
"218 509 CURVE SMOOTH",
"191 518 OFFCURVE",
"162 506 OFFCURVE",
"153 480 CURVE SMOOTH",
"144 453 OFFCURVE",
"130 350 OFFCURVE",
"156 340 CURVE SMOOTH"
);
},
{
closed = 1;
nodes = (
"181 330 OFFCURVE",
"210 344 OFFCURVE",
"219 370 CURVE SMOOTH",
"228 397 OFFCURVE",
"244 500 OFFCURVE",
"218 509 CURVE SMOOTH",
"191 518 OFFCURVE",
"135 431 OFFCURVE",
"125 404 CURVE SMOOTH",
"115 378 OFFCURVE",
"130 350 OFFCURVE",
"156 340 CURVE SMOOTH"
);
}
);
width = 700;
}
);
unicode = 0046;
},
{
glyphname = G;
lastChange = "2022-12-12 10:40:41 +0000";
layers = (
{
layerId = "C8365536-00F6-4CBD-B31D-2172D190A829";
paths = (
{
closed = 1;
nodes = (
"305 570 OFFCURVE",
"405 595 OFFCURVE",
"405 625 CURVE",
"405 655 OFFCURVE",
"305 680 OFFCURVE",
"275 680 CURVE",
"245 680 OFFCURVE",
"220 655 OFFCURVE",
"220 625 CURVE",
"220 595 OFFCURVE",
"245 570 OFFCURVE",
"275 570 CURVE"
);
},
{
closed = 1;
nodes = (
"455 570 OFFCURVE",
"555 595 OFFCURVE",
"555 625 CURVE",
"555 655 OFFCURVE",
"455 680 OFFCURVE",
"425 680 CURVE",
"395 680 OFFCURVE",
"370 655 OFFCURVE",
"370 625 CURVE",
"370 595 OFFCURVE",
"395 570 OFFCURVE",
"425 570 CURVE"
);
},
{
closed = 1;
nodes = (
"530 570 OFFCURVE",
"555 595 OFFCURVE",
"555 625 CURVE",
"555 655 OFFCURVE",
"530 680 OFFCURVE",
"500 680 CURVE",
"470 680 OFFCURVE",
"370 655 OFFCURVE",
"370 625 CURVE",
"370 595 OFFCURVE",
"470 570 OFFCURVE",
"500 570 CURVE"
);
},
{
closed = 1;
nodes = (
"158 207 OFFCURVE",
"180 309 OFFCURVE",
"180 337 CURVE",
"180 365 OFFCURVE",
"158 387 OFFCURVE",
"130 387 CURVE",
"102 387 OFFCURVE",
"80 365 OFFCURVE",
"80 337 CURVE",
"80 309 OFFCURVE",
"102 207 OFFCURVE",
"130 207 CURVE"
);
},
{
closed = 1;
nodes = (
"158 207 OFFCURVE",
"180 229 OFFCURVE",
"180 257 CURVE",
"180 285 OFFCURVE",
"158 387 OFFCURVE",
"130 387 CURVE",
"102 387 OFFCURVE",
"80 285 OFFCURVE",
"80 257 CURVE",
"80 229 OFFCURVE",
"102 207 OFFCURVE",
"130 207 CURVE"
);
},
{
closed = 1;
nodes = (
"158 367 OFFCURVE",
"180 389 OFFCURVE",
"180 417 CURVE",
"180 445 OFFCURVE",
"158 547 OFFCURVE",
"130 547 CURVE",
"102 547 OFFCURVE",
"80 445 OFFCURVE",
"80 417 CURVE",
"80 389 OFFCURVE",
"102 367 OFFCURVE",
"130 367 CURVE"
);
},
{
closed = 1;
nodes = (
"502 241 OFFCURVE",
"480 139 OFFCURVE",
"480 111 CURVE",
"480 83 OFFCURVE",
"502 61 OFFCURVE",
"530 61 CURVE",
"558 61 OFFCURVE",
"580 83 OFFCURVE",
"580 111 CURVE",
"580 139 OFFCURVE",
"558 241 OFFCURVE",
"530 241 CURVE"
);
},
{
closed = 1;
nodes = (
"502 241 OFFCURVE",
"480 219 OFFCURVE",
"480 191 CURVE",
"480 163 OFFCURVE",
"502 61 OFFCURVE",
"530 61 CURVE",
"558 61 OFFCURVE",
"580 163 OFFCURVE",
"580 191 CURVE",
"580 219 OFFCURVE",
"558 241 OFFCURVE",
"530 241 CURVE"
);
},
{
closed = 1;
nodes = (
"245 110 OFFCURVE",
"220 85 OFFCURVE",
"220 55 CURVE",
"220 25 OFFCURVE",
"245 0 OFFCURVE",
"275 0 CURVE",
"305 0 OFFCURVE",
"405 25 OFFCURVE",
"405 55 CURVE",
"405 85 OFFCURVE",
"305 110 OFFCURVE",
"275 110 CURVE"
);
},
{
closed = 1;
nodes = (
"395 110 OFFCURVE",
"370 85 OFFCURVE",
"370 55 CURVE",
"370 25 OFFCURVE",
"395 0 OFFCURVE",
"425 0 CURVE",
"455 0 OFFCURVE",
"555 25 OFFCURVE",
"555 55 CURVE",
"555 85 OFFCURVE",
"455 110 OFFCURVE",
"425 110 CURVE"
);
},
{
closed = 1;
nodes = (
"470 110 OFFCURVE",
"370 85 OFFCURVE",
"370 55 CURVE",
"370 25 OFFCURVE",
"470 0 OFFCURVE",
"500 0 CURVE",
"530 0 OFFCURVE",
"555 25 OFFCURVE",
"555 55 CURVE",
"555 85 OFFCURVE",
"530 110 OFFCURVE",
"500 110 CURVE"
);
},
{
closed = 1;
nodes = (
"102 547 OFFCURVE",
"80 525 OFFCURVE",
"80 497 CURVE",
"80 469 OFFCURVE",
"102 367 OFFCURVE",
"130 367 CURVE",
"158 367 OFFCURVE",
"180 469 OFFCURVE",
"180 497 CURVE",
"180 525 OFFCURVE",
"158 547 OFFCURVE",
"130 547 CURVE"
);
},
{
closed = 1;
nodes = (
"158 127 OFFCURVE",
"180 149 OFFCURVE",
"180 177 CURVE",
"180 205 OFFCURVE",
"158 227 OFFCURVE",
"130 227 CURVE",
"102 227 OFFCURVE",
"80 205 OFFCURVE",
"80 177 CURVE",
"80 149 OFFCURVE",
"102 127 OFFCURVE",
"130 127 CURVE"
);
},
{
closed = 1;
nodes = (
"380 570 OFFCURVE",
"405 595 OFFCURVE",
"405 625 CURVE",
"405 655 OFFCURVE",
"380 680 OFFCURVE",
"350 680 CURVE",
"320 680 OFFCURVE",
"220 655 OFFCURVE",
"220 625 CURVE",
"220 595 OFFCURVE",
"320 570 OFFCURVE",
"350 570 CURVE"
);
},
{
closed = 1;
nodes = (
"320 110 OFFCURVE",
"220 85 OFFCURVE",
"220 55 CURVE",
"220 25 OFFCURVE",
"320 0 OFFCURVE",
"350 0 CURVE",
"380 0 OFFCURVE",
"405 25 OFFCURVE",
"405 55 CURVE",
"405 85 OFFCURVE",
"380 110 OFFCURVE",
"350 110 CURVE"
);
},
{
closed = 1;
nodes = (
"502 321 OFFCURVE",
"405 299 OFFCURVE",
"405 271 CURVE",
"405 243 OFFCURVE",
"502 221 OFFCURVE",
"530 221 CURVE",
"558 221 OFFCURVE",
"580 243 OFFCURVE",
"580 271 CURVE",
"580 299 OFFCURVE",
"558 321 OFFCURVE",
"530 321 CURVE"
);
},
{
closed = 1;
nodes = (
"430 326 OFFCURVE",
"405 301 OFFCURVE",
"405 271 CURVE",
"405 241 OFFCURVE",
"430 216 OFFCURVE",
"460 216 CURVE",
"490 216 OFFCURVE",
"580 241 OFFCURVE",
"580 271 CURVE",
"580 301 OFFCURVE",
"490 326 OFFCURVE",
"460 326 CURVE"
);
},
{
closed = 1;
nodes = (
"338 126 OFFCURVE",
"336 157 OFFCURVE",
"315 175 CURVE",
"293 193 OFFCURVE",
"200 242 OFFCURVE",
"182 221 CURVE SMOOTH",
"164 200 OFFCURVE",
"229 117 OFFCURVE",
"250 98 CURVE SMOOTH",
"270 80 OFFCURVE",
"302 82 OFFCURVE",
"320 104 CURVE SMOOTH"
);
},
{
closed = 1;
nodes = (
"299 593 OFFCURVE",
"208 542 OFFCURVE",
"186 524 CURVE SMOOTH",
"165 506 OFFCURVE",
"161 475 OFFCURVE",
"179 454 CURVE SMOOTH",
"197 433 OFFCURVE",
"230 429 OFFCURVE",
"251 448 CURVE SMOOTH",
"271 466 OFFCURVE",
"335 549 OFFCURVE",
"317 571 CURVE SMOOTH"
);
},
{
closed = 1;
nodes = (
"299 593 OFFCURVE",
"267 595 OFFCURVE",
"247 577 CURVE SMOOTH",
"226 558 OFFCURVE",
"161 475 OFFCURVE",
"179 454 CURVE SMOOTH",
"197 433 OFFCURVE",
"290 482 OFFCURVE",
"312 500 CURVE",
"333 518 OFFCURVE",
"335 549 OFFCURVE",
"317 571 CURVE SMOOTH"
);
},
{
closed = 1;
nodes = (
"466 581 OFFCURVE",
"505 484 OFFCURVE",
"519 461 CURVE SMOOTH",
"534 437 OFFCURVE",
"567 432 OFFCURVE",
"590 447 CURVE SMOOTH",
"613 462 OFFCURVE",
"619 494 OFFCURVE",
"603 516 CURVE SMOOTH",
"586 539 OFFCURVE",
"513 614 OFFCURVE",
"490 598 CURVE SMOOTH"
);
},
{
closed = 1;
nodes = (
"466 581 OFFCURVE",
"460 551 OFFCURVE",
"475 528 CURVE",
"491 505 OFFCURVE",
"567 432 OFFCURVE",
"590 447 CURVE SMOOTH",
"613 462 OFFCURVE",
"574 560 OFFCURVE",
"559 584 CURVE SMOOTH",
"545 607 OFFCURVE",
"513 614 OFFCURVE",
"490 598 CURVE SMOOTH"
);
},
{
closed = 1;
nodes = (
"162 197 OFFCURVE",
"165 166 OFFCURVE",
"186 148 CURVE",
"209 130 OFFCURVE",
"302 83 OFFCURVE",
"320 104 CURVE SMOOTH",
"338 126 OFFCURVE",
"271 208 OFFCURVE",
"250 226 CURVE SMOOTH",
"230 244 OFFCURVE",
"198 241 OFFCURVE",
"180 219 CURVE SMOOTH"
);
}
);
width = 700;
}
);
unicode = 0047;
},
{
glyphname = H;
lastChange = "2020-12-25 14:47:37 +0000";
layers = (
{
layerId = "C8365536-00F6-4CBD-B31D-2172D190A829";
paths = (
{
closed = 1;
nodes = (
"230 285 OFFCURVE",
"330 310 OFFCURVE",
"330 340 CURVE",
"330 370 OFFCURVE",
"230 395 OFFCURVE",
"200 395 CURVE",
"170 395 OFFCURVE",
"145 370 OFFCURVE",
"145 340 CURVE",
"145 310 OFFCURVE",
"170 285 OFFCURVE",
"200 285 CURVE"
);
},
{
closed = 1;
nodes = (
"530 285 OFFCURVE",
"555 310 OFFCURVE",
"555 340 CURVE",
"555 370 OFFCURVE",
"530 395 OFFCURVE",
"500 395 CURVE",
"470 395 OFFCURVE",
"370 370 OFFCURVE",
"370 340 CURVE",
"370 310 OFFCURVE",
"470 285 OFFCURVE",
"500 285 CURVE"
);
},
{
closed = 1;
nodes = (
"530 570 OFFCURVE",
"629 595 OFFCURVE",
"629 625 CURVE",
"629 655 OFFCURVE",
"530 680 OFFCURVE",
"500 680 CURVE",
"470 680 OFFCURVE",
"445 655 OFFCURVE",
"445 625 CURVE",
"445 595 OFFCURVE",
"470 570 OFFCURVE",
"500 570 CURVE"
);
},
{
closed = 1;
nodes = (
"604 570 OFFCURVE",
"629 595 OFFCURVE",
"629 625 CURVE",
"629 655 OFFCURVE",
"604 680 OFFCURVE",
"574 680 CURVE",
"544 680 OFFCURVE",
"445 655 OFFCURVE",
"445 625 CURVE SMOOTH",
"445 595 OFFCURVE",
"544 570 OFFCURVE",
"574 570 CURVE"
);
},
{
closed = 1;
nodes = (
"601 410 OFFCURVE",
"625 512 OFFCURVE",
"625 540 CURVE SMOOTH",
"625 568 OFFCURVE",
"602 590 OFFCURVE",
"574 590 CURVE SMOOTH",
"546 590 OFFCURVE",
"525 568 OFFCURVE",
"525 540 CURVE SMOOTH",
"525 512 OFFCURVE",
"545 410 OFFCURVE",
"573 410 CURVE SMOOTH"
);
},
{
closed = 1;
nodes = (
"602 250 OFFCURVE",
"625 272 OFFCURVE",
"625 300 CURVE SMOOTH",
"625 328 OFFCURVE",
"602 430 OFFCURVE",
"574 430 CURVE SMOOTH",
"546 430 OFFCURVE",
"525 328 OFFCURVE",
"525 300 CURVE",
"525 272 OFFCURVE",
"546 250 OFFCURVE",
"574 250 CURVE SMOOTH"
);
},
{
closed = 1;
nodes = (
"602 90 OFFCURVE",
"625 192 OFFCURVE",
"625 220 CURVE SMOOTH",
"625 248 OFFCURVE",
"602 270 OFFCURVE",
"574 270 CURVE SMOOTH",
"546 270 OFFCURVE",
"525 248 OFFCURVE",
"525 220 CURVE SMOOTH",
"525 192 OFFCURVE",
"548 90 OFFCURVE",
"575 90 CURVE SMOOTH"
);
},
{
closed = 1;
nodes = (
"602 90 OFFCURVE",
"625 112 OFFCURVE",
"625 140 CURVE SMOOTH",
"625 168 OFFCURVE",
"602 270 OFFCURVE",
"574 270 CURVE SMOOTH",
"546 270 OFFCURVE",
"525 168 OFFCURVE",
"525 140 CURVE SMOOTH",
"525 112 OFFCURVE",
"548 90 OFFCURVE",
"574 90 CURVE SMOOTH"
);
},
{
closed = 1;
nodes = (
"602 250 OFFCURVE",
"625 352 OFFCURVE",
"625 380 CURVE SMOOTH",
"625 408 OFFCURVE",
"602 430 OFFCURVE",
"574 430 CURVE SMOOTH",
"546 430 OFFCURVE",
"525 408 OFFCURVE",
"525 380 CURVE SMOOTH",
"525 352 OFFCURVE",
"546 250 OFFCURVE",
"574 250 CURVE SMOOTH"
);
},
{
closed = 1;
nodes = (
"601 410 OFFCURVE",
"624 432 OFFCURVE",
"624 460 CURVE",
"624 488 OFFCURVE",
"602 590 OFFCURVE",
"574 590 CURVE SMOOTH",
"546 590 OFFCURVE",
"524 488 OFFCURVE",
"524 460 CURVE SMOOTH",
"524 432 OFFCURVE",
"545 410 OFFCURVE",
"573 410 CURVE SMOOTH"
);
},
{
closed = 1;
nodes = (
"305 285 OFFCURVE",
"330 310 OFFCURVE",
"330 340 CURVE",
"330 370 OFFCURVE",
"305 395 OFFCURVE",
"275 395 CURVE",
"245 395 OFFCURVE",
"145 370 OFFCURVE",
"145 340 CURVE",
"145 310 OFFCURVE",
"245 285 OFFCURVE",
"275 285 CURVE"
);
},
{
closed = 1;
nodes = (
"455 285 OFFCURVE",
"555 310 OFFCURVE",
"555 340 CURVE",
"555 370 OFFCURVE",
"455 395 OFFCURVE",
"425 395 CURVE",
"395 395 OFFCURVE",
"370 370 OFFCURVE",
"370 340 CURVE",
"370 310 OFFCURVE",
"395 285 OFFCURVE",
"425 285 CURVE"
);
},
{
closed = 1;
nodes = (
"230 570 OFFCURVE",
"255 595 OFFCURVE",
"255 625 CURVE",
"255 655 OFFCURVE",
"230 680 OFFCURVE",
"200 680 CURVE",
"170 680 OFFCURVE",
"71 655 OFFCURVE",
"71 625 CURVE",
"71 595 OFFCURVE",
"170 570 OFFCURVE",
"200 570 CURVE"
);
},
{
closed = 1;
nodes = (
"156 570 OFFCURVE",
"255 595 OFFCURVE",
"255 625 CURVE",
"255 655 OFFCURVE",
"156 680 OFFCURVE",
"126 680 CURVE",
"96 680 OFFCURVE",
"71 655 OFFCURVE",
"71 625 CURVE",
"71 595 OFFCURVE",
"96 570 OFFCURVE",
"126 570 CURVE"
);
},
{
closed = 1;
nodes = (
"155 410 OFFCURVE",
"175 512 OFFCURVE",
"175 540 CURVE SMOOTH",
"175 568 OFFCURVE",
"154 590 OFFCURVE",
"126 590 CURVE SMOOTH",
"98 590 OFFCURVE",
"75 568 OFFCURVE",
"75 540 CURVE SMOOTH",
"75 512 OFFCURVE",
"99 410 OFFCURVE",
"127 410 CURVE SMOOTH"
);
},
{
closed = 1;
nodes = (
"154 250 OFFCURVE",
"175 272 OFFCURVE",
"175 300 CURVE",
"175 328 OFFCURVE",
"154 430 OFFCURVE",
"126 430 CURVE SMOOTH",
"98 430 OFFCURVE",
"75 328 OFFCURVE",
"75 300 CURVE SMOOTH",
"75 272 OFFCURVE",
"98 250 OFFCURVE",
"126 250 CURVE SMOOTH"
);
},
{
closed = 1;
nodes = (
"152 90 OFFCURVE",
"175 192 OFFCURVE",
"175 220 CURVE SMOOTH",
"175 248 OFFCURVE",
"154 270 OFFCURVE",
"126 270 CURVE SMOOTH",
"98 270 OFFCURVE",
"75 248 OFFCURVE",
"75 220 CURVE SMOOTH",
"75 192 OFFCURVE",
"98 90 OFFCURVE",
"125 90 CURVE SMOOTH"
);
},
{
closed = 1;
nodes = (
"152 90 OFFCURVE",
"175 112 OFFCURVE",
"175 140 CURVE SMOOTH",
"175 168 OFFCURVE",
"154 270 OFFCURVE",
"126 270 CURVE SMOOTH",
"98 270 OFFCURVE",
"75 168 OFFCURVE",
"75 140 CURVE SMOOTH",
"75 112 OFFCURVE",
"98 90 OFFCURVE",
"126 90 CURVE SMOOTH"
);
},
{
closed = 1;
nodes = (
"154 250 OFFCURVE",
"175 352 OFFCURVE",
"175 380 CURVE SMOOTH",
"175 408 OFFCURVE",
"154 430 OFFCURVE",
"126 430 CURVE SMOOTH",
"98 430 OFFCURVE",
"75 408 OFFCURVE",
"75 380 CURVE SMOOTH",
"75 352 OFFCURVE",
"98 250 OFFCURVE",
"126 250 CURVE SMOOTH"
);
},
{
closed = 1;
nodes = (
"155 410 OFFCURVE",
"176 432 OFFCURVE",
"176 460 CURVE SMOOTH",
"176 488 OFFCURVE",
"154 590 OFFCURVE",
"126 590 CURVE SMOOTH",
"98 590 OFFCURVE",
"76 488 OFFCURVE",
"76 460 CURVE",
"76 432 OFFCURVE",
"99 410 OFFCURVE",
"127 410 CURVE SMOOTH"
);
},
{
closed = 1;
nodes = (
"235 0 OFFCURVE",
"260 25 OFFCURVE",
"260 55 CURVE",
"260 85 OFFCURVE",
"235 110 OFFCURVE",
"205 110 CURVE",
"175 110 OFFCURVE",
"76 85 OFFCURVE",
"76 55 CURVE",
"76 25 OFFCURVE",
"175 0 OFFCURVE",
"205 0 CURVE"
);
},
{
closed = 1;
nodes = (
"161 0 OFFCURVE",
"260 25 OFFCURVE",
"260 55 CURVE",
"260 85 OFFCURVE",
"161 110 OFFCURVE",
"131 110 CURVE",
"101 110 OFFCURVE",
"76 85 OFFCURVE",
"76 55 CURVE",
"76 25 OFFCURVE",
"101 0 OFFCURVE",
"131 0 CURVE"
);
},
{
closed = 1;
nodes = (
"605 0 OFFCURVE",
"630 25 OFFCURVE",
"630 55 CURVE",
"630 85 OFFCURVE",
"605 110 OFFCURVE",
"575 110 CURVE",
"545 110 OFFCURVE",
"446 85 OFFCURVE",
"446 55 CURVE",
"446 25 OFFCURVE",
"545 0 OFFCURVE",
"575 0 CURVE"
);
},
{
closed = 1;
nodes = (
"531 0 OFFCURVE",
"630 25 OFFCURVE",
"630 55 CURVE",
"630 85 OFFCURVE",
"531 110 OFFCURVE",
"501 110 CURVE",
"471 110 OFFCURVE",
"446 85 OFFCURVE",
"446 55 CURVE",
"446 25 OFFCURVE",
"471 0 OFFCURVE",
"501 0 CURVE"
);
},
{
closed = 1;
nodes = (
"380 285 OFFCURVE",
"405 310 OFFCURVE",
"405 340 CURVE",
"405 370 OFFCURVE",
"380 395 OFFCURVE",
"350 395 CURVE",
"320 395 OFFCURVE",
"295 370 OFFCURVE",
"295 340 CURVE",
"295 310 OFFCURVE",
"320 285 OFFCURVE",
"350 285 CURVE"
);
}
);
width = 700;
}
);
unicode = 0048;
},
{
glyphname = I;
lastChange = "2020-12-30 09:58:02 +0000";
layers = (
{
layerId = "C8365536-00F6-4CBD-B31D-2172D190A829";
paths = (
{
closed = 1;
nodes = (
"455 0 OFFCURVE",
"555 25 OFFCURVE",
"555 55 CURVE",
"555 85 OFFCURVE",
"455 110 OFFCURVE",
"425 110 CURVE",
"395 110 OFFCURVE",
"370 85 OFFCURVE",
"370 55 CURVE",
"370 25 OFFCURVE",
"395 0 OFFCURVE",
"425 0 CURVE"
);
},
{
closed = 1;
nodes = (
"455 570 OFFCURVE",
"555 595 OFFCURVE",
"555 625 CURVE",
"555 655 OFFCURVE",
"455 680 OFFCURVE",
"425 680 CURVE",
"395 680 OFFCURVE",
"370 655 OFFCURVE",
"370 625 CURVE",
"370 595 OFFCURVE",
"395 570 OFFCURVE",
"425 570 CURVE"
);
},
{
closed = 1;
nodes = (
"381 570 OFFCURVE",
"406 595 OFFCURVE",
"406 625 CURVE",
"406 655 OFFCURVE",
"381 680 OFFCURVE",
"351 680 CURVE",
"321 680 OFFCURVE",
"296 655 OFFCURVE",
"296 625 CURVE",
"296 595 OFFCURVE",
"321 570 OFFCURVE",
"351 570 CURVE"
);
},
{
closed = 1;
nodes = (
"305 0 OFFCURVE",
"330 25 OFFCURVE",
"330 55 CURVE",
"330 85 OFFCURVE",
"305 110 OFFCURVE",
"275 110 CURVE",
"245 110 OFFCURVE",
"145 85 OFFCURVE",
"145 55 CURVE",
"145 25 OFFCURVE",
"245 0 OFFCURVE",
"275 0 CURVE"
);
},
{
closed = 1;
nodes = (
"305 570 OFFCURVE",
"330 595 OFFCURVE",
"330 625 CURVE",
"330 655 OFFCURVE",
"305 680 OFFCURVE",
"275 680 CURVE",
"245 680 OFFCURVE",
"145 655 OFFCURVE",
"145 625 CURVE",
"145 595 OFFCURVE",
"245 570 OFFCURVE",
"275 570 CURVE"
);
},
{
closed = 1;
nodes = (
"382 0 OFFCURVE",
"405 24 OFFCURVE",
"405 55 CURVE SMOOTH",
"405 86 OFFCURVE",
"382 110 OFFCURVE",
"351 110 CURVE SMOOTH",
"320 110 OFFCURVE",
"295 86 OFFCURVE",
"295 55 CURVE SMOOTH",
"295 24 OFFCURVE",
"320 0 OFFCURVE",
"351 0 CURVE SMOOTH"
);
},
{
closed = 1;
nodes = (
"380 410 OFFCURVE",
"400 512 OFFCURVE",
"400 540 CURVE SMOOTH",
"400 568 OFFCURVE",
"379 590 OFFCURVE",
"351 590 CURVE SMOOTH",
"323 590 OFFCURVE",
"300 568 OFFCURVE",
"300 540 CURVE SMOOTH",
"300 512 OFFCURVE",
"324 410 OFFCURVE",
"352 410 CURVE SMOOTH"
);
},
{
closed = 1;
nodes = (
"379 250 OFFCURVE",
"400 272 OFFCURVE",
"400 300 CURVE",
"400 328 OFFCURVE",
"379 430 OFFCURVE",
"351 430 CURVE SMOOTH",
"323 430 OFFCURVE",
"300 328 OFFCURVE",
"300 300 CURVE SMOOTH",
"300 272 OFFCURVE",
"323 250 OFFCURVE",
"351 250 CURVE SMOOTH"
);
},
{
closed = 1;
nodes = (
"379 90 OFFCURVE",
"400 192 OFFCURVE",
"400 220 CURVE SMOOTH",
"400 248 OFFCURVE",
"379 270 OFFCURVE",
"351 270 CURVE SMOOTH",
"323 270 OFFCURVE",
"300 248 OFFCURVE",
"300 220 CURVE SMOOTH",
"300 192 OFFCURVE",
"323 90 OFFCURVE",
"351 90 CURVE SMOOTH"
);
},
{
closed = 1;
nodes = (
"377 90 OFFCURVE",
"400 112 OFFCURVE",
"400 140 CURVE SMOOTH",
"400 168 OFFCURVE",
"379 270 OFFCURVE",
"351 270 CURVE SMOOTH",
"323 270 OFFCURVE",
"300 168 OFFCURVE",
"300 140 CURVE SMOOTH",
"300 112 OFFCURVE",
"323 90 OFFCURVE",
"351 90 CURVE SMOOTH"
);
},
{
closed = 1;
nodes = (
"379 250 OFFCURVE",
"400 352 OFFCURVE",
"400 380 CURVE SMOOTH",
"400 408 OFFCURVE",
"379 430 OFFCURVE",
"351 430 CURVE SMOOTH",
"323 430 OFFCURVE",
"300 408 OFFCURVE",
"300 380 CURVE SMOOTH",
"300 352 OFFCURVE",
"323 250 OFFCURVE",
"351 250 CURVE SMOOTH"
);
},
{
closed = 1;
nodes = (
"380 410 OFFCURVE",
"401 432 OFFCURVE",
"401 460 CURVE SMOOTH",
"401 488 OFFCURVE",
"379 590 OFFCURVE",
"351 590 CURVE SMOOTH",
"323 590 OFFCURVE",
"301 488 OFFCURVE",
"301 460 CURVE",
"301 432 OFFCURVE",
"324 410 OFFCURVE",
"352 410 CURVE SMOOTH"
);
},
{
closed = 1;
nodes = (
"530 0 OFFCURVE",
"555 25 OFFCURVE",
"555 55 CURVE",
"555 85 OFFCURVE",
"530 110 OFFCURVE",
"500 110 CURVE",
"470 110 OFFCURVE",
"370 85 OFFCURVE",
"370 55 CURVE",
"370 25 OFFCURVE",
"470 0 OFFCURVE",
"500 0 CURVE"
);
},
{
closed = 1;
nodes = (
"230 0 OFFCURVE",
"330 25 OFFCURVE",
"330 55 CURVE",
"330 85 OFFCURVE",
"230 110 OFFCURVE",
"200 110 CURVE",
"170 110 OFFCURVE",
"145 85 OFFCURVE",
"145 55 CURVE",
"145 25 OFFCURVE",
"170 0 OFFCURVE",
"200 0 CURVE"
);
},
{
closed = 1;
nodes = (
"230 570 OFFCURVE",
"330 595 OFFCURVE",
"330 625 CURVE",
"330 655 OFFCURVE",
"230 680 OFFCURVE",
"200 680 CURVE",
"170 680 OFFCURVE",
"145 655 OFFCURVE",
"145 625 CURVE",
"145 595 OFFCURVE",
"170 570 OFFCURVE",
"200 570 CURVE"
);
},
{
closed = 1;
nodes = (
"530 570 OFFCURVE",
"555 595 OFFCURVE",
"555 625 CURVE",
"555 655 OFFCURVE",
"530 680 OFFCURVE",
"500 680 CURVE",
"470 680 OFFCURVE",
"370 655 OFFCURVE",
"370 625 CURVE",
"370 595 OFFCURVE",
"470 570 OFFCURVE",
"500 570 CURVE"
);
}
);
width = 700;
}
);
unicode = 0049;
},
{
glyphname = J;
lastChange = "2020-12-30 13:23:34 +0000";
layers = (
{
guideLines = (
{
position = "{472, 90}";
}
);
layerId = "C8365536-00F6-4CBD-B31D-2172D190A829";
paths = (
{
closed = 1;
nodes = (
"576 570 OFFCURVE",
"601 595 OFFCURVE",
"601 625 CURVE",
"601 655 OFFCURVE",
"576 680 OFFCURVE",
"546 680 CURVE",
"516 680 OFFCURVE",
"417 655 OFFCURVE",
"417 625 CURVE",
"417 595 OFFCURVE",
"516 570 OFFCURVE",
"546 570 CURVE"
);
},
{
closed = 1;
nodes = (
"502 570 OFFCURVE",
"601 595 OFFCURVE",
"601 625 CURVE",
"601 655 OFFCURVE",
"502 680 OFFCURVE",
"472 680 CURVE",
"442 680 OFFCURVE",
"417 655 OFFCURVE",
"417 625 CURVE",
"417 595 OFFCURVE",
"442 570 OFFCURVE",
"472 570 CURVE"
);
},
{
closed = 1;
nodes = (
"426 0 OFFCURVE",
"526 25 OFFCURVE",
"526 55 CURVE",
"526 85 OFFCURVE",
"426 110 OFFCURVE",
"396 110 CURVE",
"366 110 OFFCURVE",
"341 85 OFFCURVE",
"341 55 CURVE",
"341 25 OFFCURVE",
"366 0 OFFCURVE",
"396 0 CURVE"
);
},
{
closed = 1;
nodes = (
"426 570 OFFCURVE",
"451 595 OFFCURVE",
"451 625 CURVE",
"451 655 OFFCURVE",
"426 680 OFFCURVE",
"396 680 CURVE",
"366 680 OFFCURVE",
"266 655 OFFCURVE",
"266 625 CURVE",
"266 595 OFFCURVE",
"366 570 OFFCURVE",
"396 570 CURVE"
);
},
{
closed = 1;
nodes = (
"503 0 OFFCURVE",
"526 24 OFFCURVE",
"526 55 CURVE SMOOTH",
"526 86 OFFCURVE",
"503 110 OFFCURVE",
"472 110 CURVE SMOOTH",
"441 110 OFFCURVE",
"341 86 OFFCURVE",
"341 55 CURVE SMOOTH",
"341 24 OFFCURVE",
"441 0 OFFCURVE",
"472 0 CURVE SMOOTH"
);
},
{
closed = 1;
nodes = (
"501 410 OFFCURVE",
"521 512 OFFCURVE",
"521 540 CURVE SMOOTH",
"521 568 OFFCURVE",
"500 590 OFFCURVE",
"472 590 CURVE SMOOTH",
"444 590 OFFCURVE",
"421 568 OFFCURVE",
"421 540 CURVE SMOOTH",
"421 512 OFFCURVE",
"445 410 OFFCURVE",
"473 410 CURVE SMOOTH"
);
},
{
closed = 1;
nodes = (
"500 250 OFFCURVE",
"521 272 OFFCURVE",
"521 300 CURVE",
"521 328 OFFCURVE",
"500 430 OFFCURVE",
"472 430 CURVE SMOOTH",
"444 430 OFFCURVE",
"421 328 OFFCURVE",
"421 300 CURVE SMOOTH",
"421 272 OFFCURVE",
"444 250 OFFCURVE",
"472 250 CURVE SMOOTH"
);
},
{
closed = 1;
nodes = (
"500 90 OFFCURVE",
"521 192 OFFCURVE",
"521 220 CURVE SMOOTH",
"521 248 OFFCURVE",
"500 270 OFFCURVE",
"472 270 CURVE SMOOTH",
"444 270 OFFCURVE",
"421 248 OFFCURVE",
"421 220 CURVE SMOOTH",
"421 192 OFFCURVE",
"444 90 OFFCURVE",
"472 90 CURVE SMOOTH"
);
},
{
closed = 1;
nodes = (
"498 90 OFFCURVE",
"521 112 OFFCURVE",
"521 140 CURVE SMOOTH",
"521 168 OFFCURVE",
"500 270 OFFCURVE",
"472 270 CURVE SMOOTH",
"444 270 OFFCURVE",
"421 168 OFFCURVE",
"421 140 CURVE SMOOTH",
"421 112 OFFCURVE",
"444 90 OFFCURVE",
"472 90 CURVE SMOOTH"
);
},
{
closed = 1;
nodes = (
"500 250 OFFCURVE",
"521 352 OFFCURVE",
"521 380 CURVE SMOOTH",
"521 408 OFFCURVE",
"500 430 OFFCURVE",
"472 430 CURVE SMOOTH",
"444 430 OFFCURVE",
"421 408 OFFCURVE",
"421 380 CURVE SMOOTH",
"421 352 OFFCURVE",
"444 250 OFFCURVE",
"472 250 CURVE SMOOTH"
);
},
{
closed = 1;
nodes = (
"501 410 OFFCURVE",
"522 432 OFFCURVE",
"522 460 CURVE SMOOTH",
"522 488 OFFCURVE",
"500 590 OFFCURVE",
"472 590 CURVE SMOOTH",
"444 590 OFFCURVE",
"422 488 OFFCURVE",
"422 460 CURVE",
"422 432 OFFCURVE",
"445 410 OFFCURVE",
"473 410 CURVE SMOOTH"
);
},
{
closed = 1;
nodes = (
"351 0 OFFCURVE",
"376 25 OFFCURVE",
"376 55 CURVE",
"376 85 OFFCURVE",
"351 110 OFFCURVE",
"321 110 CURVE",
"291 110 OFFCURVE",
"191 85 OFFCURVE",
"191 55 CURVE",
"191 25 OFFCURVE",
"291 0 OFFCURVE",
"321 0 CURVE"
);
},
{
closed = 1;
nodes = (
"351 570 OFFCURVE",
"451 595 OFFCURVE",
"451 625 CURVE",
"451 655 OFFCURVE",
"351 680 OFFCURVE",
"321 680 CURVE",
"291 680 OFFCURVE",
"266 655 OFFCURVE",
"266 625 CURVE",
"266 595 OFFCURVE",
"291 570 OFFCURVE",
"321 570 CURVE"
);
},
{
closed = 1;
nodes = (
"276 0 OFFCURVE",
"376 25 OFFCURVE",
"376 55 CURVE",
"376 85 OFFCURVE",
"276 110 OFFCURVE",
"246 110 CURVE",
"216 110 OFFCURVE",
"191 85 OFFCURVE",
"191 55 CURVE",
"191 25 OFFCURVE",
"216 0 OFFCURVE",
"246 0 CURVE"
);
},
{
closed = 1;
nodes = (
"226 90 OFFCURVE",
"249 112 OFFCURVE",
"249 140 CURVE SMOOTH",
"249 168 OFFCURVE",
"228 270 OFFCURVE",
"200 270 CURVE SMOOTH",
"172 270 OFFCURVE",
"149 168 OFFCURVE",
"149 140 CURVE SMOOTH",
"149 112 OFFCURVE",
"172 90 OFFCURVE",
"200 90 CURVE SMOOTH"
);
},
{
closed = 1;
nodes = (
"226 90 OFFCURVE",
"249 192 OFFCURVE",
"249 220 CURVE SMOOTH",
"249 248 OFFCURVE",
"228 270 OFFCURVE",
"200 270 CURVE SMOOTH",
"172 270 OFFCURVE",
"149 248 OFFCURVE",
"149 220 CURVE SMOOTH",
"149 192 OFFCURVE",
"172 90 OFFCURVE",
"200 90 CURVE SMOOTH"
);
}
);
width = 700;
}
);
unicode = 004A;
},
{
glyphname = K;
lastChange = "2020-12-30 13:32:57 +0000";
layers = (
{
guideLines = (
{
position = "{139, 170}";
},
{
position = "{139, 250}";
},
{
position = "{139, 330}";
},
{
position = "{139, 410}";
},
{
position = "{139, 490}";
},
{
position = "{139, 570}";
},
{
angle = 90;
position = "{565, 55}";
},
{
position = "{139, 90}";
}
);
layerId = "C8365536-00F6-4CBD-B31D-2172D190A829";
paths = (
{
closed = 1;
nodes = (
"216 570 OFFCURVE",
"239 594 OFFCURVE",
"239 625 CURVE SMOOTH",
"239 656 OFFCURVE",
"216 680 OFFCURVE",
"185 680 CURVE SMOOTH",
"154 680 OFFCURVE",
"129 656 OFFCURVE",
"129 625 CURVE SMOOTH",
"129 594 OFFCURVE",
"154 570 OFFCURVE",
"185 570 CURVE SMOOTH"
);
},
{
closed = 1;
nodes = (
"216 0 OFFCURVE",
"239 24 OFFCURVE",
"239 55 CURVE SMOOTH",
"239 86 OFFCURVE",
"216 110 OFFCURVE",
"185 110 CURVE SMOOTH",
"154 110 OFFCURVE",
"129 86 OFFCURVE",
"129 55 CURVE SMOOTH",
"129 24 OFFCURVE",
"154 0 OFFCURVE",
"185 0 CURVE SMOOTH"
);
},
{
closed = 1;
nodes = (
"213 410 OFFCURVE",
"234 512 OFFCURVE",
"234 540 CURVE SMOOTH",
"234 568 OFFCURVE",
"213 590 OFFCURVE",
"185 590 CURVE SMOOTH",
"157 590 OFFCURVE",
"134 568 OFFCURVE",
"134 540 CURVE SMOOTH",
"134 512 OFFCURVE",
"157 410 OFFCURVE",
"185 410 CURVE SMOOTH"
);
},
{
closed = 1;
nodes = (
"213 250 OFFCURVE",
"234 272 OFFCURVE",
"234 300 CURVE SMOOTH",
"234 328 OFFCURVE",
"213 430 OFFCURVE",
"185 430 CURVE SMOOTH",
"157 430 OFFCURVE",
"134 328 OFFCURVE",
"134 300 CURVE SMOOTH",
"134 272 OFFCURVE",
"157 250 OFFCURVE",
"185 250 CURVE SMOOTH"
);
},
{
closed = 1;
nodes = (
"213 90 OFFCURVE",
"234 192 OFFCURVE",
"234 220 CURVE SMOOTH",
"234 248 OFFCURVE",
"213 270 OFFCURVE",
"185 270 CURVE SMOOTH",
"157 270 OFFCURVE",
"134 248 OFFCURVE",
"134 220 CURVE SMOOTH",
"134 192 OFFCURVE",
"157 90 OFFCURVE",
"185 90 CURVE SMOOTH"
);
},
{
closed = 1;
nodes = (
"211 90 OFFCURVE",
"234 112 OFFCURVE",
"234 140 CURVE SMOOTH",
"234 168 OFFCURVE",
"213 270 OFFCURVE",
"185 270 CURVE SMOOTH",
"157 270 OFFCURVE",
"134 168 OFFCURVE",
"134 140 CURVE SMOOTH",
"134 112 OFFCURVE",
"157 90 OFFCURVE",
"185 90 CURVE SMOOTH"
);
},
{
closed = 1;
nodes = (
"213 250 OFFCURVE",
"234 352 OFFCURVE",
"234 380 CURVE SMOOTH",
"234 408 OFFCURVE",
"213 430 OFFCURVE",
"185 430 CURVE SMOOTH",
"157 430 OFFCURVE",
"134 408 OFFCURVE",
"134 380 CURVE SMOOTH",
"134 352 OFFCURVE",
"157 250 OFFCURVE",
"185 250 CURVE SMOOTH"
);
},
{
closed = 1;
nodes = (
"213 410 OFFCURVE",
"234 432 OFFCURVE",
"234 460 CURVE SMOOTH",
"234 488 OFFCURVE",
"213 590 OFFCURVE",
"185 590 CURVE SMOOTH",
"157 590 OFFCURVE",
"134 488 OFFCURVE",
"134 460 CURVE SMOOTH",
"134 432 OFFCURVE",
"157 410 OFFCURVE",
"185 410 CURVE SMOOTH"
);
},
{
closed = 1;
nodes = (
"523 570 OFFCURVE",
"546 594 OFFCURVE",
"546 625 CURVE SMOOTH",
"546 656 OFFCURVE",
"523 680 OFFCURVE",
"492 680 CURVE SMOOTH",
"461 680 OFFCURVE",
"436 656 OFFCURVE",
"436 625 CURVE SMOOTH",
"436 594 OFFCURVE",
"461 570 OFFCURVE",
"492 570 CURVE SMOOTH"
);
},
{
closed = 1;
nodes = (
"571 0 OFFCURVE",
"594 24 OFFCURVE",
"594 55 CURVE SMOOTH",
"594 86 OFFCURVE",
"571 110 OFFCURVE",
"540 110 CURVE SMOOTH",
"509 110 OFFCURVE",
"484 86 OFFCURVE",
"484 55 CURVE SMOOTH",
"484 24 OFFCURVE",
"509 0 OFFCURVE",
"540 0 CURVE SMOOTH"
);
},
{
closed = 1;
nodes = (
"257 158 OFFCURVE",
"326 235 OFFCURVE",
"340 260 CURVE SMOOTH",
"354 284 OFFCURVE",
"347 313 OFFCURVE",
"323 327 CURVE SMOOTH",
"299 341 OFFCURVE",
"268 334 OFFCURVE",
"254 310 CURVE SMOOTH",
"240 285 OFFCURVE",
"209 186 OFFCURVE",
"233 172 CURVE SMOOTH"
);
},
{
closed = 1;
nodes = (
"255 159 OFFCURVE",
"286 166 OFFCURVE",
"300 190 CURVE SMOOTH",
"314 215 OFFCURVE",
"347 313 OFFCURVE",
"323 327 CURVE SMOOTH",
"299 341 OFFCURVE",
"228 265 OFFCURVE",
"214 240 CURVE SMOOTH",
"200 216 OFFCURVE",
"209 186 OFFCURVE",
"233 172 CURVE SMOOTH"
);
},
{
closed = 1;
nodes = (
"340 298 OFFCURVE",
"409 375 OFFCURVE",
"423 400 CURVE SMOOTH",
"437 424 OFFCURVE",
"430 453 OFFCURVE",
"406 467 CURVE SMOOTH",
"382 481 OFFCURVE",
"351 474 OFFCURVE",
"337 450 CURVE SMOOTH",
"323 425 OFFCURVE",
"292 326 OFFCURVE",
"316 312 CURVE SMOOTH"
);
},
{
closed = 1;
nodes = (
"338 299 OFFCURVE",
"369 306 OFFCURVE",
"383 330 CURVE SMOOTH",
"397 355 OFFCURVE",
"430 453 OFFCURVE",
"406 467 CURVE SMOOTH",
"382 481 OFFCURVE",
"311 405 OFFCURVE",
"297 380 CURVE SMOOTH",
"283 356 OFFCURVE",
"292 326 OFFCURVE",
"316 312 CURVE SMOOTH"
);
},
{
closed = 1;
nodes = (
"420 437 OFFCURVE",
"489 514 OFFCURVE",
"503 539 CURVE SMOOTH",
"517 563 OFFCURVE",
"510 592 OFFCURVE",
"486 606 CURVE SMOOTH",
"462 620 OFFCURVE",
"431 613 OFFCURVE",
"417 589 CURVE SMOOTH",
"403 564 OFFCURVE",
"372 465 OFFCURVE",
"396 451 CURVE SMOOTH"
);
},
{
closed = 1;
nodes = (
"418 438 OFFCURVE",
"449 445 OFFCURVE",
"463 469 CURVE SMOOTH",
"477 494 OFFCURVE",
"510 592 OFFCURVE",
"486 606 CURVE SMOOTH",
"462 620 OFFCURVE",
"391 544 OFFCURVE",
"377 519 CURVE SMOOTH",
"363 495 OFFCURVE",
"372 465 OFFCURVE",
"396 451 CURVE SMOOTH"
);
},
{
closed = 1;
nodes = (
"352 346 OFFCURVE",
"383 247 OFFCURVE",
"397 222 CURVE SMOOTH",
"411 198 OFFCURVE",
"442 191 OFFCURVE",
"466 205 CURVE SMOOTH",
"490 219 OFFCURVE",
"497 248 OFFCURVE",
"483 272 CURVE SMOOTH",
"469 297 OFFCURVE",
"400 374 OFFCURVE",
"376 360 CURVE SMOOTH"
);
},
{
closed = 1;
nodes = (
"352 346 OFFCURVE",
"343 316 OFFCURVE",
"357 292 CURVE SMOOTH",
"371 267 OFFCURVE",
"442 191 OFFCURVE",
"466 205 CURVE SMOOTH",
"490 219 OFFCURVE",
"457 317 OFFCURVE",
"443 342 CURVE SMOOTH",
"429 366 OFFCURVE",
"398 373 OFFCURVE",
"376 360 CURVE SMOOTH"
);
},
{
closed = 1;
nodes = (
"425 213 OFFCURVE",
"456 114 OFFCURVE",
"470 89 CURVE SMOOTH",
"484 65 OFFCURVE",
"515 58 OFFCURVE",
"539 72 CURVE SMOOTH",
"563 86 OFFCURVE",
"570 115 OFFCURVE",
"556 139 CURVE SMOOTH",
"542 164 OFFCURVE",
"473 241 OFFCURVE",
"449 227 CURVE SMOOTH"
);
},
{
closed = 1;
nodes = (
"425 213 OFFCURVE",
"416 183 OFFCURVE",
"430 159 CURVE SMOOTH",
"444 134 OFFCURVE",
"515 58 OFFCURVE",
"539 72 CURVE SMOOTH",
"563 86 OFFCURVE",
"530 184 OFFCURVE",
"516 209 CURVE SMOOTH",
"502 233 OFFCURVE",
"471 240 OFFCURVE",
"449 227 CURVE SMOOTH"
);
}
);
width = 700;
}
);
unicode = 004B;
},
{
glyphname = L;
lastChange = "2020-12-30 13:36:28 +0000";
layers = (
{
layerId = "C8365536-00F6-4CBD-B31D-2172D190A829";
paths = (
{
closed = 1;
nodes = (
"197 570 OFFCURVE",
"295 594 OFFCURVE",
"295 625 CURVE SMOOTH",
"295 656 OFFCURVE",
"197 680 OFFCURVE",
"166 680 CURVE SMOOTH",
"135 680 OFFCURVE",
"110 656 OFFCURVE",
"110 625 CURVE SMOOTH",
"110 594 OFFCURVE",
"135 570 OFFCURVE",
"166 570 CURVE SMOOTH"
);
},
{
closed = 1;
nodes = (
"497 0 OFFCURVE",
"595 24 OFFCURVE",
"595 55 CURVE SMOOTH",
"595 86 OFFCURVE",
"497 110 OFFCURVE",
"466 110 CURVE SMOOTH",
"435 110 OFFCURVE",
"410 86 OFFCURVE",
"410 55 CURVE SMOOTH",
"410 24 OFFCURVE",
"435 0 OFFCURVE",
"466 0 CURVE SMOOTH"
);
},
{
closed = 1;
nodes = (
"572 0 OFFCURVE",
"595 24 OFFCURVE",
"595 55 CURVE SMOOTH",
"595 86 OFFCURVE",
"572 110 OFFCURVE",
"541 110 CURVE SMOOTH",
"510 110 OFFCURVE",
"410 86 OFFCURVE",
"410 55 CURVE SMOOTH",
"410 24 OFFCURVE",
"510 0 OFFCURVE",
"541 0 CURVE SMOOTH"
);
},
{
closed = 1;
nodes = (
"197 0 OFFCURVE",
"295 24 OFFCURVE",
"295 55 CURVE SMOOTH",
"295 86 OFFCURVE",
"197 110 OFFCURVE",
"166 110 CURVE SMOOTH",
"135 110 OFFCURVE",
"110 86 OFFCURVE",
"110 55 CURVE SMOOTH",
"110 24 OFFCURVE",
"135 0 OFFCURVE",
"166 0 CURVE SMOOTH"
);
},
{
closed = 1;
nodes = (
"272 0 OFFCURVE",
"295 24 OFFCURVE",
"295 55 CURVE SMOOTH",
"295 86 OFFCURVE",
"272 110 OFFCURVE",
"241 110 CURVE SMOOTH",
"210 110 OFFCURVE",
"110 86 OFFCURVE",
"110 55 CURVE",
"110 24 OFFCURVE",
"210 0 OFFCURVE",
"241 0 CURVE SMOOTH"
);
},
{
closed = 1;
nodes = (
"347 0 OFFCURVE",
"445 24 OFFCURVE",
"445 55 CURVE SMOOTH",
"445 86 OFFCURVE",
"347 110 OFFCURVE",
"316 110 CURVE SMOOTH",
"285 110 OFFCURVE",
"260 86 OFFCURVE",
"260 55 CURVE SMOOTH",
"260 24 OFFCURVE",
"285 0 OFFCURVE",
"316 0 CURVE SMOOTH"
);
},
{
closed = 1;
nodes = (
"422 0 OFFCURVE",
"445 24 OFFCURVE",
"445 55 CURVE SMOOTH",
"445 86 OFFCURVE",
"422 110 OFFCURVE",
"391 110 CURVE SMOOTH",
"360 110 OFFCURVE",
"260 86 OFFCURVE",
"260 55 CURVE SMOOTH",
"260 24 OFFCURVE",
"360 0 OFFCURVE",
"391 0 CURVE SMOOTH"
);
},
{
closed = 1;
nodes = (
"194 490 OFFCURVE",
"215 512 OFFCURVE",
"215 540 CURVE SMOOTH",
"215 568 OFFCURVE",
"194 590 OFFCURVE",
"166 590 CURVE SMOOTH",
"138 590 OFFCURVE",
"115 568 OFFCURVE",
"115 540 CURVE SMOOTH",
"115 512 OFFCURVE",
"138 490 OFFCURVE",
"166 490 CURVE SMOOTH"
);
},
{
closed = 1;
nodes = (
"194 250 OFFCURVE",
"215 272 OFFCURVE",
"215 300 CURVE",
"215 328 OFFCURVE",
"194 350 OFFCURVE",
"166 350 CURVE SMOOTH",
"138 350 OFFCURVE",
"115 328 OFFCURVE",
"115 300 CURVE SMOOTH",
"115 272 OFFCURVE",
"138 250 OFFCURVE",
"166 250 CURVE SMOOTH"
);
},
{
closed = 1;
nodes = (
"272 570 OFFCURVE",
"295 594 OFFCURVE",
"295 625 CURVE SMOOTH",
"295 656 OFFCURVE",
"272 680 OFFCURVE",
"241 680 CURVE SMOOTH",
"210 680 OFFCURVE",
"110 656 OFFCURVE",
"110 625 CURVE",
"110 594 OFFCURVE",
"210 570 OFFCURVE",
"241 570 CURVE SMOOTH"
);
},
{
closed = 1;
nodes = (
"569 0 OFFCURVE",
"590 112 OFFCURVE",
"590 140 CURVE SMOOTH",
"590 168 OFFCURVE",
"569 190 OFFCURVE",
"541 190 CURVE SMOOTH",
"513 190 OFFCURVE",
"490 168 OFFCURVE",
"490 140 CURVE SMOOTH",
"490 112 OFFCURVE",
"513 0 OFFCURVE",
"541 0 CURVE SMOOTH"
);
},
{
closed = 1;
nodes = (
"166 85 OFFCURVE",
"220 174 OFFCURVE",
"230 200 CURVE SMOOTH",
"240 227 OFFCURVE",
"227 255 OFFCURVE",
"201 264 CURVE SMOOTH",
"174 273 OFFCURVE",
"145 261 OFFCURVE",
"136 235 CURVE SMOOTH",
"127 208 OFFCURVE",
"113 105 OFFCURVE",
"139 95 CURVE SMOOTH"
);
},
{
closed = 1;
nodes = (
"164 85 OFFCURVE",
"193 99 OFFCURVE",
"202 125 CURVE SMOOTH",
"211 152 OFFCURVE",
"227 255 OFFCURVE",
"201 264 CURVE SMOOTH",
"174 273 OFFCURVE",
"118 186 OFFCURVE",
"108 159 CURVE SMOOTH",
"98 133 OFFCURVE",
"113 105 OFFCURVE",
"139 95 CURVE SMOOTH"
);
},
{
closed = 1;
nodes = (
"183 330 OFFCURVE",
"237 419 OFFCURVE",
"247 445 CURVE SMOOTH",
"257 472 OFFCURVE",
"244 500 OFFCURVE",
"218 509 CURVE SMOOTH",
"191 518 OFFCURVE",
"162 506 OFFCURVE",
"153 480 CURVE SMOOTH",
"144 453 OFFCURVE",
"130 350 OFFCURVE",
"156 340 CURVE SMOOTH"
);
},
{
closed = 1;
nodes = (
"181 330 OFFCURVE",
"210 344 OFFCURVE",
"219 370 CURVE SMOOTH",
"228 397 OFFCURVE",
"244 500 OFFCURVE",
"218 509 CURVE SMOOTH",
"191 518 OFFCURVE",
"135 431 OFFCURVE",
"125 404 CURVE SMOOTH",
"115 378 OFFCURVE",
"130 350 OFFCURVE",
"156 340 CURVE SMOOTH"
);
}
);
width = 700;
}
);
unicode = 004C;
},
{
color = 3;
glyphname = Lslash;
lastChange = "2023-06-12 14:05:46 +0000";
layers = (
{
components = (
{
name = L;
}
);
layerId = "C8365536-00F6-4CBD-B31D-2172D190A829";
paths = (
{
closed = 1;
nodes = (
"138 253 OFFCURVE",
"167 246 OFFCURVE",
"191 260 CURVE SMOOTH",
"216 274 OFFCURVE",
"224 303 OFFCURVE",
"210 327 CURVE SMOOTH",
"196 351 OFFCURVE",
"166 360 OFFCURVE",
"141 346 CURVE SMOOTH",
"117 332 OFFCURVE",
"110 301 OFFCURVE",
"124 277 CURVE SMOOTH"
);
},
{
closed = 1;
nodes = (
"67 215 OFFCURVE",
"98 206 OFFCURVE",
"122 220 CURVE SMOOTH",
"146 234 OFFCURVE",
"224 303 OFFCURVE",
"210 327 CURVE SMOOTH",
"196 351 OFFCURVE",
"96 320 OFFCURVE",
"72 306 CURVE SMOOTH",
"48 292 OFFCURVE",
"40 261 OFFCURVE",
"54 237 CURVE SMOOTH"
);
},
{
closed = 1;
nodes = (
"207 293 OFFCURVE",
"236 286 OFFCURVE",
"261 300 CURVE SMOOTH",
"285 314 OFFCURVE",
"293 343 OFFCURVE",
"279 367 CURVE SMOOTH",
"265 391 OFFCURVE",
"235 400 OFFCURVE",
"211 386 CURVE SMOOTH",
"186 372 OFFCURVE",
"179 341 OFFCURVE",
"193 317 CURVE SMOOTH"
);
},
{
closed = 1;
nodes = (
"335 431 OFFCURVE",
"304 440 OFFCURVE",
"280 426 CURVE",
"256 412 OFFCURVE",
"179 341 OFFCURVE",
"193 317 CURVE",
"207 293 OFFCURVE",
"306 326 OFFCURVE",
"330 340 CURVE SMOOTH",
"354 354 OFFCURVE",
"362 385 OFFCURVE",
"349 407 CURVE"
);
}
);
width = 700;
}
);
unicode = 0141;
},
{
glyphname = M;
lastChange = "2020-12-30 11:41:47 +0000";
layers = (
{
guideLines = (
{
position = "{413, 490}";
},
{
position = "{93, 430}";
}
);
layerId = "C8365536-00F6-4CBD-B31D-2172D190A829";
paths = (
{
closed = 1;
nodes = (
"230 570 OFFCURVE",
"255 595 OFFCURVE",
"255 625 CURVE",
"255 655 OFFCURVE",
"230 680 OFFCURVE",
"200 680 CURVE",
"170 680 OFFCURVE",
"71 655 OFFCURVE",
"71 625 CURVE",
"71 595 OFFCURVE",
"170 570 OFFCURVE",
"200 570 CURVE"
);
},
{
closed = 1;
nodes = (
"156 570 OFFCURVE",
"255 595 OFFCURVE",
"255 625 CURVE",
"255 655 OFFCURVE",
"156 680 OFFCURVE",
"126 680 CURVE",
"96 680 OFFCURVE",
"71 655 OFFCURVE",
"71 625 CURVE",
"71 595 OFFCURVE",
"96 570 OFFCURVE",
"126 570 CURVE"
);
},
{
closed = 1;
nodes = (
"157 0 OFFCURVE",
"255 24 OFFCURVE",
"255 55 CURVE SMOOTH",
"255 86 OFFCURVE",
"157 110 OFFCURVE",
"126 110 CURVE SMOOTH",
"95 110 OFFCURVE",
"70 86 OFFCURVE",
"70 55 CURVE SMOOTH",
"70 24 OFFCURVE",
"95 0 OFFCURVE",
"126 0 CURVE SMOOTH"
);
},
{
closed = 1;
nodes = (
"155 410 OFFCURVE",
"175 512 OFFCURVE",
"175 540 CURVE SMOOTH",
"175 568 OFFCURVE",
"154 590 OFFCURVE",
"126 590 CURVE SMOOTH",
"98 590 OFFCURVE",
"75 568 OFFCURVE",
"75 540 CURVE SMOOTH",
"75 512 OFFCURVE",
"99 410 OFFCURVE",
"127 410 CURVE SMOOTH"
);
},
{
closed = 1;
nodes = (
"154 250 OFFCURVE",
"175 272 OFFCURVE",
"175 300 CURVE",
"175 328 OFFCURVE",
"154 430 OFFCURVE",
"126 430 CURVE SMOOTH",
"98 430 OFFCURVE",
"75 328 OFFCURVE",
"75 300 CURVE SMOOTH",
"75 272 OFFCURVE",
"98 250 OFFCURVE",
"126 250 CURVE SMOOTH"
);
},
{
closed = 1;
nodes = (
"154 90 OFFCURVE",
"175 192 OFFCURVE",
"175 220 CURVE SMOOTH",
"175 248 OFFCURVE",
"154 270 OFFCURVE",
"126 270 CURVE SMOOTH",
"98 270 OFFCURVE",
"75 248 OFFCURVE",
"75 220 CURVE SMOOTH",
"75 192 OFFCURVE",
"98 90 OFFCURVE",
"126 90 CURVE SMOOTH"
);
},
{
closed = 1;
nodes = (
"152 90 OFFCURVE",
"175 112 OFFCURVE",
"175 140 CURVE SMOOTH",
"175 168 OFFCURVE",
"154 270 OFFCURVE",
"126 270 CURVE SMOOTH",
"98 270 OFFCURVE",
"75 168 OFFCURVE",
"75 140 CURVE SMOOTH",
"75 112 OFFCURVE",
"98 90 OFFCURVE",
"126 90 CURVE SMOOTH"
);
},
{
closed = 1;
nodes = (
"154 250 OFFCURVE",
"175 352 OFFCURVE",
"175 380 CURVE SMOOTH",
"175 408 OFFCURVE",
"154 430 OFFCURVE",
"126 430 CURVE SMOOTH",
"98 430 OFFCURVE",
"75 408 OFFCURVE",
"75 380 CURVE SMOOTH",
"75 352 OFFCURVE",
"98 250 OFFCURVE",
"126 250 CURVE SMOOTH"
);
},
{
closed = 1;
nodes = (
"155 410 OFFCURVE",
"176 432 OFFCURVE",
"176 460 CURVE SMOOTH",
"176 488 OFFCURVE",
"154 590 OFFCURVE",
"126 590 CURVE SMOOTH",
"98 590 OFFCURVE",
"76 488 OFFCURVE",
"76 460 CURVE",
"76 432 OFFCURVE",
"99 410 OFFCURVE",
"127 410 CURVE SMOOTH"
);
},
{
closed = 1;
nodes = (
"529 570 OFFCURVE",
"628 595 OFFCURVE",
"628 625 CURVE",
"628 655 OFFCURVE",
"529 680 OFFCURVE",
"499 680 CURVE",
"469 680 OFFCURVE",
"444 655 OFFCURVE",
"444 625 CURVE",
"444 595 OFFCURVE",
"469 570 OFFCURVE",
"499 570 CURVE"
);
},
{
closed = 1;
nodes = (
"603 570 OFFCURVE",
"628 595 OFFCURVE",
"628 625 CURVE",
"628 655 OFFCURVE",
"603 680 OFFCURVE",
"573 680 CURVE",
"543 680 OFFCURVE",
"444 655 OFFCURVE",
"444 625 CURVE",
"444 595 OFFCURVE",
"543 570 OFFCURVE",
"573 570 CURVE"
);
},
{
closed = 1;
nodes = (
"604 0 OFFCURVE",
"629 24 OFFCURVE",
"629 55 CURVE SMOOTH",
"629 86 OFFCURVE",
"604 110 OFFCURVE",
"573 110 CURVE SMOOTH",
"542 110 OFFCURVE",
"444 77 OFFCURVE",
"444 46 CURVE SMOOTH",
"444 15 OFFCURVE",
"542 0 OFFCURVE",
"573 0 CURVE SMOOTH"
);
},
{
closed = 1;
nodes = (
"600 410 OFFCURVE",
"624 512 OFFCURVE",
"624 540 CURVE SMOOTH",
"624 568 OFFCURVE",
"601 590 OFFCURVE",
"573 590 CURVE SMOOTH",
"545 590 OFFCURVE",
"524 568 OFFCURVE",
"524 540 CURVE SMOOTH",
"524 512 OFFCURVE",
"544 410 OFFCURVE",
"572 410 CURVE SMOOTH"
);
},
{
closed = 1;
nodes = (
"601 250 OFFCURVE",
"624 272 OFFCURVE",
"624 300 CURVE SMOOTH",
"624 328 OFFCURVE",
"601 430 OFFCURVE",
"573 430 CURVE SMOOTH",
"545 430 OFFCURVE",
"524 328 OFFCURVE",
"524 300 CURVE",
"524 272 OFFCURVE",
"545 250 OFFCURVE",
"573 250 CURVE SMOOTH"
);
},
{
closed = 1;
nodes = (
"601 90 OFFCURVE",
"624 192 OFFCURVE",
"624 220 CURVE SMOOTH",
"624 248 OFFCURVE",
"601 270 OFFCURVE",
"573 270 CURVE SMOOTH",
"545 270 OFFCURVE",
"524 248 OFFCURVE",
"524 220 CURVE SMOOTH",
"524 192 OFFCURVE",
"545 90 OFFCURVE",
"573 90 CURVE SMOOTH"
);
},
{
closed = 1;
nodes = (
"601 90 OFFCURVE",
"624 112 OFFCURVE",
"624 140 CURVE SMOOTH",
"624 168 OFFCURVE",
"601 270 OFFCURVE",
"573 270 CURVE SMOOTH",
"545 270 OFFCURVE",
"524 168 OFFCURVE",
"524 140 CURVE",
"524 112 OFFCURVE",
"547 90 OFFCURVE",
"573 90 CURVE SMOOTH"
);
},
{
closed = 1;
nodes = (
"601 250 OFFCURVE",
"624 352 OFFCURVE",
"624 380 CURVE SMOOTH",
"624 408 OFFCURVE",
"601 430 OFFCURVE",
"573 430 CURVE SMOOTH",
"545 430 OFFCURVE",
"524 408 OFFCURVE",
"524 380 CURVE SMOOTH",
"524 352 OFFCURVE",
"545 250 OFFCURVE",
"573 250 CURVE SMOOTH"
);
},
{
closed = 1;
nodes = (
"600 410 OFFCURVE",
"623 432 OFFCURVE",
"623 460 CURVE",
"623 488 OFFCURVE",
"601 581 OFFCURVE",
"573 581 CURVE SMOOTH",
"545 581 OFFCURVE",
"523 488 OFFCURVE",
"523 460 CURVE SMOOTH",
"523 432 OFFCURVE",
"544 410 OFFCURVE",
"572 410 CURVE SMOOTH"
);
},
{
closed = 1;
nodes = (
"232 0 OFFCURVE",
"255 24 OFFCURVE",
"255 55 CURVE SMOOTH",
"255 86 OFFCURVE",
"232 110 OFFCURVE",
"201 110 CURVE SMOOTH",
"170 110 OFFCURVE",
"70 86 OFFCURVE",
"70 55 CURVE SMOOTH",
"70 24 OFFCURVE",
"170 0 OFFCURVE",
"201 0 CURVE SMOOTH"
);
},
{
closed = 1;
nodes = (
"529 0 OFFCURVE",
"629 24 OFFCURVE",
"629 55 CURVE SMOOTH",
"629 86 OFFCURVE",
"529 110 OFFCURVE",
"498 110 CURVE SMOOTH",
"467 110 OFFCURVE",
"444 86 OFFCURVE",
"444 55 CURVE SMOOTH",
"444 24 OFFCURVE",
"467 0 OFFCURVE",
"498 0 CURVE SMOOTH"
);
},
{
closed = 1;
nodes = (
"322 430 OFFCURVE",
"305 533 OFFCURVE",
"297 559 CURVE SMOOTH",
"288 587 OFFCURVE",
"259 599 OFFCURVE",
"233 590 CURVE SMOOTH",
"207 581 OFFCURVE",
"192 552 OFFCURVE",
"202 526 CURVE SMOOTH",
"212 499 OFFCURVE",
"269 412 OFFCURVE",
"295 421 CURVE SMOOTH"
);
},
{
closed = 1;
nodes = (
"322 430 OFFCURVE",
"335 458 OFFCURVE",
"325 485 CURVE SMOOTH",
"315 511 OFFCURVE",
"259 599 OFFCURVE",
"233 590 CURVE SMOOTH",
"207 581 OFFCURVE",
"221 477 OFFCURVE",
"231 451 CURVE",
"240 425 OFFCURVE",
"269 412 OFFCURVE",
"295 421 CURVE SMOOTH"
);
},
{
closed = 1;
nodes = (
"423 412 OFFCURVE",
"480 499 OFFCURVE",
"490 526 CURVE SMOOTH",
"500 552 OFFCURVE",
"485 581 OFFCURVE",
"459 590 CURVE SMOOTH",
"433 599 OFFCURVE",
"404 587 OFFCURVE",
"395 559 CURVE SMOOTH",
"387 533 OFFCURVE",
"370 430 OFFCURVE",
"397 421 CURVE SMOOTH"
);
},
{
closed = 1;
nodes = (
"423 412 OFFCURVE",
"452 425 OFFCURVE",
"461 451 CURVE",
"471 477 OFFCURVE",
"485 581 OFFCURVE",
"459 590 CURVE SMOOTH",
"433 599 OFFCURVE",
"377 511 OFFCURVE",
"367 485 CURVE SMOOTH",
"357 458 OFFCURVE",
"370 430 OFFCURVE",
"397 421 CURVE SMOOTH"
);
},
{
closed = 1;
nodes = (
"413 341 OFFCURVE",
"438 366 OFFCURVE",
"438 396 CURVE",
"438 426 OFFCURVE",
"413 451 OFFCURVE",
"383 451 CURVE",
"353 451 OFFCURVE",
"254 426 OFFCURVE",
"254 396 CURVE",
"254 366 OFFCURVE",
"353 341 OFFCURVE",
"383 341 CURVE"
);
},
{
closed = 1;
nodes = (
"339 341 OFFCURVE",
"438 366 OFFCURVE",
"438 396 CURVE",
"438 426 OFFCURVE",
"339 451 OFFCURVE",
"309 451 CURVE",
"279 451 OFFCURVE",
"254 426 OFFCURVE",
"254 396 CURVE",
"254 366 OFFCURVE",
"279 341 OFFCURVE",
"309 341 CURVE"
);
}
);
width = 700;
}
);
unicode = 004D;
},
{
glyphname = N;
lastChange = "2020-12-30 11:51:33 +0000";
layers = (
{
guideLines = (
{
position = "{550, 250}";
},
{
position = "{550, 90}";
}
);
layerId = "C8365536-00F6-4CBD-B31D-2172D190A829";
paths = (
{
closed = 1;
nodes = (
"255 570 OFFCURVE",
"280 595 OFFCURVE",
"280 625 CURVE",
"280 655 OFFCURVE",
"255 680 OFFCURVE",
"225 680 CURVE",
"195 680 OFFCURVE",
"96 655 OFFCURVE",
"96 625 CURVE",
"96 595 OFFCURVE",
"195 570 OFFCURVE",
"225 570 CURVE"
);
},
{
closed = 1;
nodes = (
"181 570 OFFCURVE",
"280 595 OFFCURVE",
"280 625 CURVE",
"280 655 OFFCURVE",
"181 680 OFFCURVE",
"151 680 CURVE",
"121 680 OFFCURVE",
"96 655 OFFCURVE",
"96 625 CURVE",
"96 595 OFFCURVE",
"121 570 OFFCURVE",
"151 570 CURVE"
);
},
{
closed = 1;
nodes = (
"182 0 OFFCURVE",
"280 24 OFFCURVE",
"280 55 CURVE SMOOTH",
"280 86 OFFCURVE",
"182 110 OFFCURVE",
"151 110 CURVE SMOOTH",
"120 110 OFFCURVE",
"95 86 OFFCURVE",
"95 55 CURVE SMOOTH",
"95 24 OFFCURVE",
"120 0 OFFCURVE",
"151 0 CURVE SMOOTH"
);
},
{
closed = 1;
nodes = (
"180 410 OFFCURVE",
"200 512 OFFCURVE",
"200 540 CURVE SMOOTH",
"200 568 OFFCURVE",
"179 590 OFFCURVE",
"151 590 CURVE SMOOTH",
"123 590 OFFCURVE",
"100 568 OFFCURVE",
"100 540 CURVE SMOOTH",
"100 512 OFFCURVE",
"124 410 OFFCURVE",
"152 410 CURVE SMOOTH"
);
},
{
closed = 1;
nodes = (
"179 250 OFFCURVE",
"200 272 OFFCURVE",
"200 300 CURVE",
"200 328 OFFCURVE",
"179 430 OFFCURVE",
"151 430 CURVE SMOOTH",
"123 430 OFFCURVE",
"100 328 OFFCURVE",
"100 300 CURVE SMOOTH",
"100 272 OFFCURVE",
"123 250 OFFCURVE",
"151 250 CURVE SMOOTH"
);
},
{
closed = 1;
nodes = (
"179 90 OFFCURVE",
"200 192 OFFCURVE",
"200 220 CURVE SMOOTH",
"200 248 OFFCURVE",
"179 270 OFFCURVE",
"151 270 CURVE SMOOTH",
"123 270 OFFCURVE",
"100 248 OFFCURVE",
"100 220 CURVE SMOOTH",
"100 192 OFFCURVE",
"123 90 OFFCURVE",
"151 90 CURVE SMOOTH"
);
},
{
closed = 1;
nodes = (
"177 90 OFFCURVE",
"200 112 OFFCURVE",
"200 140 CURVE SMOOTH",
"200 168 OFFCURVE",
"179 270 OFFCURVE",
"151 270 CURVE SMOOTH",
"123 270 OFFCURVE",
"100 168 OFFCURVE",
"100 140 CURVE SMOOTH",
"100 112 OFFCURVE",
"123 90 OFFCURVE",
"151 90 CURVE SMOOTH"
);
},
{
closed = 1;
nodes = (
"179 250 OFFCURVE",
"200 352 OFFCURVE",
"200 380 CURVE SMOOTH",
"200 408 OFFCURVE",
"179 430 OFFCURVE",
"151 430 CURVE SMOOTH",
"123 430 OFFCURVE",
"100 408 OFFCURVE",
"100 380 CURVE SMOOTH",
"100 352 OFFCURVE",
"123 250 OFFCURVE",
"151 250 CURVE SMOOTH"
);
},
{
closed = 1;
nodes = (
"180 410 OFFCURVE",
"201 432 OFFCURVE",
"201 460 CURVE SMOOTH",
"201 488 OFFCURVE",
"179 590 OFFCURVE",
"151 590 CURVE SMOOTH",
"123 590 OFFCURVE",
"101 488 OFFCURVE",
"101 460 CURVE",
"101 432 OFFCURVE",
"124 410 OFFCURVE",
"152 410 CURVE SMOOTH"
);
},
{
closed = 1;
nodes = (
"580 570 OFFCURVE",
"605 595 OFFCURVE",
"605 625 CURVE",
"605 655 OFFCURVE",
"580 680 OFFCURVE",
"550 680 CURVE",
"520 680 OFFCURVE",
"420 655 OFFCURVE",
"420 625 CURVE",
"420 595 OFFCURVE",
"520 570 OFFCURVE",
"550 570 CURVE"
);
},
{
closed = 1;
nodes = (
"581 0 OFFCURVE",
"606 24 OFFCURVE",
"606 55 CURVE SMOOTH",
"606 86 OFFCURVE",
"581 110 OFFCURVE",
"550 110 CURVE SMOOTH",
"519 110 OFFCURVE",
"421 86 OFFCURVE",
"421 55 CURVE SMOOTH",
"421 24 OFFCURVE",
"519 0 OFFCURVE",
"550 0 CURVE SMOOTH"
);
},
{
closed = 1;
nodes = (
"577 410 OFFCURVE",
"601 512 OFFCURVE",
"601 540 CURVE SMOOTH",
"601 568 OFFCURVE",
"578 590 OFFCURVE",
"550 590 CURVE SMOOTH",
"522 590 OFFCURVE",
"501 568 OFFCURVE",
"501 540 CURVE SMOOTH",
"501 512 OFFCURVE",
"521 410 OFFCURVE",
"549 410 CURVE SMOOTH"
);
},
{
closed = 1;
nodes = (
"578 250 OFFCURVE",
"601 272 OFFCURVE",
"601 300 CURVE SMOOTH",
"601 328 OFFCURVE",
"578 430 OFFCURVE",
"550 430 CURVE SMOOTH",
"522 430 OFFCURVE",
"501 328 OFFCURVE",
"501 300 CURVE",
"501 272 OFFCURVE",
"522 250 OFFCURVE",
"550 250 CURVE SMOOTH"
);
},
{
closed = 1;
nodes = (
"578 90 OFFCURVE",
"601 192 OFFCURVE",
"601 220 CURVE SMOOTH",
"601 248 OFFCURVE",
"578 270 OFFCURVE",
"550 270 CURVE SMOOTH",
"522 270 OFFCURVE",
"501 248 OFFCURVE",
"501 220 CURVE SMOOTH",
"501 192 OFFCURVE",
"522 90 OFFCURVE",
"550 90 CURVE SMOOTH"
);
},
{
closed = 1;
nodes = (
"578 90 OFFCURVE",
"601 112 OFFCURVE",
"601 140 CURVE SMOOTH",
"601 168 OFFCURVE",
"578 270 OFFCURVE",
"550 270 CURVE SMOOTH",
"522 270 OFFCURVE",
"501 168 OFFCURVE",
"501 140 CURVE",
"501 112 OFFCURVE",
"523 90 OFFCURVE",
"550 90 CURVE SMOOTH"
);
},
{
closed = 1;
nodes = (
"578 250 OFFCURVE",
"601 352 OFFCURVE",
"601 380 CURVE SMOOTH",
"601 408 OFFCURVE",
"578 430 OFFCURVE",
"550 430 CURVE SMOOTH",
"522 430 OFFCURVE",
"501 408 OFFCURVE",
"501 380 CURVE SMOOTH",
"501 352 OFFCURVE",
"522 250 OFFCURVE",
"550 250 CURVE SMOOTH"
);
},
{
closed = 1;
nodes = (
"577 410 OFFCURVE",
"600 432 OFFCURVE",
"600 460 CURVE",
"600 488 OFFCURVE",
"578 590 OFFCURVE",
"550 590 CURVE SMOOTH",
"522 590 OFFCURVE",
"500 488 OFFCURVE",
"500 460 CURVE SMOOTH",
"500 432 OFFCURVE",
"521 410 OFFCURVE",
"549 410 CURVE SMOOTH"
);
},
{
closed = 1;
nodes = (
"506 0 OFFCURVE",
"606 24 OFFCURVE",
"606 55 CURVE SMOOTH",
"606 86 OFFCURVE",
"506 110 OFFCURVE",
"475 110 CURVE SMOOTH",
"444 110 OFFCURVE",
"421 86 OFFCURVE",
"421 55 CURVE SMOOTH",
"421 24 OFFCURVE",
"444 0 OFFCURVE",
"475 0 CURVE SMOOTH"
);
},
{
closed = 1;
nodes = (
"505 570 OFFCURVE",
"605 595 OFFCURVE",
"605 625 CURVE",
"605 655 OFFCURVE",
"505 680 OFFCURVE",
"475 680 CURVE",
"445 680 OFFCURVE",
"420 655 OFFCURVE",
"420 625 CURVE",
"420 595 OFFCURVE",
"445 570 OFFCURVE",
"475 570 CURVE"
);
},
{
closed = 1;
nodes = (
"255 0 OFFCURVE",
"280 24 OFFCURVE",
"280 55 CURVE",
"280 86 OFFCURVE",
"255 110 OFFCURVE",
"225 110 CURVE",
"195 110 OFFCURVE",
"95 86 OFFCURVE",
"95 55 CURVE",
"95 24 OFFCURVE",
"195 0 OFFCURVE",
"225 0 CURVE"
);
},
{
closed = 1;
nodes = (
"356 436 OFFCURVE",
"322 535 OFFCURVE",
"308 559 CURVE SMOOTH",
"294 582 OFFCURVE",
"262 589 OFFCURVE",
"238 575 CURVE SMOOTH",
"214 561 OFFCURVE",
"209 530 OFFCURVE",
"223 506 CURVE SMOOTH",
"237 481 OFFCURVE",
"309 406 OFFCURVE",
"333 421 CURVE SMOOTH"
);
},
{
closed = 1;
nodes = (
"356 436 OFFCURVE",
"364 467 OFFCURVE",
"350 490 CURVE",
"335 514 OFFCURVE",
"262 589 OFFCURVE",
"238 575 CURVE SMOOTH",
"214 561 OFFCURVE",
"250 461 OFFCURVE",
"264 437 CURVE SMOOTH",
"278 414 OFFCURVE",
"309 406 OFFCURVE",
"333 421 CURVE SMOOTH"
);
},
{
closed = 1;
nodes = (
"404 266 OFFCURVE",
"391 370 OFFCURVE",
"382 396 CURVE SMOOTH",
"373 422 OFFCURVE",
"343 435 OFFCURVE",
"317 426 CURVE SMOOTH",
"291 417 OFFCURVE",
"279 388 OFFCURVE",
"288 362 CURVE SMOOTH",
"297 335 OFFCURVE",
"351 246 OFFCURVE",
"378 256 CURVE SMOOTH"
);
},
{
closed = 1;
nodes = (
"404 266 OFFCURVE",
"418 294 OFFCURVE",
"409 320 CURVE",
"399 347 OFFCURVE",
"343 435 OFFCURVE",
"317 426 CURVE SMOOTH",
"291 417 OFFCURVE",
"305 312 OFFCURVE",
"314 286 CURVE SMOOTH",
"323 260 OFFCURVE",
"351 246 OFFCURVE",
"378 256 CURVE SMOOTH"
);
},
{
closed = 1;
nodes = (
"471 105 OFFCURVE",
"458 209 OFFCURVE",
"449 235 CURVE SMOOTH",
"440 261 OFFCURVE",
"410 274 OFFCURVE",
"384 265 CURVE SMOOTH",
"358 256 OFFCURVE",
"346 227 OFFCURVE",
"355 201 CURVE SMOOTH",
"364 174 OFFCURVE",
"418 85 OFFCURVE",
"445 95 CURVE SMOOTH"
);
},
{
closed = 1;
nodes = (
"471 105 OFFCURVE",
"485 133 OFFCURVE",
"476 159 CURVE",
"466 186 OFFCURVE",
"410 274 OFFCURVE",
"384 265 CURVE SMOOTH",
"358 256 OFFCURVE",
"372 151 OFFCURVE",
"381 125 CURVE SMOOTH",
"390 99 OFFCURVE",
"418 85 OFFCURVE",
"445 95 CURVE SMOOTH"
);
}
);
width = 700;
}
);
unicode = 004E;
},
{
glyphname = O;
lastChange = "2020-12-30 10:09:18 +0000";
layers = (
{
layerId = "C8365536-00F6-4CBD-B31D-2172D190A829";
paths = (
{
closed = 1;
nodes = (
"345 570 OFFCURVE",
"445 595 OFFCURVE",
"445 625 CURVE",
"445 655 OFFCURVE",
"345 680 OFFCURVE",
"315 680 CURVE",
"285 680 OFFCURVE",
"260 655 OFFCURVE",
"260 625 CURVE",
"260 595 OFFCURVE",
"285 570 OFFCURVE",
"315 570 CURVE"
);
},
{
closed = 1;
nodes = (
"160 207 OFFCURVE",
"182 309 OFFCURVE",
"182 337 CURVE",
"182 365 OFFCURVE",
"160 387 OFFCURVE",
"132 387 CURVE",
"104 387 OFFCURVE",
"82 365 OFFCURVE",
"82 337 CURVE",
"82 309 OFFCURVE",
"104 207 OFFCURVE",
"132 207 CURVE"
);
},
{
closed = 1;
nodes = (
"160 207 OFFCURVE",
"182 229 OFFCURVE",
"182 257 CURVE",
"182 285 OFFCURVE",
"160 387 OFFCURVE",
"132 387 CURVE",
"104 387 OFFCURVE",
"82 285 OFFCURVE",
"82 257 CURVE",
"82 229 OFFCURVE",
"104 207 OFFCURVE",
"132 207 CURVE"
);
},
{
closed = 1;
nodes = (
"160 367 OFFCURVE",
"182 389 OFFCURVE",
"182 417 CURVE",
"182 445 OFFCURVE",
"160 547 OFFCURVE",
"132 547 CURVE",
"104 547 OFFCURVE",
"82 445 OFFCURVE",
"82 417 CURVE",
"82 389 OFFCURVE",
"104 367 OFFCURVE",
"132 367 CURVE"
);
},
{
closed = 1;
nodes = (
"286 110 OFFCURVE",
"261 85 OFFCURVE",
"261 55 CURVE",
"261 25 OFFCURVE",
"286 0 OFFCURVE",
"316 0 CURVE",
"346 0 OFFCURVE",
"446 25 OFFCURVE",
"446 55 CURVE",
"446 85 OFFCURVE",
"346 110 OFFCURVE",
"316 110 CURVE"
);
},
{
closed = 1;
nodes = (
"104 547 OFFCURVE",
"82 525 OFFCURVE",
"82 497 CURVE",
"82 469 OFFCURVE",
"104 367 OFFCURVE",
"132 367 CURVE",
"160 367 OFFCURVE",
"182 469 OFFCURVE",
"182 497 CURVE",
"182 525 OFFCURVE",
"160 547 OFFCURVE",
"132 547 CURVE"
);
},
{
closed = 1;
nodes = (
"160 127 OFFCURVE",
"182 149 OFFCURVE",
"182 177 CURVE",
"182 205 OFFCURVE",
"160 227 OFFCURVE",
"132 227 CURVE",
"104 227 OFFCURVE",
"82 205 OFFCURVE",
"82 177 CURVE",
"82 149 OFFCURVE",
"104 127 OFFCURVE",
"132 127 CURVE"
);
},
{
closed = 1;
nodes = (
"420 570 OFFCURVE",
"445 595 OFFCURVE",
"445 625 CURVE",
"445 655 OFFCURVE",
"420 680 OFFCURVE",
"390 680 CURVE",
"360 680 OFFCURVE",
"260 655 OFFCURVE",
"260 625 CURVE",
"260 595 OFFCURVE",
"360 570 OFFCURVE",
"390 570 CURVE"
);
},
{
closed = 1;
nodes = (
"361 110 OFFCURVE",
"261 85 OFFCURVE",
"261 55 CURVE",
"261 25 OFFCURVE",
"361 0 OFFCURVE",
"391 0 CURVE",
"421 0 OFFCURVE",
"446 25 OFFCURVE",
"446 55 CURVE",
"446 85 OFFCURVE",
"421 110 OFFCURVE",
"391 110 CURVE"
);
},
{
closed = 1;
nodes = (
"339 123 OFFCURVE",
"275 206 OFFCURVE",
"255 224 CURVE SMOOTH",
"234 243 OFFCURVE",
"201 239 OFFCURVE",
"183 218 CURVE SMOOTH",
"165 197 OFFCURVE",
"169 166 OFFCURVE",
"190 148 CURVE SMOOTH",
"212 130 OFFCURVE",
"303 79 OFFCURVE",
"321 101 CURVE SMOOTH"
);
},
{
closed = 1;
nodes = (
"339 123 OFFCURVE",
"337 154 OFFCURVE",
"316 172 CURVE",
"294 190 OFFCURVE",
"201 239 OFFCURVE",
"183 218 CURVE SMOOTH",
"165 197 OFFCURVE",
"230 114 OFFCURVE",
"251 95 CURVE SMOOTH",
"271 77 OFFCURVE",
"303 79 OFFCURVE",
"321 101 CURVE SMOOTH"
);
},
{
closed = 1;
nodes = (
"261 633 OFFCURVE",
"170 582 OFFCURVE",
"148 564 CURVE SMOOTH",
"127 546 OFFCURVE",
"123 515 OFFCURVE",
"141 494 CURVE SMOOTH",
"159 473 OFFCURVE",
"192 469 OFFCURVE",
"213 488 CURVE SMOOTH",
"233 506 OFFCURVE",
"297 589 OFFCURVE",
"279 611 CURVE SMOOTH"
);
},
{
closed = 1;
nodes = (
"261 633 OFFCURVE",
"229 635 OFFCURVE",
"209 617 CURVE SMOOTH",
"188 598 OFFCURVE",
"123 515 OFFCURVE",
"141 494 CURVE SMOOTH",
"159 473 OFFCURVE",
"252 522 OFFCURVE",
"274 540 CURVE",
"295 558 OFFCURVE",
"297 589 OFFCURVE",
"279 611 CURVE SMOOTH"
);
},
{
closed = 1;
nodes = (
"596 207 OFFCURVE",
"618 309 OFFCURVE",
"618 337 CURVE",
"618 365 OFFCURVE",
"596 387 OFFCURVE",
"568 387 CURVE",
"540 387 OFFCURVE",
"518 365 OFFCURVE",
"518 337 CURVE",
"518 309 OFFCURVE",
"540 207 OFFCURVE",
"568 207 CURVE"
);
},
{
closed = 1;
nodes = (
"596 207 OFFCURVE",
"618 229 OFFCURVE",
"618 257 CURVE",
"618 285 OFFCURVE",
"596 387 OFFCURVE",
"568 387 CURVE",
"540 387 OFFCURVE",
"518 285 OFFCURVE",
"518 257 CURVE",
"518 229 OFFCURVE",
"540 207 OFFCURVE",
"568 207 CURVE"
);
},
{
closed = 1;
nodes = (
"596 367 OFFCURVE",
"618 389 OFFCURVE",
"618 417 CURVE",
"618 445 OFFCURVE",
"596 547 OFFCURVE",
"568 547 CURVE",
"540 547 OFFCURVE",
"518 445 OFFCURVE",
"518 417 CURVE",
"518 389 OFFCURVE",
"540 367 OFFCURVE",
"568 367 CURVE"
);
},
{
closed = 1;
nodes = (
"540 547 OFFCURVE",
"518 525 OFFCURVE",
"518 497 CURVE",
"518 469 OFFCURVE",
"540 367 OFFCURVE",
"568 367 CURVE",
"596 367 OFFCURVE",
"618 469 OFFCURVE",
"618 497 CURVE",
"618 525 OFFCURVE",
"596 547 OFFCURVE",
"568 547 CURVE"
);
},
{
closed = 1;
nodes = (
"596 127 OFFCURVE",
"618 149 OFFCURVE",
"618 177 CURVE",
"618 205 OFFCURVE",
"596 227 OFFCURVE",
"568 227 CURVE",
"540 227 OFFCURVE",
"518 205 OFFCURVE",
"518 177 CURVE",
"518 149 OFFCURVE",
"540 127 OFFCURVE",
"568 127 CURVE"
);
},
{
closed = 1;
nodes = (
"397 79 OFFCURVE",
"488 130 OFFCURVE",
"510 148 CURVE SMOOTH",
"531 166 OFFCURVE",
"535 197 OFFCURVE",
"517 218 CURVE SMOOTH",
"499 239 OFFCURVE",
"466 243 OFFCURVE",
"445 224 CURVE SMOOTH",
"425 206 OFFCURVE",
"361 123 OFFCURVE",
"379 101 CURVE SMOOTH"
);
},
{
closed = 1;
nodes = (
"397 79 OFFCURVE",
"429 77 OFFCURVE",
"449 95 CURVE SMOOTH",
"470 114 OFFCURVE",
"535 197 OFFCURVE",
"517 218 CURVE SMOOTH",
"499 239 OFFCURVE",
"406 190 OFFCURVE",
"384 172 CURVE",
"363 154 OFFCURVE",
"361 123 OFFCURVE",
"379 101 CURVE SMOOTH"
);
},
{
closed = 1;
nodes = (
"404 589 OFFCURVE",
"468 506 OFFCURVE",
"488 488 CURVE SMOOTH",
"509 469 OFFCURVE",
"542 473 OFFCURVE",
"560 494 CURVE SMOOTH",
"578 515 OFFCURVE",
"574 546 OFFCURVE",
"553 564 CURVE SMOOTH",
"531 582 OFFCURVE",
"440 633 OFFCURVE",
"422 611 CURVE SMOOTH"
);
},
{
closed = 1;
nodes = (
"404 589 OFFCURVE",
"406 558 OFFCURVE",
"427 540 CURVE",
"449 522 OFFCURVE",
"542 473 OFFCURVE",
"560 494 CURVE SMOOTH",
"578 515 OFFCURVE",
"513 598 OFFCURVE",
"492 617 CURVE SMOOTH",
"472 635 OFFCURVE",
"440 633 OFFCURVE",
"422 611 CURVE SMOOTH"
);
}
);
width = 700;
}
);
unicode = 004F;
},
{
glyphname = Oslash;
lastChange = "2020-12-30 10:17:00 +0000";
layers = (
{
components = (
{
name = O;
}
);
layerId = "C8365536-00F6-4CBD-B31D-2172D190A829";
paths = (
{
closed = 1;
nodes = (
"470 463 OFFCURVE",
"543 538 OFFCURVE",
"558 562 CURVE SMOOTH",
"573 585 OFFCURVE",
"566 617 OFFCURVE",
"541 632 CURVE SMOOTH",
"518 646 OFFCURVE",
"488 639 OFFCURVE",
"473 615 CURVE SMOOTH",
"458 591 OFFCURVE",
"422 493 OFFCURVE",
"446 478 CURVE SMOOTH"
);
},
{
closed = 1;
nodes = (
"385 329 OFFCURVE",
"416 334 OFFCURVE",
"431 359 CURVE SMOOTH",
"445 383 OFFCURVE",
"480 480 OFFCURVE",
"457 495 CURVE SMOOTH",
"433 511 OFFCURVE",
"361 435 OFFCURVE",
"346 412 CURVE",
"331 388 OFFCURVE",
"338 357 OFFCURVE",
"361 343 CURVE SMOOTH"
);
},
{
closed = 1;
nodes = (
"301 192 OFFCURVE",
"375 266 OFFCURVE",
"389 290 CURVE SMOOTH",
"403 315 OFFCURVE",
"396 346 OFFCURVE",
"372 360 CURVE SMOOTH",
"349 374 OFFCURVE",
"319 367 OFFCURVE",
"304 344 CURVE SMOOTH",
"288 320 OFFCURVE",
"253 223 OFFCURVE",
"276 208 CURVE SMOOTH"
);
},
{
closed = 1;
nodes = (
"301 192 OFFCURVE",
"331 199 OFFCURVE",
"346 223 CURVE SMOOTH",
"361 247 OFFCURVE",
"396 346 OFFCURVE",
"372 360 CURVE SMOOTH",
"349 374 OFFCURVE",
"275 300 OFFCURVE",
"261 276 CURVE SMOOTH",
"247 252 OFFCURVE",
"253 223 OFFCURVE",
"276 208 CURVE SMOOTH"
);
},
{
closed = 1;
nodes = (
"385 329 OFFCURVE",
"458 403 OFFCURVE",
"473 427 CURVE SMOOTH",
"488 450 OFFCURVE",
"480 480 OFFCURVE",
"457 495 CURVE SMOOTH",
"433 511 OFFCURVE",
"402 503 OFFCURVE",
"388 479 CURVE SMOOTH",
"374 456 OFFCURVE",
"338 357 OFFCURVE",
"361 343 CURVE SMOOTH"
);
},
{
closed = 1;
nodes = (
"470 463 OFFCURVE",
"501 471 OFFCURVE",
"516 494 CURVE",
"530 518 OFFCURVE",
"566 617 OFFCURVE",
"541 632 CURVE SMOOTH",
"518 646 OFFCURVE",
"447 571 OFFCURVE",
"431 547 CURVE SMOOTH",
"416 524 OFFCURVE",
"422 493 OFFCURVE",
"446 478 CURVE SMOOTH"
);
},
{
closed = 1;
nodes = (
"216 56 OFFCURVE",
"289 131 OFFCURVE",
"304 155 CURVE SMOOTH",
"319 178 OFFCURVE",
"311 211 OFFCURVE",
"287 225 CURVE SMOOTH",
"264 239 OFFCURVE",
"234 232 OFFCURVE",
"219 208 CURVE SMOOTH",
"204 184 OFFCURVE",
"168 86 OFFCURVE",
"192 71 CURVE SMOOTH"
);
},
{
closed = 1;
nodes = (
"216 56 OFFCURVE",
"248 63 OFFCURVE",
"262 87 CURVE SMOOTH",
"276 111 OFFCURVE",
"311 211 OFFCURVE",
"287 225 CURVE SMOOTH",
"264 239 OFFCURVE",
"192 163 OFFCURVE",
"177 140 CURVE SMOOTH",
"162 116 OFFCURVE",
"168 86 OFFCURVE",
"192 71 CURVE SMOOTH"
);
},
{
closed = 1;
nodes = (
"589 607 OFFCURVE",
"614 632 OFFCURVE",
"614 662 CURVE SMOOTH",
"614 692 OFFCURVE",
"589 717 OFFCURVE",
"559 717 CURVE SMOOTH",
"529 717 OFFCURVE",
"504 692 OFFCURVE",
"504 662 CURVE SMOOTH",
"504 632 OFFCURVE",
"529 607 OFFCURVE",
"559 607 CURVE SMOOTH"
);
},
{
closed = 1;
nodes = (
"203 -13 OFFCURVE",
"228 12 OFFCURVE",
"228 42 CURVE SMOOTH",
"228 72 OFFCURVE",
"203 97 OFFCURVE",
"173 97 CURVE SMOOTH",
"143 97 OFFCURVE",
"118 72 OFFCURVE",
"118 42 CURVE SMOOTH",
"118 12 OFFCURVE",
"143 -13 OFFCURVE",
"173 -13 CURVE SMOOTH"
);
}
);
width = 700;
}
);
unicode = 00D8;
},
{
glyphname = OE;
lastChange = "2020-12-30 14:17:10 +0000";
layers = (
{
layerId = "C8365536-00F6-4CBD-B31D-2172D190A829";
paths = (
{
closed = 0;
nodes = (
"337 55 LINE"
);
},
{
closed = 1;
nodes = (
"424 0 OFFCURVE",
"522 24 OFFCURVE",
"522 55 CURVE SMOOTH",
"522 86 OFFCURVE",
"424 110 OFFCURVE",
"393 110 CURVE SMOOTH",
"362 110 OFFCURVE",
"337 86 OFFCURVE",
"337 55 CURVE SMOOTH",
"337 24 OFFCURVE",
"362 0 OFFCURVE",
"393 0 CURVE SMOOTH"
);
},
{
closed = 1;
nodes = (
"499 0 OFFCURVE",
"522 24 OFFCURVE",
"522 55 CURVE SMOOTH",
"522 86 OFFCURVE",
"499 110 OFFCURVE",
"468 110 CURVE SMOOTH",
"437 110 OFFCURVE",
"337 86 OFFCURVE",
"337 55 CURVE",
"337 24 OFFCURVE",
"437 0 OFFCURVE",
"468 0 CURVE SMOOTH"
);
},
{
closed = 1;
nodes = (
"423 0 OFFCURVE",
"523 25 OFFCURVE",
"523 55 CURVE",
"523 85 OFFCURVE",
"423 110 OFFCURVE",
"393 110 CURVE",
"363 110 OFFCURVE",
"338 85 OFFCURVE",
"338 55 CURVE",
"338 25 OFFCURVE",
"363 0 OFFCURVE",
"393 0 CURVE"
);
},
{
closed = 1;
nodes = (
"391 85 OFFCURVE",
"420 99 OFFCURVE",
"429 125 CURVE SMOOTH",
"438 152 OFFCURVE",
"454 255 OFFCURVE",
"428 264 CURVE SMOOTH",
"401 273 OFFCURVE",
"345 186 OFFCURVE",
"335 159 CURVE SMOOTH",
"325 133 OFFCURVE",
"340 105 OFFCURVE",
"366 95 CURVE SMOOTH"
);
},
{
closed = 1;
nodes = (
"393 85 OFFCURVE",
"447 174 OFFCURVE",
"457 200 CURVE SMOOTH",
"467 227 OFFCURVE",
"454 255 OFFCURVE",
"428 264 CURVE SMOOTH",
"401 273 OFFCURVE",
"372 261 OFFCURVE",
"363 235 CURVE SMOOTH",
"354 208 OFFCURVE",
"340 105 OFFCURVE",
"366 95 CURVE SMOOTH"
);
},
{
closed = 1;
nodes = (
"574 0 OFFCURVE",
"672 24 OFFCURVE",
"672 55 CURVE SMOOTH",
"672 86 OFFCURVE",
"574 110 OFFCURVE",
"543 110 CURVE SMOOTH",
"512 110 OFFCURVE",
"487 86 OFFCURVE",
"487 55 CURVE SMOOTH",
"487 24 OFFCURVE",
"512 0 OFFCURVE",
"543 0 CURVE SMOOTH"
);
},
{
closed = 1;
nodes = (
"649 0 OFFCURVE",
"672 24 OFFCURVE",
"672 55 CURVE SMOOTH",
"672 86 OFFCURVE",
"649 110 OFFCURVE",
"618 110 CURVE SMOOTH",
"587 110 OFFCURVE",
"487 86 OFFCURVE",
"487 55 CURVE SMOOTH",
"487 24 OFFCURVE",
"587 0 OFFCURVE",
"618 0 CURVE SMOOTH"
);
},
{
closed = 0;
nodes = (
"337 339 LINE"
);
},
{
closed = 1;
nodes = (
"421 250 OFFCURVE",
"442 272 OFFCURVE",
"442 300 CURVE",
"442 328 OFFCURVE",
"421 350 OFFCURVE",
"393 350 CURVE SMOOTH",
"365 350 OFFCURVE",
"342 328 OFFCURVE",
"342 300 CURVE SMOOTH",
"342 272 OFFCURVE",
"365 250 OFFCURVE",
"393 250 CURVE SMOOTH"
);
},
{
closed = 1;
nodes = (
"499 284 OFFCURVE",
"522 308 OFFCURVE",
"522 339 CURVE SMOOTH",
"522 370 OFFCURVE",
"499 394 OFFCURVE",
"468 394 CURVE SMOOTH",
"437 394 OFFCURVE",
"412 370 OFFCURVE",
"412 339 CURVE",
"412 308 OFFCURVE",
"437 284 OFFCURVE",
"468 284 CURVE SMOOTH"
);
},
{
closed = 1;
nodes = (
"408 330 OFFCURVE",
"437 344 OFFCURVE",
"446 370 CURVE SMOOTH",
"455 397 OFFCURVE",
"471 500 OFFCURVE",
"445 509 CURVE SMOOTH",
"418 518 OFFCURVE",
"362 431 OFFCURVE",
"352 404 CURVE SMOOTH",
"342 378 OFFCURVE",
"357 350 OFFCURVE",
"383 340 CURVE SMOOTH"
);
},
{
closed = 1;
nodes = (
"410 330 OFFCURVE",
"464 419 OFFCURVE",
"474 445 CURVE SMOOTH",
"484 472 OFFCURVE",
"471 500 OFFCURVE",
"445 509 CURVE SMOOTH",
"418 518 OFFCURVE",
"389 506 OFFCURVE",
"380 480 CURVE SMOOTH",
"371 453 OFFCURVE",
"357 350 OFFCURVE",
"383 340 CURVE SMOOTH"
);
},
{
closed = 1;
nodes = (
"574 284 OFFCURVE",
"672 308 OFFCURVE",
"672 339 CURVE SMOOTH",
"672 370 OFFCURVE",
"574 394 OFFCURVE",
"543 394 CURVE SMOOTH",
"512 394 OFFCURVE",
"487 370 OFFCURVE",
"487 339 CURVE SMOOTH",
"487 308 OFFCURVE",
"512 284 OFFCURVE",
"543 284 CURVE SMOOTH"
);
},
{
closed = 1;
nodes = (
"649 284 OFFCURVE",
"672 308 OFFCURVE",
"672 339 CURVE SMOOTH",
"672 370 OFFCURVE",
"649 394 OFFCURVE",
"618 394 CURVE SMOOTH",
"587 394 OFFCURVE",
"487 370 OFFCURVE",
"487 339 CURVE SMOOTH",
"487 308 OFFCURVE",
"587 284 OFFCURVE",
"618 284 CURVE SMOOTH"
);
},
{
closed = 1;
nodes = (
"421 490 OFFCURVE",
"442 512 OFFCURVE",
"442 540 CURVE SMOOTH",
"442 568 OFFCURVE",
"421 590 OFFCURVE",
"393 590 CURVE SMOOTH",
"365 590 OFFCURVE",
"342 568 OFFCURVE",
"342 540 CURVE SMOOTH",
"342 512 OFFCURVE",
"365 490 OFFCURVE",
"393 490 CURVE SMOOTH"
);
},
{
closed = 0;
nodes = (
"337 625 LINE"
);
},
{
closed = 1;
nodes = (
"424 570 OFFCURVE",
"522 594 OFFCURVE",
"522 625 CURVE SMOOTH",
"522 656 OFFCURVE",
"424 680 OFFCURVE",
"393 680 CURVE SMOOTH",
"362 680 OFFCURVE",
"337 656 OFFCURVE",
"337 625 CURVE SMOOTH",
"337 594 OFFCURVE",
"362 570 OFFCURVE",
"393 570 CURVE SMOOTH"
);
},
{
closed = 1;
nodes = (
"499 570 OFFCURVE",
"522 594 OFFCURVE",
"522 625 CURVE SMOOTH",
"522 656 OFFCURVE",
"499 680 OFFCURVE",
"468 680 CURVE SMOOTH",
"437 680 OFFCURVE",
"337 656 OFFCURVE",
"337 625 CURVE",
"337 594 OFFCURVE",
"437 570 OFFCURVE",
"468 570 CURVE SMOOTH"
);
},
{
closed = 1;
nodes = (
"574 570 OFFCURVE",
"672 594 OFFCURVE",
"672 625 CURVE SMOOTH",
"672 656 OFFCURVE",
"574 680 OFFCURVE",
"543 680 CURVE SMOOTH",
"512 680 OFFCURVE",
"487 656 OFFCURVE",
"487 625 CURVE SMOOTH",
"487 594 OFFCURVE",
"512 570 OFFCURVE",
"543 570 CURVE SMOOTH"
);
},
{
closed = 1;
nodes = (
"649 570 OFFCURVE",
"672 594 OFFCURVE",
"672 625 CURVE SMOOTH",
"672 656 OFFCURVE",
"649 680 OFFCURVE",
"618 680 CURVE SMOOTH",
"587 680 OFFCURVE",
"487 656 OFFCURVE",
"487 625 CURVE SMOOTH",
"487 594 OFFCURVE",
"587 570 OFFCURVE",
"618 570 CURVE SMOOTH"
);
},
{
closed = 1;
nodes = (
"291 570 OFFCURVE",
"391 595 OFFCURVE",
"391 625 CURVE",
"391 655 OFFCURVE",
"291 680 OFFCURVE",
"261 680 CURVE",
"231 680 OFFCURVE",
"206 655 OFFCURVE",
"206 625 CURVE",
"206 595 OFFCURVE",
"231 570 OFFCURVE",
"261 570 CURVE"
);
},
{
closed = 1;
nodes = (
"106 207 OFFCURVE",
"128 309 OFFCURVE",
"128 337 CURVE",
"128 365 OFFCURVE",
"106 387 OFFCURVE",
"78 387 CURVE",
"50 387 OFFCURVE",
"28 365 OFFCURVE",
"28 337 CURVE",
"28 309 OFFCURVE",
"50 207 OFFCURVE",
"78 207 CURVE"
);
},
{
closed = 1;
nodes = (
"106 207 OFFCURVE",
"128 229 OFFCURVE",
"128 257 CURVE",
"128 285 OFFCURVE",
"106 387 OFFCURVE",
"78 387 CURVE",
"50 387 OFFCURVE",
"28 285 OFFCURVE",
"28 257 CURVE",
"28 229 OFFCURVE",
"50 207 OFFCURVE",
"78 207 CURVE"
);
},
{
closed = 1;
nodes = (
"106 367 OFFCURVE",
"128 389 OFFCURVE",
"128 417 CURVE",
"128 445 OFFCURVE",
"106 547 OFFCURVE",
"78 547 CURVE",
"50 547 OFFCURVE",
"28 445 OFFCURVE",
"28 417 CURVE",
"28 389 OFFCURVE",
"50 367 OFFCURVE",
"78 367 CURVE"
);
},
{
closed = 1;
nodes = (
"232 110 OFFCURVE",
"207 85 OFFCURVE",
"207 55 CURVE",
"207 25 OFFCURVE",
"232 0 OFFCURVE",
"262 0 CURVE",
"292 0 OFFCURVE",
"392 25 OFFCURVE",
"392 55 CURVE",
"392 85 OFFCURVE",
"292 110 OFFCURVE",
"262 110 CURVE"
);
},
{
closed = 1;
nodes = (
"50 547 OFFCURVE",
"28 525 OFFCURVE",
"28 497 CURVE",
"28 469 OFFCURVE",
"50 367 OFFCURVE",
"78 367 CURVE",
"106 367 OFFCURVE",
"128 469 OFFCURVE",
"128 497 CURVE",
"128 525 OFFCURVE",
"106 547 OFFCURVE",
"78 547 CURVE"
);
},
{
closed = 1;
nodes = (
"106 127 OFFCURVE",
"128 149 OFFCURVE",
"128 177 CURVE",
"128 205 OFFCURVE",
"106 227 OFFCURVE",
"78 227 CURVE",
"50 227 OFFCURVE",
"28 205 OFFCURVE",
"28 177 CURVE",
"28 149 OFFCURVE",
"50 127 OFFCURVE",
"78 127 CURVE"
);
},
{
closed = 1;
nodes = (
"366 570 OFFCURVE",
"391 595 OFFCURVE",
"391 625 CURVE",
"391 655 OFFCURVE",
"366 680 OFFCURVE",
"336 680 CURVE",
"306 680 OFFCURVE",
"206 655 OFFCURVE",
"206 625 CURVE",
"206 595 OFFCURVE",
"306 570 OFFCURVE",
"336 570 CURVE"
);
},
{
closed = 1;
nodes = (
"307 110 OFFCURVE",
"207 85 OFFCURVE",
"207 55 CURVE",
"207 25 OFFCURVE",
"307 0 OFFCURVE",
"337 0 CURVE",
"367 0 OFFCURVE",
"392 25 OFFCURVE",
"392 55 CURVE",
"392 85 OFFCURVE",
"367 110 OFFCURVE",
"337 110 CURVE"
);
},
{
closed = 1;
nodes = (
"285 123 OFFCURVE",
"221 206 OFFCURVE",
"201 224 CURVE SMOOTH",
"180 243 OFFCURVE",
"147 239 OFFCURVE",
"129 218 CURVE SMOOTH",
"111 197 OFFCURVE",
"115 166 OFFCURVE",
"136 148 CURVE SMOOTH",
"158 130 OFFCURVE",
"249 79 OFFCURVE",
"267 101 CURVE SMOOTH"
);
},
{
closed = 1;
nodes = (
"285 123 OFFCURVE",
"283 154 OFFCURVE",
"262 172 CURVE",
"240 190 OFFCURVE",
"147 239 OFFCURVE",
"129 218 CURVE SMOOTH",
"111 197 OFFCURVE",
"176 114 OFFCURVE",
"197 95 CURVE SMOOTH",
"217 77 OFFCURVE",
"249 79 OFFCURVE",
"267 101 CURVE SMOOTH"
);
},
{
closed = 1;
nodes = (
"207 633 OFFCURVE",
"116 582 OFFCURVE",
"94 564 CURVE SMOOTH",
"73 546 OFFCURVE",
"69 515 OFFCURVE",
"87 494 CURVE SMOOTH",
"105 473 OFFCURVE",
"138 469 OFFCURVE",
"159 488 CURVE SMOOTH",
"179 506 OFFCURVE",
"243 589 OFFCURVE",
"225 611 CURVE SMOOTH"
);
},
{
closed = 1;
nodes = (
"207 633 OFFCURVE",
"175 635 OFFCURVE",
"155 617 CURVE SMOOTH",
"134 598 OFFCURVE",
"69 515 OFFCURVE",
"87 494 CURVE SMOOTH",
"105 473 OFFCURVE",
"198 522 OFFCURVE",
"220 540 CURVE",
"241 558 OFFCURVE",
"243 589 OFFCURVE",
"225 611 CURVE SMOOTH"
);
}
);
width = 700;
}
);
unicode = 0152;
},
{
glyphname = P;
lastChange = "2020-12-30 13:43:54 +0000";
layers = (
{
guideLines = (
{
position = "{387, 243}";
}
);
layerId = "C8365536-00F6-4CBD-B31D-2172D190A829";
paths = (
{
closed = 1;
nodes = (
"193 570 OFFCURVE",
"291 594 OFFCURVE",
"291 625 CURVE SMOOTH",
"291 656 OFFCURVE",
"193 680 OFFCURVE",
"162 680 CURVE SMOOTH",
"131 680 OFFCURVE",
"106 656 OFFCURVE",
"106 625 CURVE SMOOTH",
"106 594 OFFCURVE",
"131 570 OFFCURVE",
"162 570 CURVE SMOOTH"
);
},
{
closed = 1;
nodes = (
"493 243 OFFCURVE",
"516 267 OFFCURVE",
"516 298 CURVE SMOOTH",
"516 329 OFFCURVE",
"493 353 OFFCURVE",
"462 353 CURVE SMOOTH",
"431 353 OFFCURVE",
"331 329 OFFCURVE",
"331 298 CURVE SMOOTH",
"331 267 OFFCURVE",
"431 243 OFFCURVE",
"462 243 CURVE SMOOTH"
);
},
{
closed = 1;
nodes = (
"193 0 OFFCURVE",
"216 24 OFFCURVE",
"216 55 CURVE SMOOTH",
"216 86 OFFCURVE",
"193 110 OFFCURVE",
"162 110 CURVE SMOOTH",
"131 110 OFFCURVE",
"106 86 OFFCURVE",
"106 55 CURVE SMOOTH",
"106 24 OFFCURVE",
"131 0 OFFCURVE",
"162 0 CURVE SMOOTH"
);
},
{
closed = 1;
nodes = (
"234 284 OFFCURVE",
"324 240 OFFCURVE",
"344 264 CURVE SMOOTH",
"364 287 OFFCURVE",
"305 369 OFFCURVE",
"281 389 CURVE SMOOTH",
"257 409 OFFCURVE",
"223 406 OFFCURVE",
"203 382 CURVE",
"183 359 OFFCURVE",
"186 324 OFFCURVE",
"210 304 CURVE SMOOTH"
);
},
{
closed = 1;
nodes = (
"291 236 OFFCURVE",
"324 240 OFFCURVE",
"344 264 CURVE SMOOTH",
"364 287 OFFCURVE",
"362 320 OFFCURVE",
"338 340 CURVE SMOOTH",
"315 360 OFFCURVE",
"223 406 OFFCURVE",
"203 382 CURVE SMOOTH",
"183 359 OFFCURVE",
"244 276 OFFCURVE",
"268 256 CURVE"
);
},
{
closed = 1;
nodes = (
"418 243 OFFCURVE",
"516 267 OFFCURVE",
"516 298 CURVE SMOOTH",
"516 329 OFFCURVE",
"418 353 OFFCURVE",
"387 353 CURVE SMOOTH",
"356 353 OFFCURVE",
"331 329 OFFCURVE",
"331 298 CURVE SMOOTH",
"331 267 OFFCURVE",
"356 243 OFFCURVE",
"387 243 CURVE SMOOTH"
);
},
{
closed = 1;
nodes = (
"190 410 OFFCURVE",
"211 512 OFFCURVE",
"211 540 CURVE SMOOTH",
"211 568 OFFCURVE",
"190 590 OFFCURVE",
"162 590 CURVE SMOOTH",
"134 590 OFFCURVE",
"111 568 OFFCURVE",
"111 540 CURVE SMOOTH",
"111 512 OFFCURVE",
"134 410 OFFCURVE",
"162 410 CURVE SMOOTH"
);
},
{
closed = 1;
nodes = (
"190 250 OFFCURVE",
"211 272 OFFCURVE",
"211 300 CURVE",
"211 328 OFFCURVE",
"190 430 OFFCURVE",
"162 430 CURVE SMOOTH",
"134 430 OFFCURVE",
"111 328 OFFCURVE",
"111 300 CURVE SMOOTH",
"111 272 OFFCURVE",
"134 250 OFFCURVE",
"162 250 CURVE SMOOTH"
);
},
{
closed = 1;
nodes = (
"190 90 OFFCURVE",
"211 192 OFFCURVE",
"211 220 CURVE SMOOTH",
"211 248 OFFCURVE",
"190 270 OFFCURVE",
"162 270 CURVE SMOOTH",
"134 270 OFFCURVE",
"111 248 OFFCURVE",
"111 220 CURVE SMOOTH",
"111 192 OFFCURVE",
"134 90 OFFCURVE",
"162 90 CURVE SMOOTH"
);
},
{
closed = 1;
nodes = (
"188 90 OFFCURVE",
"211 112 OFFCURVE",
"211 140 CURVE SMOOTH",
"211 168 OFFCURVE",
"190 270 OFFCURVE",
"162 270 CURVE SMOOTH",
"134 270 OFFCURVE",
"111 168 OFFCURVE",
"111 140 CURVE SMOOTH",
"111 112 OFFCURVE",
"134 90 OFFCURVE",
"162 90 CURVE SMOOTH"
);
},
{
closed = 1;
nodes = (
"190 250 OFFCURVE",
"211 352 OFFCURVE",
"211 380 CURVE SMOOTH",
"211 408 OFFCURVE",
"190 430 OFFCURVE",
"162 430 CURVE SMOOTH",
"134 430 OFFCURVE",
"111 408 OFFCURVE",
"111 380 CURVE SMOOTH",
"111 352 OFFCURVE",
"134 250 OFFCURVE",
"162 250 CURVE SMOOTH"
);
},
{
closed = 1;
nodes = (
"190 410 OFFCURVE",
"211 432 OFFCURVE",
"211 460 CURVE SMOOTH",
"211 488 OFFCURVE",
"190 590 OFFCURVE",
"162 590 CURVE SMOOTH",
"134 590 OFFCURVE",
"111 488 OFFCURVE",
"111 460 CURVE",
"111 432 OFFCURVE",
"134 410 OFFCURVE",
"162 410 CURVE SMOOTH"
);
},
{
closed = 1;
nodes = (
"568 410 OFFCURVE",
"589 512 OFFCURVE",
"589 540 CURVE SMOOTH",
"589 568 OFFCURVE",
"568 590 OFFCURVE",
"540 590 CURVE SMOOTH",
"512 590 OFFCURVE",
"489 568 OFFCURVE",
"489 540 CURVE SMOOTH",
"489 512 OFFCURVE",
"512 410 OFFCURVE",
"540 410 CURVE SMOOTH"
);
},
{
closed = 1;
nodes = (
"568 330 OFFCURVE",
"589 352 OFFCURVE",
"589 380 CURVE SMOOTH",
"589 408 OFFCURVE",
"568 510 OFFCURVE",
"540 510 CURVE SMOOTH",
"512 510 OFFCURVE",
"489 408 OFFCURVE",
"489 380 CURVE SMOOTH",
"489 352 OFFCURVE",
"512 330 OFFCURVE",
"540 330 CURVE SMOOTH"
);
},
{
closed = 1;
nodes = (
"568 410 OFFCURVE",
"589 432 OFFCURVE",
"589 460 CURVE SMOOTH",
"589 488 OFFCURVE",
"568 510 OFFCURVE",
"540 510 CURVE SMOOTH",
"512 510 OFFCURVE",
"489 488 OFFCURVE",
"489 460 CURVE",
"489 432 OFFCURVE",
"512 410 OFFCURVE",
"540 410 CURVE SMOOTH"
);
},
{
closed = 1;
nodes = (
"493 570 OFFCURVE",
"516 594 OFFCURVE",
"516 625 CURVE SMOOTH",
"516 656 OFFCURVE",
"493 680 OFFCURVE",
"462 680 CURVE SMOOTH",
"431 680 OFFCURVE",
"331 656 OFFCURVE",
"331 625 CURVE SMOOTH",
"331 594 OFFCURVE",
"431 570 OFFCURVE",
"462 570 CURVE SMOOTH"
);
},
{
closed = 1;
nodes = (
"268 570 OFFCURVE",
"291 594 OFFCURVE",
"291 625 CURVE SMOOTH",
"291 656 OFFCURVE",
"268 680 OFFCURVE",
"237 680 CURVE SMOOTH",
"206 680 OFFCURVE",
"106 656 OFFCURVE",
"106 625 CURVE",
"106 594 OFFCURVE",
"206 570 OFFCURVE",
"237 570 CURVE SMOOTH"
);
},
{
closed = 1;
nodes = (
"343 570 OFFCURVE",
"516 594 OFFCURVE",
"516 625 CURVE SMOOTH",
"516 656 OFFCURVE",
"343 680 OFFCURVE",
"312 680 CURVE SMOOTH",
"281 680 OFFCURVE",
"256 656 OFFCURVE",
"256 625 CURVE SMOOTH",
"256 594 OFFCURVE",
"281 570 OFFCURVE",
"312 570 CURVE SMOOTH"
);
},
{
closed = 1;
nodes = (
"418 570 OFFCURVE",
"441 594 OFFCURVE",
"441 625 CURVE SMOOTH",
"441 656 OFFCURVE",
"418 680 OFFCURVE",
"387 680 CURVE SMOOTH",
"356 680 OFFCURVE",
"331 656 OFFCURVE",
"331 625 CURVE SMOOTH",
"331 594 OFFCURVE",
"356 570 OFFCURVE",
"387 570 CURVE SMOOTH"
);
},
{
closed = 1;
nodes = (
"530 568 OFFCURVE",
"541 579 OFFCURVE",
"541 593 CURVE",
"541 607 OFFCURVE",
"530 618 OFFCURVE",
"516 618 CURVE",
"502 618 OFFCURVE",
"491 607 OFFCURVE",
"491 593 CURVE",
"491 579 OFFCURVE",
"502 568 OFFCURVE",
"516 568 CURVE"
);
},
{
closed = 1;
nodes = (
"530 298 OFFCURVE",
"541 309 OFFCURVE",
"541 323 CURVE",
"541 337 OFFCURVE",
"530 348 OFFCURVE",
"516 348 CURVE",
"502 348 OFFCURVE",
"491 337 OFFCURVE",
"491 323 CURVE",
"491 309 OFFCURVE",
"502 298 OFFCURVE",
"516 298 CURVE"
);
}
);
width = 700;
}
);
unicode = 0050;
},
{
glyphname = Thorn;
lastChange = "2020-12-30 14:01:58 +0000";
layers = (
{
layerId = "C8365536-00F6-4CBD-B31D-2172D190A829";
paths = (
{
closed = 1;
nodes = (
"493 121 OFFCURVE",
"516 145 OFFCURVE",
"516 176 CURVE SMOOTH",
"516 207 OFFCURVE",
"493 231 OFFCURVE",
"462 231 CURVE SMOOTH",
"431 231 OFFCURVE",
"331 207 OFFCURVE",
"331 176 CURVE SMOOTH",
"331 145 OFFCURVE",
"431 121 OFFCURVE",
"462 121 CURVE SMOOTH"
);
},
{
closed = 1;
nodes = (
"193 0 OFFCURVE",
"216 24 OFFCURVE",
"216 55 CURVE SMOOTH",
"216 86 OFFCURVE",
"193 110 OFFCURVE",
"162 110 CURVE SMOOTH",
"131 110 OFFCURVE",
"106 86 OFFCURVE",
"106 55 CURVE SMOOTH",
"106 24 OFFCURVE",
"131 0 OFFCURVE",
"162 0 CURVE SMOOTH"
);
},
{
closed = 1;
nodes = (
"234 162 OFFCURVE",
"324 118 OFFCURVE",
"344 142 CURVE SMOOTH",
"364 165 OFFCURVE",
"305 247 OFFCURVE",
"281 267 CURVE SMOOTH",
"257 287 OFFCURVE",
"223 284 OFFCURVE",
"203 260 CURVE",
"183 237 OFFCURVE",
"186 202 OFFCURVE",
"210 182 CURVE SMOOTH"
);
},
{
closed = 1;
nodes = (
"291 114 OFFCURVE",
"324 118 OFFCURVE",
"344 142 CURVE SMOOTH",
"364 165 OFFCURVE",
"362 198 OFFCURVE",
"338 218 CURVE SMOOTH",
"315 238 OFFCURVE",
"223 284 OFFCURVE",
"203 260 CURVE SMOOTH",
"183 237 OFFCURVE",
"244 154 OFFCURVE",
"268 134 CURVE"
);
},
{
closed = 1;
nodes = (
"418 121 OFFCURVE",
"516 145 OFFCURVE",
"516 176 CURVE SMOOTH",
"516 207 OFFCURVE",
"418 231 OFFCURVE",
"387 231 CURVE SMOOTH",
"356 231 OFFCURVE",
"331 207 OFFCURVE",
"331 176 CURVE SMOOTH",
"331 145 OFFCURVE",
"356 121 OFFCURVE",
"387 121 CURVE SMOOTH"
);
},
{
closed = 1;
nodes = (
"190 410 OFFCURVE",
"211 512 OFFCURVE",
"211 540 CURVE SMOOTH",
"211 568 OFFCURVE",
"190 590 OFFCURVE",
"162 590 CURVE SMOOTH",
"134 590 OFFCURVE",
"111 568 OFFCURVE",
"111 540 CURVE SMOOTH",
"111 512 OFFCURVE",
"134 410 OFFCURVE",
"162 410 CURVE SMOOTH"
);
},
{
closed = 1;
nodes = (
"190 250 OFFCURVE",
"211 272 OFFCURVE",
"211 300 CURVE",
"211 328 OFFCURVE",
"190 430 OFFCURVE",
"162 430 CURVE SMOOTH",
"134 430 OFFCURVE",
"111 328 OFFCURVE",
"111 300 CURVE SMOOTH",
"111 272 OFFCURVE",
"134 250 OFFCURVE",
"162 250 CURVE SMOOTH"
);
},
{
closed = 1;
nodes = (
"190 90 OFFCURVE",
"211 192 OFFCURVE",
"211 220 CURVE SMOOTH",
"211 248 OFFCURVE",
"190 270 OFFCURVE",
"162 270 CURVE SMOOTH",
"134 270 OFFCURVE",
"111 248 OFFCURVE",
"111 220 CURVE SMOOTH",
"111 192 OFFCURVE",
"134 90 OFFCURVE",
"162 90 CURVE SMOOTH"
);
},
{
closed = 1;
nodes = (
"188 90 OFFCURVE",
"211 112 OFFCURVE",
"211 140 CURVE SMOOTH",
"211 168 OFFCURVE",
"190 270 OFFCURVE",
"162 270 CURVE SMOOTH",
"134 270 OFFCURVE",
"111 168 OFFCURVE",
"111 140 CURVE SMOOTH",
"111 112 OFFCURVE",
"134 90 OFFCURVE",
"162 90 CURVE SMOOTH"
);
},
{
closed = 1;
nodes = (
"190 250 OFFCURVE",
"211 352 OFFCURVE",
"211 380 CURVE SMOOTH",
"211 408 OFFCURVE",
"190 430 OFFCURVE",
"162 430 CURVE SMOOTH",
"134 430 OFFCURVE",
"111 408 OFFCURVE",
"111 380 CURVE SMOOTH",
"111 352 OFFCURVE",
"134 250 OFFCURVE",
"162 250 CURVE SMOOTH"
);
},
{
closed = 1;
nodes = (
"190 410 OFFCURVE",
"211 432 OFFCURVE",
"211 460 CURVE SMOOTH",
"211 488 OFFCURVE",
"190 590 OFFCURVE",
"162 590 CURVE SMOOTH",
"134 590 OFFCURVE",
"111 488 OFFCURVE",
"111 460 CURVE",
"111 432 OFFCURVE",
"134 410 OFFCURVE",
"162 410 CURVE SMOOTH"
);
},
{
closed = 1;
nodes = (
"568 288 OFFCURVE",
"589 390 OFFCURVE",
"589 418 CURVE SMOOTH",
"589 446 OFFCURVE",
"568 468 OFFCURVE",
"540 468 CURVE SMOOTH",
"512 468 OFFCURVE",
"489 446 OFFCURVE",
"489 418 CURVE SMOOTH",
"489 390 OFFCURVE",
"512 288 OFFCURVE",
"540 288 CURVE SMOOTH"
);
},
{
closed = 1;
nodes = (
"568 208 OFFCURVE",
"589 230 OFFCURVE",
"589 258 CURVE SMOOTH",
"589 286 OFFCURVE",
"568 388 OFFCURVE",
"540 388 CURVE SMOOTH",
"512 388 OFFCURVE",
"489 286 OFFCURVE",
"489 258 CURVE SMOOTH",
"489 230 OFFCURVE",
"512 208 OFFCURVE",
"540 208 CURVE SMOOTH"
);
},
{
closed = 1;
nodes = (
"568 288 OFFCURVE",
"589 310 OFFCURVE",
"589 338 CURVE SMOOTH",
"589 366 OFFCURVE",
"568 388 OFFCURVE",
"540 388 CURVE SMOOTH",
"512 388 OFFCURVE",
"489 366 OFFCURVE",
"489 338 CURVE",
"489 310 OFFCURVE",
"512 288 OFFCURVE",
"540 288 CURVE SMOOTH"
);
},
{
closed = 1;
nodes = (
"493 448 OFFCURVE",
"516 472 OFFCURVE",
"516 503 CURVE SMOOTH",
"516 534 OFFCURVE",
"493 558 OFFCURVE",
"462 558 CURVE SMOOTH",
"431 558 OFFCURVE",
"331 534 OFFCURVE",
"331 503 CURVE SMOOTH",
"331 472 OFFCURVE",
"431 448 OFFCURVE",
"462 448 CURVE SMOOTH"
);
},
{
closed = 1;
nodes = (
"418 448 OFFCURVE",
"441 472 OFFCURVE",
"441 503 CURVE SMOOTH",
"441 534 OFFCURVE",
"418 558 OFFCURVE",
"387 558 CURVE SMOOTH",
"356 558 OFFCURVE",
"331 534 OFFCURVE",
"331 503 CURVE SMOOTH",
"331 472 OFFCURVE",
"356 448 OFFCURVE",
"387 448 CURVE SMOOTH"
);
},
{
closed = 1;
nodes = (
"530 446 OFFCURVE",
"541 457 OFFCURVE",
"541 471 CURVE",
"541 485 OFFCURVE",
"530 496 OFFCURVE",
"516 496 CURVE",
"502 496 OFFCURVE",
"491 485 OFFCURVE",
"491 471 CURVE",
"491 457 OFFCURVE",
"502 446 OFFCURVE",
"516 446 CURVE"
);
},
{
closed = 1;
nodes = (
"530 176 OFFCURVE",
"541 187 OFFCURVE",
"541 201 CURVE",
"541 215 OFFCURVE",
"530 226 OFFCURVE",
"516 226 CURVE",
"502 226 OFFCURVE",
"491 215 OFFCURVE",
"491 201 CURVE",
"491 187 OFFCURVE",
"502 176 OFFCURVE",
"516 176 CURVE"
);
},
{
closed = 1;
nodes = (
"193 570 OFFCURVE",
"216 594 OFFCURVE",
"216 625 CURVE SMOOTH",
"216 656 OFFCURVE",
"193 680 OFFCURVE",
"162 680 CURVE SMOOTH",
"131 680 OFFCURVE",
"106 656 OFFCURVE",
"106 625 CURVE SMOOTH",
"106 594 OFFCURVE",
"131 570 OFFCURVE",
"162 570 CURVE SMOOTH"
);
},
{
closed = 1;
nodes = (
"186 478 OFFCURVE",
"183 443 OFFCURVE",
"203 420 CURVE",
"223 396 OFFCURVE",
"257 393 OFFCURVE",
"281 413 CURVE SMOOTH",
"305 433 OFFCURVE",
"364 515 OFFCURVE",
"344 538 CURVE SMOOTH",
"324 562 OFFCURVE",
"234 518 OFFCURVE",
"210 498 CURVE SMOOTH"
);
},
{
closed = 1;
nodes = (
"244 526 OFFCURVE",
"183 443 OFFCURVE",
"203 420 CURVE SMOOTH",
"223 396 OFFCURVE",
"315 442 OFFCURVE",
"338 462 CURVE SMOOTH",
"362 482 OFFCURVE",
"364 515 OFFCURVE",
"344 538 CURVE SMOOTH",
"324 562 OFFCURVE",
"291 566 OFFCURVE",
"268 546 CURVE"
);
}
);
width = 700;
}
);
unicode = 00DE;
},
{
glyphname = Q;
lastChange = "2020-12-30 13:58:41 +0000";
layers = (
{
layerId = "C8365536-00F6-4CBD-B31D-2172D190A829";
paths = (
{
closed = 1;
nodes = (
"378 -160 OFFCURVE",
"400 -58 OFFCURVE",
"400 -30 CURVE",
"400 -2 OFFCURVE",
"378 20 OFFCURVE",
"350 20 CURVE",
"322 20 OFFCURVE",
"300 -2 OFFCURVE",
"300 -30 CURVE",
"300 -58 OFFCURVE",
"322 -160 OFFCURVE",
"350 -160 CURVE"
);
},
{
closed = 1;
nodes = (
"378 -160 OFFCURVE",
"400 -138 OFFCURVE",
"400 -110 CURVE",
"400 -82 OFFCURVE",
"378 20 OFFCURVE",
"350 20 CURVE",
"322 20 OFFCURVE",
"300 -82 OFFCURVE",
"300 -110 CURVE",
"300 -138 OFFCURVE",
"322 -160 OFFCURVE",
"350 -160 CURVE"
);
},
{
closed = 1;
nodes = (
"345 570 OFFCURVE",
"445 595 OFFCURVE",
"445 625 CURVE",
"445 655 OFFCURVE",
"345 680 OFFCURVE",
"315 680 CURVE",
"285 680 OFFCURVE",
"260 655 OFFCURVE",
"260 625 CURVE",
"260 595 OFFCURVE",
"285 570 OFFCURVE",
"315 570 CURVE"
);
},
{
closed = 1;
nodes = (
"160 207 OFFCURVE",
"182 309 OFFCURVE",
"182 337 CURVE",
"182 365 OFFCURVE",
"160 387 OFFCURVE",
"132 387 CURVE",
"104 387 OFFCURVE",
"82 365 OFFCURVE",
"82 337 CURVE",
"82 309 OFFCURVE",
"104 207 OFFCURVE",
"132 207 CURVE"
);
},
{
closed = 1;
nodes = (
"160 207 OFFCURVE",
"182 229 OFFCURVE",
"182 257 CURVE",
"182 285 OFFCURVE",
"160 387 OFFCURVE",
"132 387 CURVE",
"104 387 OFFCURVE",
"82 285 OFFCURVE",
"82 257 CURVE",
"82 229 OFFCURVE",
"104 207 OFFCURVE",
"132 207 CURVE"
);
},
{
closed = 1;
nodes = (
"160 367 OFFCURVE",
"182 389 OFFCURVE",
"182 417 CURVE",
"182 445 OFFCURVE",
"160 547 OFFCURVE",
"132 547 CURVE",
"104 547 OFFCURVE",
"82 445 OFFCURVE",
"82 417 CURVE",
"82 389 OFFCURVE",
"104 367 OFFCURVE",
"132 367 CURVE"
);
},
{
closed = 1;
nodes = (
"286 110 OFFCURVE",
"261 85 OFFCURVE",
"261 55 CURVE",
"261 25 OFFCURVE",
"286 0 OFFCURVE",
"316 0 CURVE",
"346 0 OFFCURVE",
"446 25 OFFCURVE",
"446 55 CURVE",
"446 85 OFFCURVE",
"346 110 OFFCURVE",
"316 110 CURVE"
);
},
{
closed = 1;
nodes = (
"104 547 OFFCURVE",
"82 525 OFFCURVE",
"82 497 CURVE",
"82 469 OFFCURVE",
"104 367 OFFCURVE",
"132 367 CURVE",
"160 367 OFFCURVE",
"182 469 OFFCURVE",
"182 497 CURVE",
"182 525 OFFCURVE",
"160 547 OFFCURVE",
"132 547 CURVE"
);
},
{
closed = 1;
nodes = (
"160 127 OFFCURVE",
"182 149 OFFCURVE",
"182 177 CURVE",
"182 205 OFFCURVE",
"160 227 OFFCURVE",
"132 227 CURVE",
"104 227 OFFCURVE",
"82 205 OFFCURVE",
"82 177 CURVE",
"82 149 OFFCURVE",
"104 127 OFFCURVE",
"132 127 CURVE"
);
},
{
closed = 1;
nodes = (
"420 570 OFFCURVE",
"445 595 OFFCURVE",
"445 625 CURVE",
"445 655 OFFCURVE",
"420 680 OFFCURVE",
"390 680 CURVE",
"360 680 OFFCURVE",
"260 655 OFFCURVE",
"260 625 CURVE",
"260 595 OFFCURVE",
"360 570 OFFCURVE",
"390 570 CURVE"
);
},
{
closed = 1;
nodes = (
"361 110 OFFCURVE",
"261 85 OFFCURVE",
"261 55 CURVE",
"261 25 OFFCURVE",
"361 0 OFFCURVE",
"391 0 CURVE",
"421 0 OFFCURVE",
"446 25 OFFCURVE",
"446 55 CURVE",
"446 85 OFFCURVE",
"421 110 OFFCURVE",
"391 110 CURVE"
);
},
{
closed = 1;
nodes = (
"339 123 OFFCURVE",
"275 206 OFFCURVE",
"255 224 CURVE SMOOTH",
"234 243 OFFCURVE",
"201 239 OFFCURVE",
"183 218 CURVE SMOOTH",
"165 197 OFFCURVE",
"169 166 OFFCURVE",
"190 148 CURVE SMOOTH",
"212 130 OFFCURVE",
"303 79 OFFCURVE",
"321 101 CURVE SMOOTH"
);
},
{
closed = 1;
nodes = (
"339 123 OFFCURVE",
"337 154 OFFCURVE",
"316 172 CURVE",
"294 190 OFFCURVE",
"201 239 OFFCURVE",
"183 218 CURVE SMOOTH",
"165 197 OFFCURVE",
"230 114 OFFCURVE",
"251 95 CURVE SMOOTH",
"271 77 OFFCURVE",
"303 79 OFFCURVE",
"321 101 CURVE SMOOTH"
);
},
{
closed = 1;
nodes = (
"261 633 OFFCURVE",
"170 582 OFFCURVE",
"148 564 CURVE SMOOTH",
"127 546 OFFCURVE",
"123 515 OFFCURVE",
"141 494 CURVE SMOOTH",
"159 473 OFFCURVE",
"192 469 OFFCURVE",
"213 488 CURVE SMOOTH",
"233 506 OFFCURVE",
"297 589 OFFCURVE",
"279 611 CURVE SMOOTH"
);
},
{
closed = 1;
nodes = (
"261 633 OFFCURVE",
"229 635 OFFCURVE",
"209 617 CURVE SMOOTH",
"188 598 OFFCURVE",
"123 515 OFFCURVE",
"141 494 CURVE SMOOTH",
"159 473 OFFCURVE",
"252 522 OFFCURVE",
"274 540 CURVE",
"295 558 OFFCURVE",
"297 589 OFFCURVE",
"279 611 CURVE SMOOTH"
);
},
{
closed = 1;
nodes = (
"596 207 OFFCURVE",
"618 309 OFFCURVE",
"618 337 CURVE",
"618 365 OFFCURVE",
"596 387 OFFCURVE",
"568 387 CURVE",
"540 387 OFFCURVE",
"518 365 OFFCURVE",
"518 337 CURVE",
"518 309 OFFCURVE",
"540 207 OFFCURVE",
"568 207 CURVE"
);
},
{
closed = 1;
nodes = (
"596 207 OFFCURVE",
"618 229 OFFCURVE",
"618 257 CURVE",
"618 285 OFFCURVE",
"596 387 OFFCURVE",
"568 387 CURVE",
"540 387 OFFCURVE",
"518 285 OFFCURVE",
"518 257 CURVE",
"518 229 OFFCURVE",
"540 207 OFFCURVE",
"568 207 CURVE"
);
},
{
closed = 1;
nodes = (
"596 367 OFFCURVE",
"618 389 OFFCURVE",
"618 417 CURVE",
"618 445 OFFCURVE",
"596 547 OFFCURVE",
"568 547 CURVE",
"540 547 OFFCURVE",
"518 445 OFFCURVE",
"518 417 CURVE",
"518 389 OFFCURVE",
"540 367 OFFCURVE",
"568 367 CURVE"
);
},
{
closed = 1;
nodes = (
"540 547 OFFCURVE",
"518 525 OFFCURVE",
"518 497 CURVE",
"518 469 OFFCURVE",
"540 367 OFFCURVE",
"568 367 CURVE",
"596 367 OFFCURVE",
"618 469 OFFCURVE",
"618 497 CURVE",
"618 525 OFFCURVE",
"596 547 OFFCURVE",
"568 547 CURVE"
);
},
{
closed = 1;
nodes = (
"596 127 OFFCURVE",
"618 149 OFFCURVE",
"618 177 CURVE",
"618 205 OFFCURVE",
"596 227 OFFCURVE",
"568 227 CURVE",
"540 227 OFFCURVE",
"518 205 OFFCURVE",
"518 177 CURVE",
"518 149 OFFCURVE",
"540 127 OFFCURVE",
"568 127 CURVE"
);
},
{
closed = 1;
nodes = (
"397 79 OFFCURVE",
"488 130 OFFCURVE",
"510 148 CURVE SMOOTH",
"531 166 OFFCURVE",
"535 197 OFFCURVE",
"517 218 CURVE SMOOTH",
"499 239 OFFCURVE",
"466 243 OFFCURVE",
"445 224 CURVE SMOOTH",
"425 206 OFFCURVE",
"361 123 OFFCURVE",
"379 101 CURVE SMOOTH"
);
},
{
closed = 1;
nodes = (
"397 79 OFFCURVE",
"429 77 OFFCURVE",
"449 95 CURVE SMOOTH",
"470 114 OFFCURVE",
"535 197 OFFCURVE",
"517 218 CURVE SMOOTH",
"499 239 OFFCURVE",
"406 190 OFFCURVE",
"384 172 CURVE",
"363 154 OFFCURVE",
"361 123 OFFCURVE",
"379 101 CURVE SMOOTH"
);
},
{
closed = 1;
nodes = (
"404 589 OFFCURVE",
"468 506 OFFCURVE",
"488 488 CURVE SMOOTH",
"509 469 OFFCURVE",
"542 473 OFFCURVE",
"560 494 CURVE SMOOTH",
"578 515 OFFCURVE",
"574 546 OFFCURVE",
"553 564 CURVE SMOOTH",
"531 582 OFFCURVE",
"440 633 OFFCURVE",
"422 611 CURVE SMOOTH"
);
},
{
closed = 1;
nodes = (
"404 589 OFFCURVE",
"406 558 OFFCURVE",
"427 540 CURVE",
"449 522 OFFCURVE",
"542 473 OFFCURVE",
"560 494 CURVE SMOOTH",
"578 515 OFFCURVE",
"513 598 OFFCURVE",
"492 617 CURVE SMOOTH",
"472 635 OFFCURVE",
"440 633 OFFCURVE",
"422 611 CURVE SMOOTH"
);
}
);
width = 700;
}
);
unicode = 0051;
},
{
glyphname = R;
lastChange = "2020-12-30 13:54:00 +0000";
layers = (
{
layerId = "C8365536-00F6-4CBD-B31D-2172D190A829";
paths = (
{
closed = 1;
nodes = (
"493 320 OFFCURVE",
"516 344 OFFCURVE",
"516 375 CURVE SMOOTH",
"516 406 OFFCURVE",
"493 430 OFFCURVE",
"462 430 CURVE SMOOTH",
"431 430 OFFCURVE",
"331 406 OFFCURVE",
"331 375 CURVE SMOOTH",
"331 344 OFFCURVE",
"431 320 OFFCURVE",
"462 320 CURVE SMOOTH"
);
},
{
closed = 1;
nodes = (
"193 0 OFFCURVE",
"216 24 OFFCURVE",
"216 55 CURVE SMOOTH",
"216 86 OFFCURVE",
"193 110 OFFCURVE",
"162 110 CURVE SMOOTH",
"131 110 OFFCURVE",
"106 86 OFFCURVE",
"106 55 CURVE SMOOTH",
"106 24 OFFCURVE",
"131 0 OFFCURVE",
"162 0 CURVE SMOOTH"
);
},
{
closed = 1;
nodes = (
"268 320 OFFCURVE",
"366 344 OFFCURVE",
"366 375 CURVE SMOOTH",
"366 406 OFFCURVE",
"268 430 OFFCURVE",
"237 430 CURVE SMOOTH",
"206 430 OFFCURVE",
"181 406 OFFCURVE",
"181 375 CURVE",
"181 344 OFFCURVE",
"206 320 OFFCURVE",
"237 320 CURVE SMOOTH"
);
},
{
closed = 1;
nodes = (
"343 320 OFFCURVE",
"366 344 OFFCURVE",
"366 375 CURVE SMOOTH",
"366 406 OFFCURVE",
"343 430 OFFCURVE",
"312 430 CURVE",
"281 430 OFFCURVE",
"181 406 OFFCURVE",
"181 375 CURVE SMOOTH",
"181 344 OFFCURVE",
"281 320 OFFCURVE",
"312 320 CURVE"
);
},
{
closed = 1;
nodes = (
"418 320 OFFCURVE",
"516 344 OFFCURVE",
"516 375 CURVE SMOOTH",
"516 406 OFFCURVE",
"418 430 OFFCURVE",
"387 430 CURVE SMOOTH",
"356 430 OFFCURVE",
"331 406 OFFCURVE",
"331 375 CURVE SMOOTH",
"331 344 OFFCURVE",
"356 320 OFFCURVE",
"387 320 CURVE SMOOTH"
);
},
{
closed = 1;
nodes = (
"190 410 OFFCURVE",
"211 512 OFFCURVE",
"211 540 CURVE SMOOTH",
"211 568 OFFCURVE",
"190 590 OFFCURVE",
"162 590 CURVE SMOOTH",
"134 590 OFFCURVE",
"111 568 OFFCURVE",
"111 540 CURVE SMOOTH",
"111 512 OFFCURVE",
"134 410 OFFCURVE",
"162 410 CURVE SMOOTH"
);
},
{
closed = 1;
nodes = (
"190 250 OFFCURVE",
"211 272 OFFCURVE",
"211 300 CURVE",
"211 328 OFFCURVE",
"190 430 OFFCURVE",
"162 430 CURVE SMOOTH",
"134 430 OFFCURVE",
"111 328 OFFCURVE",
"111 300 CURVE SMOOTH",
"111 272 OFFCURVE",
"134 250 OFFCURVE",
"162 250 CURVE SMOOTH"
);
},
{
closed = 1;
nodes = (
"190 90 OFFCURVE",
"211 192 OFFCURVE",
"211 220 CURVE SMOOTH",
"211 248 OFFCURVE",
"190 270 OFFCURVE",
"162 270 CURVE SMOOTH",
"134 270 OFFCURVE",
"111 248 OFFCURVE",
"111 220 CURVE SMOOTH",
"111 192 OFFCURVE",
"134 90 OFFCURVE",
"162 90 CURVE SMOOTH"
);
},
{
closed = 1;
nodes = (
"188 90 OFFCURVE",
"211 112 OFFCURVE",
"211 140 CURVE SMOOTH",
"211 168 OFFCURVE",
"190 270 OFFCURVE",
"162 270 CURVE SMOOTH",
"134 270 OFFCURVE",
"111 168 OFFCURVE",
"111 140 CURVE SMOOTH",
"111 112 OFFCURVE",
"134 90 OFFCURVE",
"162 90 CURVE SMOOTH"
);
},
{
closed = 1;
nodes = (
"190 250 OFFCURVE",
"211 352 OFFCURVE",
"211 380 CURVE SMOOTH",
"211 408 OFFCURVE",
"190 430 OFFCURVE",
"162 430 CURVE SMOOTH",
"134 430 OFFCURVE",
"111 408 OFFCURVE",
"111 380 CURVE SMOOTH",
"111 352 OFFCURVE",
"134 250 OFFCURVE",
"162 250 CURVE SMOOTH"
);
},
{
closed = 1;
nodes = (
"190 410 OFFCURVE",
"211 432 OFFCURVE",
"211 460 CURVE SMOOTH",
"211 488 OFFCURVE",
"190 590 OFFCURVE",
"162 590 CURVE SMOOTH",
"134 590 OFFCURVE",
"111 488 OFFCURVE",
"111 460 CURVE",
"111 432 OFFCURVE",
"134 410 OFFCURVE",
"162 410 CURVE SMOOTH"
);
},
{
closed = 1;
nodes = (
"563 411 OFFCURVE",
"584 513 OFFCURVE",
"584 541 CURVE SMOOTH",
"584 569 OFFCURVE",
"563 591 OFFCURVE",
"535 591 CURVE SMOOTH",
"507 591 OFFCURVE",
"484 569 OFFCURVE",
"484 541 CURVE SMOOTH",
"484 513 OFFCURVE",
"507 411 OFFCURVE",
"535 411 CURVE SMOOTH"
);
},
{
closed = 1;
nodes = (
"563 411 OFFCURVE",
"584 433 OFFCURVE",
"584 461 CURVE SMOOTH",
"584 489 OFFCURVE",
"564 594 OFFCURVE",
"536 594 CURVE SMOOTH",
"508 594 OFFCURVE",
"484 489 OFFCURVE",
"484 461 CURVE",
"484 433 OFFCURVE",
"507 411 OFFCURVE",
"535 411 CURVE SMOOTH"
);
},
{
closed = 1;
nodes = (
"530 568 OFFCURVE",
"541 579 OFFCURVE",
"541 593 CURVE",
"541 607 OFFCURVE",
"530 618 OFFCURVE",
"516 618 CURVE",
"502 618 OFFCURVE",
"491 607 OFFCURVE",
"491 593 CURVE",
"491 579 OFFCURVE",
"502 568 OFFCURVE",
"516 568 CURVE"
);
},
{
closed = 1;
nodes = (
"530 374 OFFCURVE",
"541 385 OFFCURVE",
"541 399 CURVE",
"541 413 OFFCURVE",
"530 424 OFFCURVE",
"516 424 CURVE",
"502 424 OFFCURVE",
"491 413 OFFCURVE",
"491 399 CURVE",
"491 385 OFFCURVE",
"502 374 OFFCURVE",
"516 374 CURVE"
);
},
{
closed = 1;
nodes = (
"401 162 OFFCURVE",
"429 144 OFFCURVE",
"460 150 CURVE SMOOTH",
"491 156 OFFCURVE",
"510 182 OFFCURVE",
"505 212 CURVE",
"500 242 OFFCURVE",
"458 337 OFFCURVE",
"428 332 CURVE SMOOTH",
"397 327 OFFCURVE",
"391 224 OFFCURVE",
"396 194 CURVE SMOOTH"
);
},
{
closed = 1;
nodes = (
"389 236 OFFCURVE",
"429 144 OFFCURVE",
"460 150 CURVE SMOOTH",
"491 156 OFFCURVE",
"497 256 OFFCURVE",
"492 286 CURVE SMOOTH",
"486 317 OFFCURVE",
"458 337 OFFCURVE",
"428 332 CURVE SMOOTH",
"397 327 OFFCURVE",
"378 297 OFFCURVE",
"384 267 CURVE SMOOTH"
);
},
{
closed = 1;
nodes = (
"556 -17 OFFCURVE",
"590 -6 OFFCURVE",
"605 22 CURVE SMOOTH",
"620 50 OFFCURVE",
"612 80 OFFCURVE",
"586 96 CURVE SMOOTH",
"560 112 OFFCURVE",
"460 140 OFFCURVE",
"444 114 CURVE SMOOTH",
"428 88 OFFCURVE",
"504 17 OFFCURVE",
"530 0 CURVE SMOOTH"
);
},
{
closed = 1;
nodes = (
"493 23 OFFCURVE",
"590 -6 OFFCURVE",
"605 22 CURVE SMOOTH",
"620 50 OFFCURVE",
"548 118 OFFCURVE",
"521 133 CURVE SMOOTH",
"494 148 OFFCURVE",
"460 140 OFFCURVE",
"444 114 CURVE SMOOTH",
"428 88 OFFCURVE",
"439 53 OFFCURVE",
"466 38 CURVE SMOOTH"
);
},
{
closed = 1;
nodes = (
"511 74 OFFCURVE",
"534 98 OFFCURVE",
"534 129 CURVE SMOOTH",
"534 160 OFFCURVE",
"511 184 OFFCURVE",
"480 184 CURVE SMOOTH",
"449 184 OFFCURVE",
"424 160 OFFCURVE",
"424 129 CURVE SMOOTH",
"424 98 OFFCURVE",
"449 74 OFFCURVE",
"480 74 CURVE SMOOTH"
);
},
{
closed = 1;
nodes = (
"193 570 OFFCURVE",
"216 594 OFFCURVE",
"216 625 CURVE SMOOTH",
"216 656 OFFCURVE",
"193 680 OFFCURVE",
"162 680 CURVE SMOOTH",
"131 680 OFFCURVE",
"106 656 OFFCURVE",
"106 625 CURVE SMOOTH",
"106 594 OFFCURVE",
"131 570 OFFCURVE",
"162 570 CURVE SMOOTH"
);
},
{
closed = 1;
nodes = (
"493 570 OFFCURVE",
"516 594 OFFCURVE",
"516 625 CURVE SMOOTH",
"516 656 OFFCURVE",
"493 680 OFFCURVE",
"462 680 CURVE SMOOTH",
"431 680 OFFCURVE",
"331 656 OFFCURVE",
"331 625 CURVE SMOOTH",
"331 594 OFFCURVE",
"431 570 OFFCURVE",
"462 570 CURVE SMOOTH"
);
},
{
closed = 1;
nodes = (
"268 570 OFFCURVE",
"366 594 OFFCURVE",
"366 625 CURVE SMOOTH",
"366 656 OFFCURVE",
"268 680 OFFCURVE",
"237 680 CURVE SMOOTH",
"206 680 OFFCURVE",
"181 656 OFFCURVE",
"181 625 CURVE",
"181 594 OFFCURVE",
"206 570 OFFCURVE",
"237 570 CURVE SMOOTH"
);
},
{
closed = 1;
nodes = (
"343 570 OFFCURVE",
"366 594 OFFCURVE",
"366 625 CURVE SMOOTH",
"366 656 OFFCURVE",
"343 680 OFFCURVE",
"312 680 CURVE SMOOTH",
"281 680 OFFCURVE",
"181 656 OFFCURVE",
"181 625 CURVE SMOOTH",
"181 594 OFFCURVE",
"281 570 OFFCURVE",
"312 570 CURVE"
);
},
{
closed = 1;
nodes = (
"418 570 OFFCURVE",
"516 594 OFFCURVE",
"516 625 CURVE SMOOTH",
"516 656 OFFCURVE",
"418 680 OFFCURVE",
"387 680 CURVE SMOOTH",
"356 680 OFFCURVE",
"331 656 OFFCURVE",
"331 625 CURVE SMOOTH",
"331 594 OFFCURVE",
"356 570 OFFCURVE",
"387 570 CURVE SMOOTH"
);
}
);
width = 700;
}
);
unicode = 0052;
},
{
glyphname = S;
lastChange = "2020-12-29 10:51:53 +0000";
layers = (
{
layerId = "C8365536-00F6-4CBD-B31D-2172D190A829";
paths = (
{
closed = 1;
nodes = (
"269 0 OFFCURVE",
"292 24 OFFCURVE",
"292 55 CURVE SMOOTH",
"292 86 OFFCURVE",
"269 110 OFFCURVE",
"238 110 CURVE SMOOTH",
"207 110 OFFCURVE",
"107 86 OFFCURVE",
"107 55 CURVE SMOOTH",
"107 24 OFFCURVE",
"207 0 OFFCURVE",
"238 0 CURVE SMOOTH"
);
},
{
closed = 1;
nodes = (
"344 0 OFFCURVE",
"442 24 OFFCURVE",
"442 55 CURVE SMOOTH",
"442 86 OFFCURVE",
"344 110 OFFCURVE",
"313 110 CURVE SMOOTH",
"282 110 OFFCURVE",
"257 86 OFFCURVE",
"257 55 CURVE SMOOTH",
"257 24 OFFCURVE",
"282 0 OFFCURVE",
"313 0 CURVE SMOOTH"
);
},
{
closed = 1;
nodes = (
"419 0 OFFCURVE",
"442 24 OFFCURVE",
"442 55 CURVE SMOOTH",
"442 86 OFFCURVE",
"419 110 OFFCURVE",
"388 110 CURVE SMOOTH",
"357 110 OFFCURVE",
"257 86 OFFCURVE",
"257 55 CURVE SMOOTH",
"257 24 OFFCURVE",
"357 0 OFFCURVE",
"388 0 CURVE SMOOTH"
);
},
{
closed = 1;
nodes = (
"494 0 OFFCURVE",
"517 24 OFFCURVE",
"517 55 CURVE SMOOTH",
"517 85 OFFCURVE",
"496 110 OFFCURVE",
"463 110 CURVE SMOOTH",
"432 110 OFFCURVE",
"407 86 OFFCURVE",
"407 55 CURVE SMOOTH",
"407 24 OFFCURVE",
"432 0 OFFCURVE",
"463 0 CURVE SMOOTH"
);
},
{
closed = 1;
nodes = (
"597 173 OFFCURVE",
"618 195 OFFCURVE",
"618 223 CURVE SMOOTH",
"618 251 OFFCURVE",
"597 273 OFFCURVE",
"569 273 CURVE SMOOTH",
"541 273 OFFCURVE",
"518 251 OFFCURVE",
"518 223 CURVE SMOOTH",
"518 195 OFFCURVE",
"541 173 OFFCURVE",
"569 173 CURVE SMOOTH"
);
},
{
closed = 1;
nodes = (
"595 93 OFFCURVE",
"618 115 OFFCURVE",
"618 143 CURVE SMOOTH",
"618 171 OFFCURVE",
"597 273 OFFCURVE",
"569 273 CURVE SMOOTH",
"541 273 OFFCURVE",
"518 171 OFFCURVE",
"518 143 CURVE SMOOTH",
"518 115 OFFCURVE",
"541 93 OFFCURVE",
"569 93 CURVE SMOOTH"
);
},
{
closed = 1;
nodes = (
"269 570 OFFCURVE",
"367 594 OFFCURVE",
"367 625 CURVE SMOOTH",
"367 656 OFFCURVE",
"269 680 OFFCURVE",
"238 680 CURVE SMOOTH",
"207 680 OFFCURVE",
"182 656 OFFCURVE",
"182 625 CURVE SMOOTH",
"182 594 OFFCURVE",
"207 570 OFFCURVE",
"238 570 CURVE SMOOTH"
);
},
{
closed = 1;
nodes = (
"344 570 OFFCURVE",
"367 594 OFFCURVE",
"367 625 CURVE SMOOTH",
"367 656 OFFCURVE",
"344 680 OFFCURVE",
"313 680 CURVE SMOOTH",
"282 680 OFFCURVE",
"182 656 OFFCURVE",
"182 625 CURVE SMOOTH",
"182 594 OFFCURVE",
"282 570 OFFCURVE",
"313 570 CURVE SMOOTH"
);
},
{
closed = 1;
nodes = (
"419 570 OFFCURVE",
"517 594 OFFCURVE",
"517 625 CURVE SMOOTH",
"517 656 OFFCURVE",
"419 680 OFFCURVE",
"388 680 CURVE SMOOTH",
"357 680 OFFCURVE",
"332 656 OFFCURVE",
"332 625 CURVE SMOOTH",
"332 594 OFFCURVE",
"357 570 OFFCURVE",
"388 570 CURVE"
);
},
{
closed = 1;
nodes = (
"543 60 OFFCURVE",
"554 71 OFFCURVE",
"554 85 CURVE",
"554 99 OFFCURVE",
"543 110 OFFCURVE",
"529 110 CURVE",
"515 110 OFFCURVE",
"504 99 OFFCURVE",
"504 85 CURVE",
"504 71 OFFCURVE",
"515 60 OFFCURVE",
"529 60 CURVE"
);
},
{
closed = 1;
nodes = (
"194 0 OFFCURVE",
"292 24 OFFCURVE",
"292 55 CURVE SMOOTH",
"292 86 OFFCURVE",
"194 110 OFFCURVE",
"163 110 CURVE SMOOTH",
"132 110 OFFCURVE",
"107 86 OFFCURVE",
"107 55 CURVE SMOOTH",
"107 24 OFFCURVE",
"132 0 OFFCURVE",
"163 0 CURVE SMOOTH"
);
},
{
closed = 1;
nodes = (
"92 539 OFFCURVE",
"71 517 OFFCURVE",
"71 489 CURVE SMOOTH",
"71 461 OFFCURVE",
"92 439 OFFCURVE",
"120 439 CURVE SMOOTH",
"148 439 OFFCURVE",
"171 461 OFFCURVE",
"171 489 CURVE SMOOTH",
"171 517 OFFCURVE",
"148 539 OFFCURVE",
"120 539 CURVE SMOOTH"
);
},
{
closed = 1;
nodes = (
"94 619 OFFCURVE",
"71 597 OFFCURVE",
"71 569 CURVE SMOOTH",
"71 541 OFFCURVE",
"92 439 OFFCURVE",
"120 439 CURVE SMOOTH",
"148 439 OFFCURVE",
"171 541 OFFCURVE",
"171 569 CURVE SMOOTH",
"171 597 OFFCURVE",
"148 619 OFFCURVE",
"120 619 CURVE SMOOTH"
);
},
{
closed = 1;
nodes = (
"151 639 OFFCURVE",
"140 628 OFFCURVE",
"140 614 CURVE",
"140 600 OFFCURVE",
"151 589 OFFCURVE",
"165 589 CURVE",
"179 589 OFFCURVE",
"190 600 OFFCURVE",
"190 614 CURVE",
"190 628 OFFCURVE",
"179 639 OFFCURVE",
"165 639 CURVE"
);
},
{
closed = 1;
nodes = (
"207 408 OFFCURVE",
"182 384 OFFCURVE",
"182 353 CURVE",
"182 322 OFFCURVE",
"207 298 OFFCURVE",
"238 298 CURVE",
"269 298 OFFCURVE",
"367 322 OFFCURVE",
"367 353 CURVE",
"367 384 OFFCURVE",
"269 408 OFFCURVE",
"238 408 CURVE"
);
},
{
closed = 1;
nodes = (
"282 408 OFFCURVE",
"182 384 OFFCURVE",
"182 353 CURVE",
"182 322 OFFCURVE",
"282 298 OFFCURVE",
"313 298 CURVE",
"344 298 OFFCURVE",
"367 322 OFFCURVE",
"367 353 CURVE",
"367 384 OFFCURVE",
"344 408 OFFCURVE",
"313 408 CURVE"
);
},
{
closed = 1;
nodes = (
"357 408 OFFCURVE",
"332 384 OFFCURVE",
"332 353 CURVE",
"332 322 OFFCURVE",
"357 298 OFFCURVE",
"388 298 CURVE",
"419 298 OFFCURVE",
"517 322 OFFCURVE",
"517 353 CURVE",
"517 384 OFFCURVE",
"419 408 OFFCURVE",
"388 408 CURVE"
);
},
{
closed = 1;
nodes = (
"432 408 OFFCURVE",
"332 384 OFFCURVE",
"332 353 CURVE",
"332 322 OFFCURVE",
"432 298 OFFCURVE",
"463 298 CURVE",
"494 298 OFFCURVE",
"517 322 OFFCURVE",
"517 353 CURVE",
"517 387 OFFCURVE",
"494 408 OFFCURVE",
"463 408 CURVE"
);
},
{
closed = 1;
nodes = (
"148 359 OFFCURVE",
"171 381 OFFCURVE",
"171 409 CURVE",
"171 437 OFFCURVE",
"148 539 OFFCURVE",
"120 539 CURVE",
"92 539 OFFCURVE",
"71 437 OFFCURVE",
"71 409 CURVE",
"71 381 OFFCURVE",
"94 359 OFFCURVE",
"120 359 CURVE"
);
},
{
closed = 1;
nodes = (
"179 339 OFFCURVE",
"190 350 OFFCURVE",
"190 364 CURVE SMOOTH",
"190 378 OFFCURVE",
"179 389 OFFCURVE",
"165 389 CURVE SMOOTH",
"151 389 OFFCURVE",
"140 378 OFFCURVE",
"140 364 CURVE SMOOTH",
"140 350 OFFCURVE",
"151 339 OFFCURVE",
"165 339 CURVE SMOOTH"
);
},
{
closed = 1;
nodes = (
"597 173 OFFCURVE",
"618 275 OFFCURVE",
"618 303 CURVE SMOOTH",
"618 331 OFFCURVE",
"597 353 OFFCURVE",
"569 353 CURVE SMOOTH",
"541 353 OFFCURVE",
"518 331 OFFCURVE",
"518 303 CURVE SMOOTH",
"518 275 OFFCURVE",
"541 173 OFFCURVE",
"569 173 CURVE SMOOTH"
);
},
{
closed = 1;
nodes = (
"539 310 OFFCURVE",
"550 321 OFFCURVE",
"550 335 CURVE",
"550 349 OFFCURVE",
"539 360 OFFCURVE",
"525 360 CURVE",
"511 360 OFFCURVE",
"500 349 OFFCURVE",
"500 335 CURVE",
"500 321 OFFCURVE",
"511 310 OFFCURVE",
"525 310 CURVE"
);
},
{
closed = 1;
nodes = (
"494 570 OFFCURVE",
"517 594 OFFCURVE",
"517 625 CURVE SMOOTH",
"517 656 OFFCURVE",
"494 680 OFFCURVE",
"463 680 CURVE SMOOTH",
"432 680 OFFCURVE",
"332 656 OFFCURVE",
"332 625 CURVE SMOOTH",
"332 594 OFFCURVE",
"432 570 OFFCURVE",
"463 570 CURVE"
);
},
{
closed = 1;
nodes = (
"158 86 OFFCURVE",
"212 174 OFFCURVE",
"222 200 CURVE SMOOTH",
"231 227 OFFCURVE",
"219 255 OFFCURVE",
"193 264 CURVE SMOOTH",
"166 274 OFFCURVE",
"137 261 OFFCURVE",
"128 235 CURVE SMOOTH",
"118 208 OFFCURVE",
"105 105 OFFCURVE",
"131 95 CURVE SMOOTH"
);
},
{
closed = 1;
nodes = (
"156 86 OFFCURVE",
"185 99 OFFCURVE",
"194 125 CURVE SMOOTH",
"204 152 OFFCURVE",
"219 255 OFFCURVE",
"193 264 CURVE SMOOTH",
"166 274 OFFCURVE",
"110 186 OFFCURVE",
"100 160 CURVE SMOOTH",
"91 133 OFFCURVE",
"105 105 OFFCURVE",
"131 95 CURVE SMOOTH"
);
},
{
closed = 1;
nodes = (
"545 494 OFFCURVE",
"599 583 OFFCURVE",
"609 609 CURVE SMOOTH",
"619 636 OFFCURVE",
"606 664 OFFCURVE",
"580 673 CURVE SMOOTH",
"553 682 OFFCURVE",
"524 670 OFFCURVE",
"515 644 CURVE SMOOTH",
"506 617 OFFCURVE",
"492 514 OFFCURVE",
"518 504 CURVE SMOOTH"
);
},
{
closed = 1;
nodes = (
"543 494 OFFCURVE",
"572 508 OFFCURVE",
"581 534 CURVE SMOOTH",
"590 561 OFFCURVE",
"606 664 OFFCURVE",
"580 673 CURVE SMOOTH",
"553 682 OFFCURVE",
"497 595 OFFCURVE",
"487 569 CURVE SMOOTH",
"477 542 OFFCURVE",
"492 514 OFFCURVE",
"518 504 CURVE SMOOTH"
);
}
);
width = 700;
}
);
unicode = 0053;
},
{
glyphname = T;
lastChange = "2020-12-30 11:33:11 +0000";
layers = (
{
layerId = "C8365536-00F6-4CBD-B31D-2172D190A829";
paths = (
{
closed = 1;
nodes = (
"320 110 OFFCURVE",
"295 86 OFFCURVE",
"295 55 CURVE SMOOTH",
"295 24 OFFCURVE",
"320 0 OFFCURVE",
"351 0 CURVE SMOOTH",
"382 0 OFFCURVE",
"405 24 OFFCURVE",
"405 55 CURVE SMOOTH",
"405 86 OFFCURVE",
"382 110 OFFCURVE",
"351 110 CURVE SMOOTH"
);
},
{
closed = 1;
nodes = (
"58 680 OFFCURVE",
"33 656 OFFCURVE",
"33 625 CURVE SMOOTH",
"33 594 OFFCURVE",
"58 570 OFFCURVE",
"89 570 CURVE SMOOTH",
"120 570 OFFCURVE",
"218 594 OFFCURVE",
"218 625 CURVE SMOOTH",
"218 656 OFFCURVE",
"120 680 OFFCURVE",
"89 680 CURVE SMOOTH"
);
},
{
closed = 1;
nodes = (
"133 680 OFFCURVE",
"33 656 OFFCURVE",
"33 625 CURVE",
"33 594 OFFCURVE",
"133 570 OFFCURVE",
"164 570 CURVE SMOOTH",
"195 570 OFFCURVE",
"218 594 OFFCURVE",
"218 625 CURVE SMOOTH",
"218 656 OFFCURVE",
"195 680 OFFCURVE",
"164 680 CURVE SMOOTH"
);
},
{
closed = 1;
nodes = (
"283 680 OFFCURVE",
"258 656 OFFCURVE",
"258 625 CURVE SMOOTH",
"258 594 OFFCURVE",
"283 570 OFFCURVE",
"314 570 CURVE SMOOTH",
"345 570 OFFCURVE",
"443 594 OFFCURVE",
"443 625 CURVE SMOOTH",
"443 656 OFFCURVE",
"345 680 OFFCURVE",
"314 680 CURVE SMOOTH"
);
},
{
closed = 1;
nodes = (
"358 680 OFFCURVE",
"258 656 OFFCURVE",
"258 625 CURVE SMOOTH",
"258 594 OFFCURVE",
"358 570 OFFCURVE",
"389 570 CURVE SMOOTH",
"420 570 OFFCURVE",
"443 594 OFFCURVE",
"443 625 CURVE SMOOTH",
"443 656 OFFCURVE",
"420 680 OFFCURVE",
"389 680 CURVE SMOOTH"
);
},
{
closed = 1;
nodes = (
"323 270 OFFCURVE",
"300 168 OFFCURVE",
"300 140 CURVE SMOOTH",
"300 112 OFFCURVE",
"323 90 OFFCURVE",
"351 90 CURVE SMOOTH",
"379 90 OFFCURVE",
"400 112 OFFCURVE",
"400 140 CURVE SMOOTH",
"400 168 OFFCURVE",
"379 270 OFFCURVE",
"351 270 CURVE SMOOTH"
);
},
{
closed = 1;
nodes = (
"323 430 OFFCURVE",
"300 408 OFFCURVE",
"300 380 CURVE SMOOTH",
"300 352 OFFCURVE",
"323 250 OFFCURVE",
"351 250 CURVE SMOOTH",
"379 250 OFFCURVE",
"400 352 OFFCURVE",
"400 380 CURVE",
"400 408 OFFCURVE",
"379 430 OFFCURVE",
"351 430 CURVE SMOOTH"
);
},
{
closed = 1;
nodes = (
"323 590 OFFCURVE",
"300 488 OFFCURVE",
"300 460 CURVE SMOOTH",
"300 432 OFFCURVE",
"323 410 OFFCURVE",
"351 410 CURVE SMOOTH",
"379 410 OFFCURVE",
"400 432 OFFCURVE",
"400 460 CURVE SMOOTH",
"400 488 OFFCURVE",
"379 590 OFFCURVE",
"351 590 CURVE SMOOTH"
);
},
{
closed = 1;
nodes = (
"323 590 OFFCURVE",
"300 568 OFFCURVE",
"300 540 CURVE SMOOTH",
"300 512 OFFCURVE",
"323 410 OFFCURVE",
"351 410 CURVE SMOOTH",
"379 410 OFFCURVE",
"400 512 OFFCURVE",
"400 540 CURVE SMOOTH",
"400 568 OFFCURVE",
"377 590 OFFCURVE",
"351 590 CURVE SMOOTH"
);
},
{
closed = 1;
nodes = (
"323 430 OFFCURVE",
"300 328 OFFCURVE",
"300 300 CURVE SMOOTH",
"300 272 OFFCURVE",
"323 250 OFFCURVE",
"351 250 CURVE SMOOTH",
"379 250 OFFCURVE",
"400 272 OFFCURVE",
"400 300 CURVE SMOOTH",
"400 328 OFFCURVE",
"379 430 OFFCURVE",
"351 430 CURVE SMOOTH"
);
},
{
closed = 1;
nodes = (
"323 270 OFFCURVE",
"300 248 OFFCURVE",
"300 220 CURVE",
"300 192 OFFCURVE",
"323 90 OFFCURVE",
"351 90 CURVE SMOOTH",
"379 90 OFFCURVE",
"400 192 OFFCURVE",
"400 220 CURVE SMOOTH",
"400 248 OFFCURVE",
"379 270 OFFCURVE",
"351 270 CURVE SMOOTH"
);
},
{
closed = 1;
nodes = (
"61 590 OFFCURVE",
"38 568 OFFCURVE",
"38 540 CURVE SMOOTH",
"38 512 OFFCURVE",
"61 490 OFFCURVE",
"89 490 CURVE SMOOTH",
"117 490 OFFCURVE",
"138 512 OFFCURVE",
"138 540 CURVE SMOOTH",
"138 568 OFFCURVE",
"115 590 OFFCURVE",
"89 590 CURVE SMOOTH"
);
},
{
closed = 1;
nodes = (
"208 680 OFFCURVE",
"183 656 OFFCURVE",
"183 625 CURVE SMOOTH",
"183 594 OFFCURVE",
"208 570 OFFCURVE",
"239 570 CURVE SMOOTH",
"270 570 OFFCURVE",
"293 594 OFFCURVE",
"293 625 CURVE SMOOTH",
"293 656 OFFCURVE",
"268 680 OFFCURVE",
"239 680 CURVE SMOOTH"
);
},
{
closed = 1;
nodes = (
"581 680 OFFCURVE",
"483 656 OFFCURVE",
"483 625 CURVE SMOOTH",
"483 594 OFFCURVE",
"581 570 OFFCURVE",
"612 570 CURVE SMOOTH",
"643 570 OFFCURVE",
"668 594 OFFCURVE",
"668 625 CURVE SMOOTH",
"668 656 OFFCURVE",
"643 680 OFFCURVE",
"612 680 CURVE SMOOTH"
);
},
{
closed = 1;
nodes = (
"506 680 OFFCURVE",
"483 656 OFFCURVE",
"483 625 CURVE SMOOTH",
"483 594 OFFCURVE",
"506 570 OFFCURVE",
"537 570 CURVE SMOOTH",
"568 570 OFFCURVE",
"668 594 OFFCURVE",
"668 625 CURVE",
"668 656 OFFCURVE",
"568 680 OFFCURVE",
"537 680 CURVE SMOOTH"
);
},
{
closed = 1;
nodes = (
"586 590 OFFCURVE",
"563 568 OFFCURVE",
"563 540 CURVE SMOOTH",
"563 512 OFFCURVE",
"584 490 OFFCURVE",
"612 490 CURVE SMOOTH",
"640 490 OFFCURVE",
"663 512 OFFCURVE",
"663 540 CURVE SMOOTH",
"663 568 OFFCURVE",
"640 590 OFFCURVE",
"612 590 CURVE SMOOTH"
);
},
{
closed = 1;
nodes = (
"433 680 OFFCURVE",
"408 656 OFFCURVE",
"408 625 CURVE SMOOTH",
"408 594 OFFCURVE",
"431 570 OFFCURVE",
"462 570 CURVE SMOOTH",
"493 570 OFFCURVE",
"518 594 OFFCURVE",
"518 625 CURVE SMOOTH",
"518 656 OFFCURVE",
"493 680 OFFCURVE",
"462 680 CURVE SMOOTH"
);
}
);
width = 700;
}
);
unicode = 0054;
},
{
glyphname = U;
lastChange = "2020-12-30 10:24:38 +0000";
layers = (
{
layerId = "C8365536-00F6-4CBD-B31D-2172D190A829";
paths = (
{
closed = 1;
nodes = (
"116 680 OFFCURVE",
"91 656 OFFCURVE",
"91 625 CURVE SMOOTH",
"91 594 OFFCURVE",
"116 570 OFFCURVE",
"147 570 CURVE SMOOTH",
"178 570 OFFCURVE",
"201 594 OFFCURVE",
"201 625 CURVE SMOOTH",
"201 656 OFFCURVE",
"178 680 OFFCURVE",
"147 680 CURVE SMOOTH"
);
},
{
closed = 1;
nodes = (
"119 430 OFFCURVE",
"96 328 OFFCURVE",
"96 300 CURVE SMOOTH",
"96 272 OFFCURVE",
"119 250 OFFCURVE",
"147 250 CURVE SMOOTH",
"175 250 OFFCURVE",
"196 272 OFFCURVE",
"196 300 CURVE SMOOTH",
"196 328 OFFCURVE",
"175 430 OFFCURVE",
"147 430 CURVE SMOOTH"
);
},
{
closed = 1;
nodes = (
"119 430 OFFCURVE",
"96 408 OFFCURVE",
"96 380 CURVE SMOOTH",
"96 352 OFFCURVE",
"119 250 OFFCURVE",
"147 250 CURVE SMOOTH",
"175 250 OFFCURVE",
"196 352 OFFCURVE",
"196 380 CURVE SMOOTH",
"196 408 OFFCURVE",
"173 430 OFFCURVE",
"147 430 CURVE SMOOTH"
);
},
{
closed = 1;
nodes = (
"522 680 OFFCURVE",
"499 656 OFFCURVE",
"499 625 CURVE",
"499 594 OFFCURVE",
"522 570 OFFCURVE",
"553 570 CURVE",
"584 570 OFFCURVE",
"609 594 OFFCURVE",
"609 625 CURVE",
"609 656 OFFCURVE",
"584 680 OFFCURVE",
"553 680 CURVE"
);
},
{
closed = 1;
nodes = (
"525 430 OFFCURVE",
"504 328 OFFCURVE",
"504 300 CURVE",
"504 272 OFFCURVE",
"525 250 OFFCURVE",
"553 250 CURVE",
"581 250 OFFCURVE",
"604 272 OFFCURVE",
"604 300 CURVE",
"604 328 OFFCURVE",
"581 430 OFFCURVE",
"553 430 CURVE"
);
},
{
closed = 1;
nodes = (
"525 430 OFFCURVE",
"504 408 OFFCURVE",
"504 380 CURVE",
"504 352 OFFCURVE",
"525 250 OFFCURVE",
"553 250 CURVE",
"581 250 OFFCURVE",
"604 352 OFFCURVE",
"604 380 CURVE",
"604 408 OFFCURVE",
"581 430 OFFCURVE",
"553 430 CURVE"
);
},
{
closed = 1;
nodes = (
"119 590 OFFCURVE",
"96 488 OFFCURVE",
"96 460 CURVE SMOOTH",
"96 432 OFFCURVE",
"119 410 OFFCURVE",
"147 410 CURVE SMOOTH",
"175 410 OFFCURVE",
"196 432 OFFCURVE",
"196 460 CURVE SMOOTH",
"196 488 OFFCURVE",
"173 590 OFFCURVE",
"147 590 CURVE SMOOTH"
);
},
{
closed = 1;
nodes = (
"527 590 OFFCURVE",
"504 488 OFFCURVE",
"504 460 CURVE",
"504 432 OFFCURVE",
"525 410 OFFCURVE",
"553 410 CURVE",
"581 410 OFFCURVE",
"604 432 OFFCURVE",
"604 460 CURVE",
"604 488 OFFCURVE",
"581 590 OFFCURVE",
"553 590 CURVE"
);
},
{
closed = 1;
nodes = (
"119 590 OFFCURVE",
"96 568 OFFCURVE",
"96 540 CURVE SMOOTH",
"96 512 OFFCURVE",
"119 410 OFFCURVE",
"147 410 CURVE SMOOTH",
"175 410 OFFCURVE",
"196 512 OFFCURVE",
"196 540 CURVE SMOOTH",
"196 568 OFFCURVE",
"173 590 OFFCURVE",
"147 590 CURVE SMOOTH"
);
},
{
closed = 1;
nodes = (
"527 590 OFFCURVE",
"504 568 OFFCURVE",
"504 540 CURVE",
"504 512 OFFCURVE",
"525 410 OFFCURVE",
"553 410 CURVE",
"581 410 OFFCURVE",
"604 512 OFFCURVE",
"604 540 CURVE",
"604 568 OFFCURVE",
"581 590 OFFCURVE",
"553 590 CURVE"
);
},
{
closed = 1;
nodes = (
"193 190 OFFCURVE",
"158 188 OFFCURVE",
"138 164 CURVE SMOOTH",
"118 140 OFFCURVE",
"122 106 OFFCURVE",
"146 86 CURVE SMOOTH",
"169 66 OFFCURVE",
"260 21 OFFCURVE",
"280 45 CURVE SMOOTH",
"300 69 OFFCURVE",
"240 150 OFFCURVE",
"216 170 CURVE SMOOTH"
);
},
{
closed = 1;
nodes = (
"279 118 OFFCURVE",
"188 163 OFFCURVE",
"168 139 CURVE SMOOTH",
"148 115 OFFCURVE",
"208 34 OFFCURVE",
"231 14 CURVE SMOOTH",
"255 -6 OFFCURVE",
"290 -4 OFFCURVE",
"310 20 CURVE SMOOTH",
"330 44 OFFCURVE",
"326 78 OFFCURVE",
"302 98 CURVE SMOOTH"
);
},
{
closed = 1;
nodes = (
"394 78 OFFCURVE",
"390 44 OFFCURVE",
"410 20 CURVE SMOOTH",
"430 -4 OFFCURVE",
"465 -6 OFFCURVE",
"488 14 CURVE SMOOTH",
"512 34 OFFCURVE",
"572 115 OFFCURVE",
"552 139 CURVE SMOOTH",
"532 163 OFFCURVE",
"441 118 OFFCURVE",
"418 98 CURVE SMOOTH"
);
},
{
closed = 1;
nodes = (
"480 150 OFFCURVE",
"420 69 OFFCURVE",
"440 45 CURVE SMOOTH",
"460 21 OFFCURVE",
"551 66 OFFCURVE",
"574 86 CURVE SMOOTH",
"598 106 OFFCURVE",
"602 140 OFFCURVE",
"582 164 CURVE SMOOTH",
"562 188 OFFCURVE",
"527 190 OFFCURVE",
"504 170 CURVE SMOOTH"
);
},
{
closed = 1;
nodes = (
"333 110 OFFCURVE",
"310 86 OFFCURVE",
"310 55 CURVE",
"310 24 OFFCURVE",
"333 0 OFFCURVE",
"364 0 CURVE",
"395 0 OFFCURVE",
"420 24 OFFCURVE",
"420 55 CURVE",
"420 86 OFFCURVE",
"395 110 OFFCURVE",
"364 110 CURVE"
);
},
{
closed = 1;
nodes = (
"116 270 OFFCURVE",
"93 246 OFFCURVE",
"93 215 CURVE",
"93 184 OFFCURVE",
"116 160 OFFCURVE",
"147 160 CURVE",
"178 160 OFFCURVE",
"203 184 OFFCURVE",
"203 215 CURVE",
"203 246 OFFCURVE",
"178 270 OFFCURVE",
"147 270 CURVE"
);
},
{
closed = 1;
nodes = (
"522 270 OFFCURVE",
"499 246 OFFCURVE",
"499 215 CURVE",
"499 184 OFFCURVE",
"522 160 OFFCURVE",
"553 160 CURVE",
"584 160 OFFCURVE",
"609 184 OFFCURVE",
"609 215 CURVE",
"609 246 OFFCURVE",
"584 270 OFFCURVE",
"553 270 CURVE"
);
}
);
width = 700;
}
);
unicode = 0055;
},
{
glyphname = V;
lastChange = "2020-12-30 10:49:16 +0000";
layers = (
{
layerId = "C8365536-00F6-4CBD-B31D-2172D190A829";
paths = (
{
closed = 1;
nodes = (
"104 680 OFFCURVE",
"79 656 OFFCURVE",
"79 625 CURVE SMOOTH",
"79 594 OFFCURVE",
"104 570 OFFCURVE",
"135 570 CURVE SMOOTH",
"166 570 OFFCURVE",
"264 595 OFFCURVE",
"264 625 CURVE SMOOTH",
"264 655 OFFCURVE",
"166 680 OFFCURVE",
"135 680 CURVE SMOOTH"
);
},
{
closed = 1;
nodes = (
"184 272 OFFCURVE",
"161 250 OFFCURVE",
"161 222 CURVE SMOOTH",
"161 194 OFFCURVE",
"184 172 OFFCURVE",
"212 172 CURVE SMOOTH",
"240 172 OFFCURVE",
"261 194 OFFCURVE",
"261 222 CURVE SMOOTH",
"261 250 OFFCURVE",
"240 272 OFFCURVE",
"212 272 CURVE SMOOTH"
);
},
{
closed = 1;
nodes = (
"107 510 OFFCURVE",
"84 408 OFFCURVE",
"84 380 CURVE SMOOTH",
"84 352 OFFCURVE",
"107 330 OFFCURVE",
"135 330 CURVE SMOOTH",
"163 330 OFFCURVE",
"184 352 OFFCURVE",
"184 380 CURVE SMOOTH",
"184 408 OFFCURVE",
"161 510 OFFCURVE",
"135 510 CURVE SMOOTH"
);
},
{
closed = 1;
nodes = (
"107 510 OFFCURVE",
"84 488 OFFCURVE",
"84 460 CURVE SMOOTH",
"84 432 OFFCURVE",
"107 410 OFFCURVE",
"135 410 CURVE SMOOTH",
"163 410 OFFCURVE",
"184 432 OFFCURVE",
"184 460 CURVE SMOOTH",
"184 488 OFFCURVE",
"161 510 OFFCURVE",
"135 510 CURVE SMOOTH"
);
},
{
closed = 1;
nodes = (
"107 590 OFFCURVE",
"84 568 OFFCURVE",
"84 540 CURVE SMOOTH",
"84 512 OFFCURVE",
"107 410 OFFCURVE",
"135 410 CURVE SMOOTH",
"163 410 OFFCURVE",
"184 512 OFFCURVE",
"184 540 CURVE SMOOTH",
"184 568 OFFCURVE",
"161 590 OFFCURVE",
"135 590 CURVE SMOOTH"
);
},
{
closed = 1;
nodes = (
"263 110 OFFCURVE",
"238 86 OFFCURVE",
"238 55 CURVE SMOOTH",
"238 24 OFFCURVE",
"263 0 OFFCURVE",
"294 0 CURVE SMOOTH",
"325 0 OFFCURVE",
"423 24 OFFCURVE",
"423 55 CURVE SMOOTH",
"423 86 OFFCURVE",
"325 110 OFFCURVE",
"294 110 CURVE SMOOTH"
);
},
{
closed = 1;
nodes = (
"320 110 OFFCURVE",
"295 86 OFFCURVE",
"295 55 CURVE SMOOTH",
"295 24 OFFCURVE",
"320 0 OFFCURVE",
"351 0 CURVE SMOOTH",
"382 0 OFFCURVE",
"405 24 OFFCURVE",
"405 55 CURVE SMOOTH",
"405 86 OFFCURVE",
"382 110 OFFCURVE",
"351 110 CURVE SMOOTH"
);
},
{
closed = 1;
nodes = (
"534 680 OFFCURVE",
"436 656 OFFCURVE",
"436 625 CURVE SMOOTH",
"436 594 OFFCURVE",
"534 570 OFFCURVE",
"565 570 CURVE SMOOTH",
"596 570 OFFCURVE",
"621 594 OFFCURVE",
"621 625 CURVE SMOOTH",
"621 656 OFFCURVE",
"596 680 OFFCURVE",
"565 680 CURVE SMOOTH"
);
},
{
closed = 1;
nodes = (
"539 510 OFFCURVE",
"516 408 OFFCURVE",
"516 380 CURVE SMOOTH",
"516 352 OFFCURVE",
"537 330 OFFCURVE",
"565 330 CURVE SMOOTH",
"593 330 OFFCURVE",
"616 352 OFFCURVE",
"616 380 CURVE SMOOTH",
"616 408 OFFCURVE",
"593 510 OFFCURVE",
"565 510 CURVE SMOOTH"
);
},
{
closed = 1;
nodes = (
"539 510 OFFCURVE",
"516 488 OFFCURVE",
"516 460 CURVE SMOOTH",
"516 432 OFFCURVE",
"537 410 OFFCURVE",
"565 410 CURVE SMOOTH",
"593 410 OFFCURVE",
"616 432 OFFCURVE",
"616 460 CURVE SMOOTH",
"616 488 OFFCURVE",
"593 510 OFFCURVE",
"565 510 CURVE SMOOTH"
);
},
{
closed = 1;
nodes = (
"539 590 OFFCURVE",
"516 568 OFFCURVE",
"516 540 CURVE SMOOTH",
"516 512 OFFCURVE",
"537 410 OFFCURVE",
"565 410 CURVE SMOOTH",
"593 410 OFFCURVE",
"616 512 OFFCURVE",
"616 540 CURVE SMOOTH",
"616 568 OFFCURVE",
"593 590 OFFCURVE",
"565 590 CURVE SMOOTH"
);
},
{
closed = 1;
nodes = (
"375 110 OFFCURVE",
"277 86 OFFCURVE",
"277 55 CURVE SMOOTH",
"277 24 OFFCURVE",
"375 0 OFFCURVE",
"406 0 CURVE SMOOTH",
"437 0 OFFCURVE",
"462 24 OFFCURVE",
"462 55 CURVE SMOOTH",
"462 86 OFFCURVE",
"437 110 OFFCURVE",
"406 110 CURVE SMOOTH"
);
},
{
closed = 1;
nodes = (
"179 680 OFFCURVE",
"79 656 OFFCURVE",
"79 625 CURVE",
"79 594 OFFCURVE",
"179 570 OFFCURVE",
"209 570 CURVE",
"239 570 OFFCURVE",
"264 595 OFFCURVE",
"264 625 CURVE",
"264 655 OFFCURVE",
"239 680 OFFCURVE",
"209 680 CURVE"
);
},
{
closed = 1;
nodes = (
"461 680 OFFCURVE",
"436 656 OFFCURVE",
"436 625 CURVE",
"436 594 OFFCURVE",
"461 570 OFFCURVE",
"491 570 CURVE",
"521 570 OFFCURVE",
"621 594 OFFCURVE",
"621 625 CURVE",
"621 656 OFFCURVE",
"521 680 OFFCURVE",
"491 680 CURVE"
);
},
{
closed = 1;
nodes = (
"188 362 OFFCURVE",
"154 371 OFFCURVE",
"128 356 CURVE",
"102 341 OFFCURVE",
"93 306 OFFCURVE",
"108 280 CURVE",
"123 254 OFFCURVE",
"195 181 OFFCURVE",
"221 195 CURVE",
"247 210 OFFCURVE",
"218 309 OFFCURVE",
"204 335 CURVE"
);
},
{
closed = 1;
nodes = (
"296 186 OFFCURVE",
"225 260 OFFCURVE",
"199 245 CURVE",
"173 230 OFFCURVE",
"201 131 OFFCURVE",
"216 105 CURVE",
"232 79 OFFCURVE",
"266 70 OFFCURVE",
"292 84 CURVE",
"318 99 OFFCURVE",
"327 134 OFFCURVE",
"312 160 CURVE"
);
},
{
closed = 1;
nodes = (
"454 272 OFFCURVE",
"433 250 OFFCURVE",
"433 222 CURVE SMOOTH",
"433 194 OFFCURVE",
"454 172 OFFCURVE",
"482 172 CURVE SMOOTH",
"510 172 OFFCURVE",
"533 194 OFFCURVE",
"533 222 CURVE SMOOTH",
"533 250 OFFCURVE",
"510 272 OFFCURVE",
"482 272 CURVE SMOOTH"
);
},
{
closed = 1;
nodes = (
"476 309 OFFCURVE",
"447 210 OFFCURVE",
"473 195 CURVE",
"499 181 OFFCURVE",
"571 254 OFFCURVE",
"586 280 CURVE",
"601 306 OFFCURVE",
"592 341 OFFCURVE",
"566 356 CURVE",
"540 371 OFFCURVE",
"506 362 OFFCURVE",
"490 335 CURVE"
);
},
{
closed = 1;
nodes = (
"367 134 OFFCURVE",
"376 99 OFFCURVE",
"402 84 CURVE",
"428 70 OFFCURVE",
"462 79 OFFCURVE",
"478 105 CURVE",
"493 131 OFFCURVE",
"521 230 OFFCURVE",
"495 245 CURVE",
"469 260 OFFCURVE",
"398 186 OFFCURVE",
"382 160 CURVE"
);
}
);
width = 700;
}
);
unicode = 0056;
},
{
glyphname = W;
lastChange = "2020-12-30 10:35:32 +0000";
layers = (
{
guideLines = (
{
position = "{123, 437}";
}
);
layerId = "C8365536-00F6-4CBD-B31D-2172D190A829";
paths = (
{
closed = 1;
nodes = (
"50 680 OFFCURVE",
"25 656 OFFCURVE",
"25 625 CURVE SMOOTH",
"25 594 OFFCURVE",
"50 570 OFFCURVE",
"81 570 CURVE SMOOTH",
"112 570 OFFCURVE",
"210 594 OFFCURVE",
"210 625 CURVE SMOOTH",
"210 656 OFFCURVE",
"112 680 OFFCURVE",
"81 680 CURVE SMOOTH"
);
},
{
closed = 1;
nodes = (
"170 110 OFFCURVE",
"147 86 OFFCURVE",
"147 55 CURVE SMOOTH",
"147 24 OFFCURVE",
"170 0 OFFCURVE",
"201 0 CURVE SMOOTH",
"232 0 OFFCURVE",
"257 24 OFFCURVE",
"257 55 CURVE SMOOTH",
"257 86 OFFCURVE",
"232 110 OFFCURVE",
"201 110 CURVE SMOOTH"
);
},
{
closed = 1;
nodes = (
"319 680 OFFCURVE",
"294 656 OFFCURVE",
"294 625 CURVE SMOOTH",
"294 594 OFFCURVE",
"319 570 OFFCURVE",
"350 570 CURVE SMOOTH",
"381 570 OFFCURVE",
"404 594 OFFCURVE",
"404 625 CURVE SMOOTH",
"404 656 OFFCURVE",
"381 680 OFFCURVE",
"350 680 CURVE SMOOTH"
);
},
{
closed = 1;
nodes = (
"588 680 OFFCURVE",
"490 656 OFFCURVE",
"490 625 CURVE SMOOTH",
"490 594 OFFCURVE",
"588 570 OFFCURVE",
"619 570 CURVE SMOOTH",
"650 570 OFFCURVE",
"675 594 OFFCURVE",
"675 625 CURVE SMOOTH",
"675 656 OFFCURVE",
"650 680 OFFCURVE",
"619 680 CURVE SMOOTH"
);
},
{
closed = 1;
nodes = (
"468 110 OFFCURVE",
"445 86 OFFCURVE",
"445 55 CURVE SMOOTH",
"445 24 OFFCURVE",
"468 0 OFFCURVE",
"499 0 CURVE SMOOTH",
"530 0 OFFCURVE",
"555 24 OFFCURVE",
"555 55 CURVE",
"555 86 OFFCURVE",
"530 110 OFFCURVE",
"499 110 CURVE SMOOTH"
);
},
{
closed = 1;
nodes = (
"53 590 OFFCURVE",
"30 568 OFFCURVE",
"30 540 CURVE",
"30 512 OFFCURVE",
"53 410 OFFCURVE",
"81 410 CURVE SMOOTH",
"109 410 OFFCURVE",
"130 512 OFFCURVE",
"130 540 CURVE SMOOTH",
"130 568 OFFCURVE",
"107 590 OFFCURVE",
"81 590 CURVE SMOOTH"
);
},
{
closed = 1;
nodes = (
"322 590 OFFCURVE",
"299 568 OFFCURVE",
"299 540 CURVE SMOOTH",
"299 512 OFFCURVE",
"322 410 OFFCURVE",
"350 410 CURVE SMOOTH",
"378 410 OFFCURVE",
"399 512 OFFCURVE",
"399 540 CURVE SMOOTH",
"399 568 OFFCURVE",
"376 590 OFFCURVE",
"350 590 CURVE SMOOTH"
);
},
{
closed = 1;
nodes = (
"591 590 OFFCURVE",
"568 568 OFFCURVE",
"568 540 CURVE SMOOTH",
"568 512 OFFCURVE",
"591 410 OFFCURVE",
"619 410 CURVE SMOOTH",
"647 410 OFFCURVE",
"668 512 OFFCURVE",
"668 540 CURVE SMOOTH",
"668 568 OFFCURVE",
"645 590 OFFCURVE",
"619 590 CURVE SMOOTH"
);
},
{
closed = 1;
nodes = (
"53 590 OFFCURVE",
"30 488 OFFCURVE",
"30 460 CURVE SMOOTH",
"30 432 OFFCURVE",
"53 410 OFFCURVE",
"81 410 CURVE SMOOTH",
"109 410 OFFCURVE",
"130 432 OFFCURVE",
"130 460 CURVE SMOOTH",
"130 488 OFFCURVE",
"107 590 OFFCURVE",
"81 590 CURVE SMOOTH"
);
},
{
closed = 1;
nodes = (
"322 590 OFFCURVE",
"299 488 OFFCURVE",
"299 460 CURVE SMOOTH",
"299 432 OFFCURVE",
"322 410 OFFCURVE",
"350 410 CURVE SMOOTH",
"378 410 OFFCURVE",
"399 432 OFFCURVE",
"399 460 CURVE SMOOTH",
"399 488 OFFCURVE",
"376 590 OFFCURVE",
"350 590 CURVE SMOOTH"
);
},
{
closed = 1;
nodes = (
"591 590 OFFCURVE",
"568 488 OFFCURVE",
"568 460 CURVE SMOOTH",
"568 432 OFFCURVE",
"591 410 OFFCURVE",
"619 410 CURVE SMOOTH",
"647 410 OFFCURVE",
"668 432 OFFCURVE",
"668 460 CURVE SMOOTH",
"668 488 OFFCURVE",
"645 590 OFFCURVE",
"619 590 CURVE SMOOTH"
);
},
{
closed = 1;
nodes = (
"125 680 OFFCURVE",
"25 656 OFFCURVE",
"25 625 CURVE SMOOTH",
"25 594 OFFCURVE",
"125 570 OFFCURVE",
"156 570 CURVE SMOOTH",
"187 570 OFFCURVE",
"210 594 OFFCURVE",
"210 625 CURVE SMOOTH",
"210 656 OFFCURVE",
"187 680 OFFCURVE",
"156 680 CURVE SMOOTH"
);
},
{
closed = 1;
nodes = (
"513 680 OFFCURVE",
"490 656 OFFCURVE",
"490 625 CURVE SMOOTH",
"490 594 OFFCURVE",
"513 570 OFFCURVE",
"544 570 CURVE SMOOTH",
"575 570 OFFCURVE",
"675 594 OFFCURVE",
"675 625 CURVE SMOOTH",
"675 656 OFFCURVE",
"575 680 OFFCURVE",
"544 680 CURVE SMOOTH"
);
},
{
closed = 1;
nodes = (
"67 433 OFFCURVE",
"48 406 OFFCURVE",
"52 378 CURVE SMOOTH",
"56 351 OFFCURVE",
"98 254 OFFCURVE",
"126 260 CURVE SMOOTH",
"153 266 OFFCURVE",
"157 368 OFFCURVE",
"151 396 CURVE SMOOTH",
"145 424 OFFCURVE",
"120 441 OFFCURVE",
"94 437 CURVE SMOOTH"
);
},
{
closed = 1;
nodes = (
"67 433 OFFCURVE",
"61 328 OFFCURVE",
"67 300 CURVE SMOOTH",
"73 273 OFFCURVE",
"98 254 OFFCURVE",
"126 260 CURVE SMOOTH",
"153 266 OFFCURVE",
"170 290 OFFCURVE",
"166 318 CURVE SMOOTH",
"162 345 OFFCURVE",
"120 441 OFFCURVE",
"94 437 CURVE SMOOTH"
);
},
{
closed = 1;
nodes = (
"106 271 OFFCURVE",
"87 244 OFFCURVE",
"91 216 CURVE SMOOTH",
"95 189 OFFCURVE",
"137 92 OFFCURVE",
"165 98 CURVE SMOOTH",
"192 104 OFFCURVE",
"196 206 OFFCURVE",
"190 234 CURVE SMOOTH",
"184 262 OFFCURVE",
"159 279 OFFCURVE",
"133 275 CURVE SMOOTH"
);
},
{
closed = 1;
nodes = (
"106 271 OFFCURVE",
"100 166 OFFCURVE",
"106 138 CURVE SMOOTH",
"112 111 OFFCURVE",
"137 92 OFFCURVE",
"165 98 CURVE SMOOTH",
"192 104 OFFCURVE",
"209 128 OFFCURVE",
"204 156 CURVE SMOOTH",
"199 183 OFFCURVE",
"159 279 OFFCURVE",
"133 275 CURVE SMOOTH"
);
},
{
closed = 1;
nodes = (
"578 441 OFFCURVE",
"553 424 OFFCURVE",
"547 396 CURVE SMOOTH",
"541 368 OFFCURVE",
"545 266 OFFCURVE",
"572 260 CURVE SMOOTH",
"600 254 OFFCURVE",
"642 351 OFFCURVE",
"646 378 CURVE SMOOTH",
"650 406 OFFCURVE",
"631 433 OFFCURVE",
"604 437 CURVE SMOOTH"
);
},
{
closed = 1;
nodes = (
"578 441 OFFCURVE",
"536 345 OFFCURVE",
"532 318 CURVE SMOOTH",
"528 290 OFFCURVE",
"545 266 OFFCURVE",
"572 260 CURVE SMOOTH",
"600 254 OFFCURVE",
"625 273 OFFCURVE",
"631 300 CURVE SMOOTH",
"637 328 OFFCURVE",
"631 433 OFFCURVE",
"604 437 CURVE SMOOTH"
);
},
{
closed = 1;
nodes = (
"539 279 OFFCURVE",
"514 262 OFFCURVE",
"508 234 CURVE SMOOTH",
"502 206 OFFCURVE",
"506 104 OFFCURVE",
"533 98 CURVE SMOOTH",
"561 92 OFFCURVE",
"603 189 OFFCURVE",
"607 216 CURVE SMOOTH",
"611 244 OFFCURVE",
"592 271 OFFCURVE",
"565 275 CURVE SMOOTH"
);
},
{
closed = 1;
nodes = (
"539 279 OFFCURVE",
"499 183 OFFCURVE",
"494 156 CURVE SMOOTH",
"489 128 OFFCURVE",
"506 104 OFFCURVE",
"533 98 CURVE SMOOTH",
"561 92 OFFCURVE",
"586 111 OFFCURVE",
"592 138 CURVE SMOOTH",
"598 166 OFFCURVE",
"592 271 OFFCURVE",
"565 275 CURVE SMOOTH"
);
},
{
closed = 1;
nodes = (
"280 441 OFFCURVE",
"255 424 OFFCURVE",
"249 396 CURVE SMOOTH",
"243 368 OFFCURVE",
"247 266 OFFCURVE",
"274 260 CURVE SMOOTH",
"302 254 OFFCURVE",
"344 351 OFFCURVE",
"348 378 CURVE SMOOTH",
"352 406 OFFCURVE",
"333 433 OFFCURVE",
"306 437 CURVE SMOOTH"
);
},
{
closed = 1;
nodes = (
"280 441 OFFCURVE",
"238 345 OFFCURVE",
"234 318 CURVE SMOOTH",
"230 290 OFFCURVE",
"247 266 OFFCURVE",
"274 260 CURVE SMOOTH",
"302 254 OFFCURVE",
"327 273 OFFCURVE",
"333 300 CURVE SMOOTH",
"339 328 OFFCURVE",
"333 433 OFFCURVE",
"306 437 CURVE SMOOTH"
);
},
{
closed = 1;
nodes = (
"241 279 OFFCURVE",
"216 262 OFFCURVE",
"210 234 CURVE SMOOTH",
"204 206 OFFCURVE",
"208 104 OFFCURVE",
"235 98 CURVE SMOOTH",
"263 92 OFFCURVE",
"305 189 OFFCURVE",
"309 216 CURVE SMOOTH",
"313 244 OFFCURVE",
"294 271 OFFCURVE",
"267 275 CURVE SMOOTH"
);
},
{
closed = 1;
nodes = (
"241 279 OFFCURVE",
"201 183 OFFCURVE",
"196 156 CURVE SMOOTH",
"191 128 OFFCURVE",
"208 104 OFFCURVE",
"235 98 CURVE SMOOTH",
"263 92 OFFCURVE",
"288 111 OFFCURVE",
"294 138 CURVE SMOOTH",
"300 166 OFFCURVE",
"294 271 OFFCURVE",
"267 275 CURVE SMOOTH"
);
},
{
closed = 1;
nodes = (
"364 432 OFFCURVE",
"345 405 OFFCURVE",
"349 377 CURVE SMOOTH",
"353 350 OFFCURVE",
"395 253 OFFCURVE",
"423 259 CURVE SMOOTH",
"450 265 OFFCURVE",
"454 367 OFFCURVE",
"448 395 CURVE SMOOTH",
"442 423 OFFCURVE",
"417 440 OFFCURVE",
"391 436 CURVE SMOOTH"
);
},
{
closed = 1;
nodes = (
"364 432 OFFCURVE",
"358 327 OFFCURVE",
"364 299 CURVE SMOOTH",
"370 272 OFFCURVE",
"395 253 OFFCURVE",
"423 259 CURVE SMOOTH",
"450 265 OFFCURVE",
"467 289 OFFCURVE",
"463 317 CURVE SMOOTH",
"459 344 OFFCURVE",
"417 440 OFFCURVE",
"391 436 CURVE SMOOTH"
);
},
{
closed = 1;
nodes = (
"403 270 OFFCURVE",
"384 243 OFFCURVE",
"388 215 CURVE SMOOTH",
"392 188 OFFCURVE",
"434 91 OFFCURVE",
"462 97 CURVE SMOOTH",
"489 103 OFFCURVE",
"493 205 OFFCURVE",
"487 233 CURVE SMOOTH",
"481 261 OFFCURVE",
"456 278 OFFCURVE",
"430 274 CURVE SMOOTH"
);
},
{
closed = 1;
nodes = (
"403 270 OFFCURVE",
"397 165 OFFCURVE",
"403 137 CURVE SMOOTH",
"409 110 OFFCURVE",
"434 91 OFFCURVE",
"462 97 CURVE SMOOTH",
"489 103 OFFCURVE",
"506 127 OFFCURVE",
"501 155 CURVE SMOOTH",
"496 182 OFFCURVE",
"456 278 OFFCURVE",
"430 274 CURVE SMOOTH"
);
}
);
width = 700;
}
);
unicode = 0057;
},
{
glyphname = X;
lastChange = "2023-02-13 09:05:37 +0000";
layers = (
{
layerId = "C8365536-00F6-4CBD-B31D-2172D190A829";
paths = (
{
closed = 1;
nodes = (
"102 680 OFFCURVE",
"77 656 OFFCURVE",
"77 625 CURVE SMOOTH",
"77 594 OFFCURVE",
"102 570 OFFCURVE",
"133 570 CURVE SMOOTH",
"164 570 OFFCURVE",
"262 594 OFFCURVE",
"262 625 CURVE SMOOTH",
"262 656 OFFCURVE",
"164 680 OFFCURVE",
"133 680 CURVE SMOOTH"
);
},
{
closed = 1;
nodes = (
"527 680 OFFCURVE",
"429 656 OFFCURVE",
"429 625 CURVE SMOOTH",
"429 594 OFFCURVE",
"527 570 OFFCURVE",
"558 570 CURVE SMOOTH",
"589 570 OFFCURVE",
"614 594 OFFCURVE",
"614 625 CURVE SMOOTH",
"614 656 OFFCURVE",
"589 680 OFFCURVE",
"558 680 CURVE SMOOTH"
);
},
{
closed = 1;
nodes = (
"164 0 OFFCURVE",
"262 24 OFFCURVE",
"262 55 CURVE SMOOTH",
"262 86 OFFCURVE",
"164 110 OFFCURVE",
"133 110 CURVE SMOOTH",
"102 110 OFFCURVE",
"77 86 OFFCURVE",
"77 55 CURVE SMOOTH",
"77 24 OFFCURVE",
"102 0 OFFCURVE",
"133 0 CURVE SMOOTH"
);
},
{
closed = 1;
nodes = (
"589 0 OFFCURVE",
"614 24 OFFCURVE",
"614 55 CURVE SMOOTH",
"614 86 OFFCURVE",
"589 110 OFFCURVE",
"558 110 CURVE SMOOTH",
"527 110 OFFCURVE",
"429 86 OFFCURVE",
"429 55 CURVE SMOOTH",
"429 24 OFFCURVE",
"527 0 OFFCURVE",
"558 0 CURVE SMOOTH"
);
},
{
closed = 1;
nodes = (
"239 0 OFFCURVE",
"262 24 OFFCURVE",
"262 55 CURVE SMOOTH",
"262 86 OFFCURVE",
"239 110 OFFCURVE",
"208 110 CURVE SMOOTH",
"177 110 OFFCURVE",
"77 86 OFFCURVE",
"77 55 CURVE SMOOTH",
"77 24 OFFCURVE",
"177 0 OFFCURVE",
"208 0 CURVE SMOOTH"
);
},
{
closed = 1;
nodes = (
"514 0 OFFCURVE",
"614 24 OFFCURVE",
"614 55 CURVE SMOOTH",
"614 86 OFFCURVE",
"514 110 OFFCURVE",
"483 110 CURVE SMOOTH",
"452 110 OFFCURVE",
"429 86 OFFCURVE",
"429 55 CURVE SMOOTH",
"429 24 OFFCURVE",
"452 0 OFFCURVE",
"483 0 CURVE SMOOTH"
);
},
{
closed = 1;
nodes = (
"177 680 OFFCURVE",
"77 656 OFFCURVE",
"77 625 CURVE SMOOTH",
"77 594 OFFCURVE",
"177 570 OFFCURVE",
"208 570 CURVE SMOOTH",
"239 570 OFFCURVE",
"262 594 OFFCURVE",
"262 625 CURVE SMOOTH",
"262 656 OFFCURVE",
"239 680 OFFCURVE",
"208 680 CURVE SMOOTH"
);
},
{
closed = 1;
nodes = (
"452 680 OFFCURVE",
"429 656 OFFCURVE",
"429 625 CURVE SMOOTH",
"429 594 OFFCURVE",
"452 570 OFFCURVE",
"483 570 CURVE SMOOTH",
"514 570 OFFCURVE",
"614 594 OFFCURVE",
"614 625 CURVE SMOOTH",
"614 656 OFFCURVE",
"514 680 OFFCURVE",
"483 680 CURVE SMOOTH"
);
},
{
closed = 1;
nodes = (
"196 540 OFFCURVE",
"136 599 OFFCURVE",
"112 585 CURVE SMOOTH",
"88 571 OFFCURVE",
"109 490 OFFCURVE",
"123 466 CURVE SMOOTH",
"137 442 OFFCURVE",
"168 433 OFFCURVE",
"192 447 CURVE SMOOTH",
"216 461 OFFCURVE",
"224 492 OFFCURVE",
"210 516 CURVE SMOOTH"
);
},
{
closed = 1;
nodes = (
"167 590 OFFCURVE",
"136 599 OFFCURVE",
"112 585 CURVE SMOOTH",
"88 571 OFFCURVE",
"80 540 OFFCURVE",
"94 516 CURVE SMOOTH",
"108 492 OFFCURVE",
"168 433 OFFCURVE",
"192 447 CURVE SMOOTH",
"216 461 OFFCURVE",
"195 542 OFFCURVE",
"181 566 CURVE SMOOTH"
);
},
{
closed = 1;
nodes = (
"266 419 OFFCURVE",
"206 478 OFFCURVE",
"182 464 CURVE SMOOTH",
"158 450 OFFCURVE",
"179 369 OFFCURVE",
"193 345 CURVE SMOOTH",
"207 321 OFFCURVE",
"238 312 OFFCURVE",
"262 326 CURVE SMOOTH",
"286 340 OFFCURVE",
"294 371 OFFCURVE",
"280 395 CURVE SMOOTH"
);
},
{
closed = 1;
nodes = (
"237 469 OFFCURVE",
"206 478 OFFCURVE",
"182 464 CURVE SMOOTH",
"158 450 OFFCURVE",
"150 419 OFFCURVE",
"164 395 CURVE SMOOTH",
"178 371 OFFCURVE",
"238 312 OFFCURVE",
"262 326 CURVE SMOOTH",
"286 340 OFFCURVE",
"265 421 OFFCURVE",
"251 445 CURVE SMOOTH"
);
},
{
closed = 1;
nodes = (
"475 492 OFFCURVE",
"483 461 OFFCURVE",
"507 447 CURVE SMOOTH",
"531 433 OFFCURVE",
"562 442 OFFCURVE",
"576 466 CURVE SMOOTH",
"590 490 OFFCURVE",
"611 571 OFFCURVE",
"587 585 CURVE SMOOTH",
"563 599 OFFCURVE",
"503 540 OFFCURVE",
"489 516 CURVE SMOOTH"
);
},
{
closed = 1;
nodes = (
"504 542 OFFCURVE",
"483 461 OFFCURVE",
"507 447 CURVE SMOOTH",
"531 433 OFFCURVE",
"591 492 OFFCURVE",
"605 516 CURVE SMOOTH",
"619 540 OFFCURVE",
"611 571 OFFCURVE",
"587 585 CURVE SMOOTH",
"563 599 OFFCURVE",
"532 590 OFFCURVE",
"518 566 CURVE SMOOTH"
);
},
{
closed = 1;
nodes = (
"405 371 OFFCURVE",
"413 340 OFFCURVE",
"437 326 CURVE SMOOTH",
"461 312 OFFCURVE",
"492 321 OFFCURVE",
"506 345 CURVE SMOOTH",
"520 369 OFFCURVE",
"541 450 OFFCURVE",
"517 464 CURVE SMOOTH",
"493 478 OFFCURVE",
"433 419 OFFCURVE",
"419 395 CURVE SMOOTH"
);
},
{
closed = 1;
nodes = (
"434 421 OFFCURVE",
"413 340 OFFCURVE",
"437 326 CURVE SMOOTH",
"461 312 OFFCURVE",
"521 371 OFFCURVE",
"535 395 CURVE SMOOTH",
"549 419 OFFCURVE",
"541 450 OFFCURVE",
"517 464 CURVE SMOOTH",
"493 478 OFFCURVE",
"462 469 OFFCURVE",
"448 445 CURVE SMOOTH"
);
},
{
closed = 1;
nodes = (
"224 187 OFFCURVE",
"216 218 OFFCURVE",
"192 232 CURVE SMOOTH",
"168 246 OFFCURVE",
"137 237 OFFCURVE",
"123 213 CURVE SMOOTH",
"109 189 OFFCURVE",
"88 108 OFFCURVE",
"112 94 CURVE SMOOTH",
"136 80 OFFCURVE",
"196 139 OFFCURVE",
"210 163 CURVE SMOOTH"
);
},
{
closed = 1;
nodes = (
"195 137 OFFCURVE",
"216 218 OFFCURVE",
"192 232 CURVE SMOOTH",
"168 246 OFFCURVE",
"108 187 OFFCURVE",
"94 163 CURVE SMOOTH",
"80 139 OFFCURVE",
"88 108 OFFCURVE",
"112 94 CURVE SMOOTH",
"136 80 OFFCURVE",
"167 89 OFFCURVE",
"181 113 CURVE SMOOTH"
);
},
{
closed = 1;
nodes = (
"294 308 OFFCURVE",
"286 339 OFFCURVE",
"262 353 CURVE SMOOTH",
"238 367 OFFCURVE",
"207 358 OFFCURVE",
"193 334 CURVE SMOOTH",
"179 310 OFFCURVE",
"158 229 OFFCURVE",
"182 215 CURVE SMOOTH",
"206 201 OFFCURVE",
"266 260 OFFCURVE",
"280 284 CURVE SMOOTH"
);
},
{
closed = 1;
nodes = (
"265 258 OFFCURVE",
"286 339 OFFCURVE",
"262 353 CURVE SMOOTH",
"238 367 OFFCURVE",
"178 308 OFFCURVE",
"164 284 CURVE SMOOTH",
"150 260 OFFCURVE",
"158 229 OFFCURVE",
"182 215 CURVE SMOOTH",
"206 201 OFFCURVE",
"237 210 OFFCURVE",
"251 234 CURVE SMOOTH"
);
},
{
closed = 1;
nodes = (
"503 139 OFFCURVE",
"563 80 OFFCURVE",
"587 94 CURVE SMOOTH",
"611 108 OFFCURVE",
"590 189 OFFCURVE",
"576 213 CURVE SMOOTH",
"562 237 OFFCURVE",
"531 246 OFFCURVE",
"507 232 CURVE SMOOTH",
"483 218 OFFCURVE",
"475 187 OFFCURVE",
"489 163 CURVE SMOOTH"
);
},
{
closed = 1;
nodes = (
"532 89 OFFCURVE",
"563 80 OFFCURVE",
"587 94 CURVE SMOOTH",
"611 108 OFFCURVE",
"619 139 OFFCURVE",
"605 163 CURVE SMOOTH",
"591 187 OFFCURVE",
"531 246 OFFCURVE",
"507 232 CURVE SMOOTH",
"483 218 OFFCURVE",
"504 137 OFFCURVE",
"518 113 CURVE SMOOTH"
);
},
{
closed = 1;
nodes = (
"433 260 OFFCURVE",
"493 201 OFFCURVE",
"517 215 CURVE SMOOTH",
"541 229 OFFCURVE",
"520 310 OFFCURVE",
"506 334 CURVE SMOOTH",
"492 358 OFFCURVE",
"461 367 OFFCURVE",
"437 353 CURVE SMOOTH",
"413 339 OFFCURVE",
"405 308 OFFCURVE",
"419 284 CURVE SMOOTH"
);
},
{
closed = 1;
nodes = (
"462 210 OFFCURVE",
"493 201 OFFCURVE",
"517 215 CURVE SMOOTH",
"541 229 OFFCURVE",
"549 260 OFFCURVE",
"535 284 CURVE SMOOTH",
"521 308 OFFCURVE",
"461 367 OFFCURVE",
"437 353 CURVE SMOOTH",
"413 339 OFFCURVE",
"434 258 OFFCURVE",
"448 234 CURVE SMOOTH"
);
},
{
closed = 1;
nodes = (
"282 395 OFFCURVE",
"257 371 OFFCURVE",
"257 340 CURVE SMOOTH",
"257 309 OFFCURVE",
"282 285 OFFCURVE",
"313 285 CURVE SMOOTH",
"344 285 OFFCURVE",
"442 309 OFFCURVE",
"442 340 CURVE SMOOTH",
"442 371 OFFCURVE",
"344 395 OFFCURVE",
"313 395 CURVE SMOOTH"
);
},
{
closed = 1;
nodes = (
"357 395 OFFCURVE",
"257 371 OFFCURVE",
"257 340 CURVE SMOOTH",
"257 309 OFFCURVE",
"357 285 OFFCURVE",
"388 285 CURVE SMOOTH",
"419 285 OFFCURVE",
"442 309 OFFCURVE",
"442 340 CURVE SMOOTH",
"442 371 OFFCURVE",
"419 395 OFFCURVE",
"388 395 CURVE SMOOTH"
);
}
);
width = 700;
}
);
unicode = 0058;
},
{
glyphname = Y;
lastChange = "2020-12-29 10:04:06 +0000";
layers = (
{
layerId = "C8365536-00F6-4CBD-B31D-2172D190A829";
paths = (
{
closed = 1;
nodes = (
"110 680 OFFCURVE",
"85 656 OFFCURVE",
"85 625 CURVE SMOOTH",
"85 594 OFFCURVE",
"110 570 OFFCURVE",
"141 570 CURVE SMOOTH",
"172 570 OFFCURVE",
"270 594 OFFCURVE",
"270 625 CURVE",
"270 656 OFFCURVE",
"172 680 OFFCURVE",
"141 680 CURVE SMOOTH"
);
},
{
closed = 1;
nodes = (
"293 358 OFFCURVE",
"270 336 OFFCURVE",
"270 308 CURVE SMOOTH",
"270 280 OFFCURVE",
"293 258 OFFCURVE",
"321 258 CURVE SMOOTH",
"349 258 OFFCURVE",
"430 280 OFFCURVE",
"430 308 CURVE SMOOTH",
"430 336 OFFCURVE",
"349 358 OFFCURVE",
"321 358 CURVE SMOOTH"
);
},
{
closed = 1;
nodes = (
"320 110 OFFCURVE",
"295 86 OFFCURVE",
"295 55 CURVE SMOOTH",
"295 24 OFFCURVE",
"320 0 OFFCURVE",
"351 0 CURVE SMOOTH",
"382 0 OFFCURVE",
"405 24 OFFCURVE",
"405 55 CURVE SMOOTH",
"405 86 OFFCURVE",
"382 110 OFFCURVE",
"351 110 CURVE SMOOTH"
);
},
{
closed = 1;
nodes = (
"528 680 OFFCURVE",
"430 656 OFFCURVE",
"430 625 CURVE SMOOTH",
"430 594 OFFCURVE",
"528 570 OFFCURVE",
"559 570 CURVE SMOOTH",
"590 570 OFFCURVE",
"615 594 OFFCURVE",
"615 625 CURVE SMOOTH",
"615 656 OFFCURVE",
"590 680 OFFCURVE",
"559 680 CURVE SMOOTH"
);
},
{
closed = 1;
nodes = (
"322 270 OFFCURVE",
"300 168 OFFCURVE",
"300 140 CURVE SMOOTH",
"300 112 OFFCURVE",
"323 90 OFFCURVE",
"351 90 CURVE SMOOTH",
"379 90 OFFCURVE",
"400 112 OFFCURVE",
"400 140 CURVE SMOOTH",
"400 168 OFFCURVE",
"378 270 OFFCURVE",
"350 270 CURVE SMOOTH"
);
},
{
closed = 1;
nodes = (
"351 358 OFFCURVE",
"270 336 OFFCURVE",
"270 308 CURVE SMOOTH",
"270 280 OFFCURVE",
"351 258 OFFCURVE",
"379 258 CURVE SMOOTH",
"407 258 OFFCURVE",
"430 280 OFFCURVE",
"430 308 CURVE SMOOTH",
"430 336 OFFCURVE",
"407 358 OFFCURVE",
"379 358 CURVE SMOOTH"
);
},
{
closed = 1;
nodes = (
"322 270 OFFCURVE",
"301 248 OFFCURVE",
"301 220 CURVE SMOOTH",
"301 192 OFFCURVE",
"323 90 OFFCURVE",
"351 90 CURVE SMOOTH",
"379 90 OFFCURVE",
"401 192 OFFCURVE",
"401 220 CURVE SMOOTH",
"401 248 OFFCURVE",
"378 270 OFFCURVE",
"350 270 CURVE SMOOTH"
);
},
{
closed = 1;
nodes = (
"185 680 OFFCURVE",
"85 656 OFFCURVE",
"85 625 CURVE SMOOTH",
"85 594 OFFCURVE",
"185 570 OFFCURVE",
"216 570 CURVE SMOOTH",
"247 570 OFFCURVE",
"270 594 OFFCURVE",
"270 625 CURVE SMOOTH",
"270 656 OFFCURVE",
"247 680 OFFCURVE",
"216 680 CURVE SMOOTH"
);
},
{
closed = 1;
nodes = (
"453 680 OFFCURVE",
"430 656 OFFCURVE",
"430 625 CURVE SMOOTH",
"430 594 OFFCURVE",
"453 570 OFFCURVE",
"484 570 CURVE SMOOTH",
"515 570 OFFCURVE",
"615 594 OFFCURVE",
"615 625 CURVE SMOOTH",
"615 656 OFFCURVE",
"515 680 OFFCURVE",
"484 680 CURVE SMOOTH"
);
},
{
closed = 1;
nodes = (
"396 369 OFFCURVE",
"404 338 OFFCURVE",
"428 324 CURVE SMOOTH",
"452 310 OFFCURVE",
"483 319 OFFCURVE",
"497 343 CURVE SMOOTH",
"511 367 OFFCURVE",
"532 448 OFFCURVE",
"508 462 CURVE SMOOTH",
"484 476 OFFCURVE",
"424 417 OFFCURVE",
"410 393 CURVE SMOOTH"
);
},
{
closed = 1;
nodes = (
"425 419 OFFCURVE",
"404 338 OFFCURVE",
"428 324 CURVE SMOOTH",
"452 310 OFFCURVE",
"512 369 OFFCURVE",
"526 393 CURVE SMOOTH",
"540 417 OFFCURVE",
"532 448 OFFCURVE",
"508 462 CURVE SMOOTH",
"484 476 OFFCURVE",
"453 467 OFFCURVE",
"439 443 CURVE SMOOTH"
);
},
{
closed = 1;
nodes = (
"468 492 OFFCURVE",
"476 461 OFFCURVE",
"500 447 CURVE SMOOTH",
"524 433 OFFCURVE",
"555 442 OFFCURVE",
"569 466 CURVE SMOOTH",
"583 490 OFFCURVE",
"604 571 OFFCURVE",
"580 585 CURVE SMOOTH",
"556 599 OFFCURVE",
"496 540 OFFCURVE",
"482 516 CURVE SMOOTH"
);
},
{
closed = 1;
nodes = (
"497 542 OFFCURVE",
"476 461 OFFCURVE",
"500 447 CURVE SMOOTH",
"524 433 OFFCURVE",
"584 492 OFFCURVE",
"598 516 CURVE SMOOTH",
"612 540 OFFCURVE",
"604 571 OFFCURVE",
"580 585 CURVE SMOOTH",
"556 599 OFFCURVE",
"525 590 OFFCURVE",
"511 566 CURVE SMOOTH"
);
},
{
closed = 1;
nodes = (
"276 417 OFFCURVE",
"216 476 OFFCURVE",
"192 462 CURVE SMOOTH",
"168 448 OFFCURVE",
"189 367 OFFCURVE",
"203 343 CURVE SMOOTH",
"217 319 OFFCURVE",
"248 310 OFFCURVE",
"272 324 CURVE SMOOTH",
"296 338 OFFCURVE",
"304 369 OFFCURVE",
"290 393 CURVE SMOOTH"
);
},
{
closed = 1;
nodes = (
"247 467 OFFCURVE",
"216 476 OFFCURVE",
"192 462 CURVE SMOOTH",
"168 448 OFFCURVE",
"160 417 OFFCURVE",
"174 393 CURVE SMOOTH",
"188 369 OFFCURVE",
"248 310 OFFCURVE",
"272 324 CURVE SMOOTH",
"296 338 OFFCURVE",
"275 419 OFFCURVE",
"261 443 CURVE SMOOTH"
);
},
{
closed = 1;
nodes = (
"204 540 OFFCURVE",
"144 599 OFFCURVE",
"120 585 CURVE SMOOTH",
"96 571 OFFCURVE",
"117 490 OFFCURVE",
"131 466 CURVE SMOOTH",
"145 442 OFFCURVE",
"176 433 OFFCURVE",
"200 447 CURVE SMOOTH",
"224 461 OFFCURVE",
"232 492 OFFCURVE",
"218 516 CURVE SMOOTH"
);
},
{
closed = 1;
nodes = (
"175 590 OFFCURVE",
"144 599 OFFCURVE",
"120 585 CURVE SMOOTH",
"96 571 OFFCURVE",
"88 540 OFFCURVE",
"102 516 CURVE SMOOTH",
"116 492 OFFCURVE",
"176 433 OFFCURVE",
"200 447 CURVE SMOOTH",
"224 461 OFFCURVE",
"203 542 OFFCURVE",
"189 566 CURVE SMOOTH"
);
}
);
width = 700;
}
);
unicode = 0059;
},
{
glyphname = Z;
lastChange = "2022-12-13 11:09:14 +0000";
layers = (
{
layerId = "C8365536-00F6-4CBD-B31D-2172D190A829";
paths = (
{
closed = 1;
nodes = (
"395 495 OFFCURVE",
"398 463 OFFCURVE",
"419 445 CURVE SMOOTH",
"441 427 OFFCURVE",
"472 431 OFFCURVE",
"490 452 CURVE SMOOTH",
"509 473 OFFCURVE",
"543 549 OFFCURVE",
"522 567 CURVE SMOOTH",
"501 585 OFFCURVE",
"432 537 OFFCURVE",
"414 517 CURVE SMOOTH"
);
},
{
closed = 1;
nodes = (
"433 539 OFFCURVE",
"398 463 OFFCURVE",
"419 445 CURVE SMOOTH",
"441 427 OFFCURVE",
"510 475 OFFCURVE",
"527 495 CURVE SMOOTH",
"546 517 OFFCURVE",
"543 549 OFFCURVE",
"522 567 CURVE SMOOTH",
"501 585 OFFCURVE",
"469 581 OFFCURVE",
"451 560 CURVE SMOOTH"
);
},
{
closed = 1;
nodes = (
"300 382 OFFCURVE",
"303 351 OFFCURVE",
"324 333 CURVE SMOOTH",
"345 315 OFFCURVE",
"377 318 OFFCURVE",
"396 339 CURVE SMOOTH",
"414 360 OFFCURVE",
"448 437 OFFCURVE",
"427 455 CURVE SMOOTH",
"406 472 OFFCURVE",
"337 425 OFFCURVE",
"319 404 CURVE SMOOTH"
);
},
{
closed = 1;
nodes = (
"338 427 OFFCURVE",
"303 351 OFFCURVE",
"324 333 CURVE SMOOTH",
"345 315 OFFCURVE",
"415 362 OFFCURVE",
"433 384 CURVE SMOOTH",
"451 405 OFFCURVE",
"448 437 OFFCURVE",
"427 455 CURVE SMOOTH",
"406 472 OFFCURVE",
"374 469 OFFCURVE",
"356 448 CURVE SMOOTH"
);
},
{
closed = 1;
nodes = (
"206 275 OFFCURVE",
"209 244 OFFCURVE",
"230 225 CURVE SMOOTH",
"251 208 OFFCURVE",
"283 211 OFFCURVE",
"302 233 CURVE SMOOTH",
"313 246 OFFCURVE",
"355 328 OFFCURVE",
"333 347 CURVE SMOOTH",
"312 366 OFFCURVE",
"242 317 OFFCURVE",
"225 296 CURVE SMOOTH"
);
},
{
closed = 1;
nodes = (
"243 319 OFFCURVE",
"209 244 OFFCURVE",
"230 225 CURVE SMOOTH",
"251 208 OFFCURVE",
"321 255 OFFCURVE",
"339 276 CURVE SMOOTH",
"357 297 OFFCURVE",
"354 329 OFFCURVE",
"333 347 CURVE SMOOTH",
"312 366 OFFCURVE",
"280 362 OFFCURVE",
"262 341 CURVE SMOOTH"
);
},
{
closed = 1;
nodes = (
"113 167 OFFCURVE",
"116 135 OFFCURVE",
"137 117 CURVE SMOOTH",
"158 99 OFFCURVE",
"190 103 OFFCURVE",
"208 124 CURVE SMOOTH",
"220 137 OFFCURVE",
"262 220 OFFCURVE",
"240 239 CURVE SMOOTH",
"218 257 OFFCURVE",
"149 209 OFFCURVE",
"132 189 CURVE SMOOTH"
);
},
{
closed = 1;
nodes = (
"150 211 OFFCURVE",
"116 135 OFFCURVE",
"137 117 CURVE SMOOTH",
"158 99 OFFCURVE",
"227 147 OFFCURVE",
"245 167 CURVE SMOOTH",
"264 189 OFFCURVE",
"261 221 OFFCURVE",
"240 239 CURVE SMOOTH",
"218 257 OFFCURVE",
"187 253 OFFCURVE",
"169 232 CURVE SMOOTH"
);
},
{
closed = 1;
nodes = (
"403 0 OFFCURVE",
"426 24 OFFCURVE",
"426 55 CURVE SMOOTH",
"426 86 OFFCURVE",
"403 110 OFFCURVE",
"372 110 CURVE SMOOTH",
"341 110 OFFCURVE",
"241 86 OFFCURVE",
"241 55 CURVE SMOOTH",
"241 24 OFFCURVE",
"341 0 OFFCURVE",
"372 0 CURVE SMOOTH"
);
},
{
closed = 1;
nodes = (
"478 0 OFFCURVE",
"576 24 OFFCURVE",
"576 55 CURVE SMOOTH",
"576 86 OFFCURVE",
"478 110 OFFCURVE",
"447 110 CURVE SMOOTH",
"416 110 OFFCURVE",
"391 86 OFFCURVE",
"391 55 CURVE SMOOTH",
"391 24 OFFCURVE",
"416 0 OFFCURVE",
"447 0 CURVE SMOOTH"
);
},
{
closed = 1;
nodes = (
"178 0 OFFCURVE",
"276 24 OFFCURVE",
"276 55 CURVE SMOOTH",
"276 86 OFFCURVE",
"178 110 OFFCURVE",
"147 110 CURVE SMOOTH",
"116 110 OFFCURVE",
"91 86 OFFCURVE",
"91 55 CURVE",
"91 24 OFFCURVE",
"116 0 OFFCURVE",
"147 0 CURVE SMOOTH"
);
},
{
closed = 1;
nodes = (
"253 0 OFFCURVE",
"276 24 OFFCURVE",
"276 55 CURVE SMOOTH",
"276 86 OFFCURVE",
"253 110 OFFCURVE",
"222 110 CURVE SMOOTH",
"191 110 OFFCURVE",
"91 86 OFFCURVE",
"91 55 CURVE SMOOTH",
"91 24 OFFCURVE",
"191 0 OFFCURVE",
"222 0 CURVE SMOOTH"
);
},
{
closed = 1;
nodes = (
"328 0 OFFCURVE",
"426 24 OFFCURVE",
"426 55 CURVE SMOOTH",
"426 86 OFFCURVE",
"328 110 OFFCURVE",
"297 110 CURVE SMOOTH",
"266 110 OFFCURVE",
"241 86 OFFCURVE",
"241 55 CURVE SMOOTH",
"241 24 OFFCURVE",
"266 0 OFFCURVE",
"297 0 CURVE SMOOTH"
);
},
{
closed = 1;
nodes = (
"553 0 OFFCURVE",
"576 24 OFFCURVE",
"576 55 CURVE SMOOTH",
"576 86 OFFCURVE",
"553 110 OFFCURVE",
"522 110 CURVE SMOOTH",
"491 110 OFFCURVE",
"391 86 OFFCURVE",
"391 55 CURVE SMOOTH",
"391 24 OFFCURVE",
"491 0 OFFCURVE",
"522 0 CURVE SMOOTH"
);
},
{
closed = 1;
nodes = (
"264 680 OFFCURVE",
"241 656 OFFCURVE",
"241 625 CURVE SMOOTH",
"241 594 OFFCURVE",
"264 570 OFFCURVE",
"295 570 CURVE SMOOTH",
"326 570 OFFCURVE",
"426 594 OFFCURVE",
"426 625 CURVE SMOOTH",
"426 656 OFFCURVE",
"326 680 OFFCURVE",
"295 680 CURVE SMOOTH"
);
},
{
closed = 1;
nodes = (
"189 680 OFFCURVE",
"91 656 OFFCURVE",
"91 625 CURVE SMOOTH",
"91 594 OFFCURVE",
"189 570 OFFCURVE",
"220 570 CURVE SMOOTH",
"251 570 OFFCURVE",
"276 594 OFFCURVE",
"276 625 CURVE SMOOTH",
"276 656 OFFCURVE",
"251 680 OFFCURVE",
"220 680 CURVE SMOOTH"
);
},
{
closed = 1;
nodes = (
"489 680 OFFCURVE",
"391 656 OFFCURVE",
"391 625 CURVE SMOOTH",
"391 594 OFFCURVE",
"489 570 OFFCURVE",
"520 570 CURVE SMOOTH",
"551 570 OFFCURVE",
"576 594 OFFCURVE",
"576 625 CURVE",
"576 656 OFFCURVE",
"551 680 OFFCURVE",
"520 680 CURVE SMOOTH"
);
},
{
closed = 1;
nodes = (
"414 680 OFFCURVE",
"391 656 OFFCURVE",
"391 625 CURVE SMOOTH",
"391 594 OFFCURVE",
"414 570 OFFCURVE",
"445 570 CURVE SMOOTH",
"476 570 OFFCURVE",
"576 594 OFFCURVE",
"576 625 CURVE SMOOTH",
"576 656 OFFCURVE",
"476 680 OFFCURVE",
"445 680 CURVE SMOOTH"
);
},
{
closed = 1;
nodes = (
"339 680 OFFCURVE",
"241 656 OFFCURVE",
"241 625 CURVE SMOOTH",
"241 594 OFFCURVE",
"339 570 OFFCURVE",
"370 570 CURVE SMOOTH",
"401 570 OFFCURVE",
"426 594 OFFCURVE",
"426 625 CURVE SMOOTH",
"426 656 OFFCURVE",
"401 680 OFFCURVE",
"370 680 CURVE SMOOTH"
);
},
{
closed = 1;
nodes = (
"114 680 OFFCURVE",
"91 656 OFFCURVE",
"91 625 CURVE SMOOTH",
"91 594 OFFCURVE",
"114 570 OFFCURVE",
"145 570 CURVE SMOOTH",
"176 570 OFFCURVE",
"276 594 OFFCURVE",
"276 625 CURVE SMOOTH",
"276 656 OFFCURVE",
"176 680 OFFCURVE",
"145 680 CURVE SMOOTH"
);
},
{
closed = 1;
nodes = (
"117 590 OFFCURVE",
"96 568 OFFCURVE",
"96 540 CURVE SMOOTH",
"96 512 OFFCURVE",
"117 400 OFFCURVE",
"145 400 CURVE SMOOTH",
"173 400 OFFCURVE",
"196 512 OFFCURVE",
"196 540 CURVE SMOOTH",
"196 568 OFFCURVE",
"173 590 OFFCURVE",
"145 590 CURVE SMOOTH"
);
},
{
closed = 1;
nodes = (
"117 590 OFFCURVE",
"96 478 OFFCURVE",
"96 450 CURVE SMOOTH",
"96 422 OFFCURVE",
"117 400 OFFCURVE",
"145 400 CURVE SMOOTH",
"173 400 OFFCURVE",
"196 422 OFFCURVE",
"196 450 CURVE SMOOTH",
"196 478 OFFCURVE",
"173 590 OFFCURVE",
"145 590 CURVE SMOOTH"
);
},
{
closed = 1;
nodes = (
"514 596 OFFCURVE",
"503 585 OFFCURVE",
"503 571 CURVE SMOOTH",
"503 557 OFFCURVE",
"514 546 OFFCURVE",
"528 546 CURVE SMOOTH",
"542 546 OFFCURVE",
"553 557 OFFCURVE",
"553 571 CURVE SMOOTH",
"553 585 OFFCURVE",
"542 596 OFFCURVE",
"528 596 CURVE SMOOTH"
);
},
{
closed = 1;
nodes = (
"125 140 OFFCURVE",
"114 129 OFFCURVE",
"114 115 CURVE",
"114 101 OFFCURVE",
"125 90 OFFCURVE",
"139 90 CURVE",
"153 90 OFFCURVE",
"164 101 OFFCURVE",
"164 115 CURVE",
"164 129 OFFCURVE",
"153 140 OFFCURVE",
"139 140 CURVE"
);
},
{
closed = 1;
nodes = (
"542 86 OFFCURVE",
"596 174 OFFCURVE",
"606 200 CURVE SMOOTH",
"615 227 OFFCURVE",
"603 255 OFFCURVE",
"577 264 CURVE SMOOTH",
"550 274 OFFCURVE",
"521 261 OFFCURVE",
"512 235 CURVE SMOOTH",
"502 208 OFFCURVE",
"489 105 OFFCURVE",
"515 95 CURVE SMOOTH"
);
},
{
closed = 1;
nodes = (
"540 86 OFFCURVE",
"569 99 OFFCURVE",
"578 125 CURVE SMOOTH",
"588 152 OFFCURVE",
"603 255 OFFCURVE",
"577 264 CURVE SMOOTH",
"550 274 OFFCURVE",
"494 186 OFFCURVE",
"484 160 CURVE SMOOTH",
"475 133 OFFCURVE",
"489 105 OFFCURVE",
"515 95 CURVE SMOOTH"
);
}
);
width = 700;
}
);
unicode = 005A;
},
{
glyphname = O.ss01;
lastChange = "2020-12-30 11:13:54 +0000";
layers = (
{
layerId = "C8365536-00F6-4CBD-B31D-2172D190A829";
paths = (
{
closed = 1;
nodes = (
"263 570 OFFCURVE",
"363 595 OFFCURVE",
"363 625 CURVE",
"363 655 OFFCURVE",
"263 680 OFFCURVE",
"233 680 CURVE",
"203 680 OFFCURVE",
"178 655 OFFCURVE",
"178 625 CURVE",
"178 595 OFFCURVE",
"203 570 OFFCURVE",
"233 570 CURVE"
);
},
{
closed = 1;
nodes = (
"413 570 OFFCURVE",
"513 595 OFFCURVE",
"513 625 CURVE",
"513 655 OFFCURVE",
"413 680 OFFCURVE",
"383 680 CURVE",
"353 680 OFFCURVE",
"328 655 OFFCURVE",
"328 625 CURVE",
"328 595 OFFCURVE",
"353 570 OFFCURVE",
"383 570 CURVE"
);
},
{
closed = 1;
nodes = (
"488 570 OFFCURVE",
"513 595 OFFCURVE",
"513 625 CURVE",
"513 655 OFFCURVE",
"488 680 OFFCURVE",
"458 680 CURVE",
"428 680 OFFCURVE",
"328 655 OFFCURVE",
"328 625 CURVE",
"328 595 OFFCURVE",
"428 570 OFFCURVE",
"458 570 CURVE"
);
},
{
closed = 1;
nodes = (
"116 207 OFFCURVE",
"138 309 OFFCURVE",
"138 337 CURVE",
"138 365 OFFCURVE",
"116 387 OFFCURVE",
"88 387 CURVE",
"60 387 OFFCURVE",
"38 365 OFFCURVE",
"38 337 CURVE",
"38 309 OFFCURVE",
"60 207 OFFCURVE",
"88 207 CURVE"
);
},
{
closed = 1;
nodes = (
"116 207 OFFCURVE",
"138 229 OFFCURVE",
"138 257 CURVE",
"138 285 OFFCURVE",
"116 387 OFFCURVE",
"88 387 CURVE",
"60 387 OFFCURVE",
"38 285 OFFCURVE",
"38 257 CURVE",
"38 229 OFFCURVE",
"60 207 OFFCURVE",
"88 207 CURVE"
);
},
{
closed = 1;
nodes = (
"116 367 OFFCURVE",
"138 389 OFFCURVE",
"138 417 CURVE",
"138 445 OFFCURVE",
"116 547 OFFCURVE",
"88 547 CURVE",
"60 547 OFFCURVE",
"38 445 OFFCURVE",
"38 417 CURVE",
"38 389 OFFCURVE",
"60 367 OFFCURVE",
"88 367 CURVE"
);
},
{
closed = 1;
nodes = (
"203 110 OFFCURVE",
"178 85 OFFCURVE",
"178 55 CURVE",
"178 25 OFFCURVE",
"203 0 OFFCURVE",
"233 0 CURVE",
"263 0 OFFCURVE",
"363 25 OFFCURVE",
"363 55 CURVE",
"363 85 OFFCURVE",
"263 110 OFFCURVE",
"233 110 CURVE"
);
},
{
closed = 1;
nodes = (
"353 110 OFFCURVE",
"328 85 OFFCURVE",
"328 55 CURVE",
"328 25 OFFCURVE",
"353 0 OFFCURVE",
"383 0 CURVE",
"413 0 OFFCURVE",
"513 25 OFFCURVE",
"513 55 CURVE",
"513 85 OFFCURVE",
"413 110 OFFCURVE",
"383 110 CURVE"
);
},
{
closed = 1;
nodes = (
"428 110 OFFCURVE",
"328 85 OFFCURVE",
"328 55 CURVE",
"328 25 OFFCURVE",
"428 0 OFFCURVE",
"458 0 CURVE",
"488 0 OFFCURVE",
"513 25 OFFCURVE",
"513 55 CURVE",
"513 85 OFFCURVE",
"488 110 OFFCURVE",
"458 110 CURVE"
);
},
{
closed = 1;
nodes = (
"60 547 OFFCURVE",
"38 525 OFFCURVE",
"38 497 CURVE",
"38 469 OFFCURVE",
"60 367 OFFCURVE",
"88 367 CURVE",
"116 367 OFFCURVE",
"138 469 OFFCURVE",
"138 497 CURVE",
"138 525 OFFCURVE",
"116 547 OFFCURVE",
"88 547 CURVE"
);
},
{
closed = 1;
nodes = (
"116 127 OFFCURVE",
"138 149 OFFCURVE",
"138 177 CURVE",
"138 205 OFFCURVE",
"116 227 OFFCURVE",
"88 227 CURVE",
"60 227 OFFCURVE",
"38 205 OFFCURVE",
"38 177 CURVE",
"38 149 OFFCURVE",
"60 127 OFFCURVE",
"88 127 CURVE"
);
},
{
closed = 1;
nodes = (
"338 570 OFFCURVE",
"363 595 OFFCURVE",
"363 625 CURVE",
"363 655 OFFCURVE",
"338 680 OFFCURVE",
"308 680 CURVE",
"278 680 OFFCURVE",
"178 655 OFFCURVE",
"178 625 CURVE",
"178 595 OFFCURVE",
"278 570 OFFCURVE",
"308 570 CURVE"
);
},
{
closed = 1;
nodes = (
"278 110 OFFCURVE",
"178 85 OFFCURVE",
"178 55 CURVE",
"178 25 OFFCURVE",
"278 0 OFFCURVE",
"308 0 CURVE",
"338 0 OFFCURVE",
"363 25 OFFCURVE",
"363 55 CURVE",
"363 85 OFFCURVE",
"338 110 OFFCURVE",
"308 110 CURVE"
);
},
{
closed = 1;
nodes = (
"295 123 OFFCURVE",
"231 206 OFFCURVE",
"211 224 CURVE SMOOTH",
"190 243 OFFCURVE",
"157 239 OFFCURVE",
"139 218 CURVE SMOOTH",
"121 197 OFFCURVE",
"125 166 OFFCURVE",
"146 148 CURVE SMOOTH",
"168 130 OFFCURVE",
"259 79 OFFCURVE",
"277 101 CURVE SMOOTH"
);
},
{
closed = 1;
nodes = (
"295 123 OFFCURVE",
"293 154 OFFCURVE",
"272 172 CURVE",
"250 190 OFFCURVE",
"157 239 OFFCURVE",
"139 218 CURVE SMOOTH",
"121 197 OFFCURVE",
"186 114 OFFCURVE",
"207 95 CURVE SMOOTH",
"227 77 OFFCURVE",
"259 79 OFFCURVE",
"277 101 CURVE SMOOTH"
);
},
{
closed = 1;
nodes = (
"260 592 OFFCURVE",
"169 541 OFFCURVE",
"147 523 CURVE SMOOTH",
"126 505 OFFCURVE",
"122 474 OFFCURVE",
"140 453 CURVE SMOOTH",
"158 432 OFFCURVE",
"191 428 OFFCURVE",
"212 447 CURVE SMOOTH",
"232 465 OFFCURVE",
"296 548 OFFCURVE",
"278 570 CURVE SMOOTH"
);
},
{
closed = 1;
nodes = (
"260 592 OFFCURVE",
"228 594 OFFCURVE",
"208 576 CURVE SMOOTH",
"187 557 OFFCURVE",
"122 474 OFFCURVE",
"140 453 CURVE SMOOTH",
"158 432 OFFCURVE",
"251 481 OFFCURVE",
"273 499 CURVE",
"294 517 OFFCURVE",
"296 548 OFFCURVE",
"278 570 CURVE SMOOTH"
);
},
{
closed = 1;
nodes = (
"631 207 OFFCURVE",
"653 309 OFFCURVE",
"653 337 CURVE",
"653 365 OFFCURVE",
"631 387 OFFCURVE",
"603 387 CURVE",
"575 387 OFFCURVE",
"553 365 OFFCURVE",
"553 337 CURVE",
"553 309 OFFCURVE",
"575 207 OFFCURVE",
"603 207 CURVE"
);
},
{
closed = 1;
nodes = (
"631 207 OFFCURVE",
"653 229 OFFCURVE",
"653 257 CURVE",
"653 285 OFFCURVE",
"631 387 OFFCURVE",
"603 387 CURVE",
"575 387 OFFCURVE",
"553 285 OFFCURVE",
"553 257 CURVE",
"553 229 OFFCURVE",
"575 207 OFFCURVE",
"603 207 CURVE"
);
},
{
closed = 1;
nodes = (
"631 367 OFFCURVE",
"653 389 OFFCURVE",
"653 417 CURVE",
"653 445 OFFCURVE",
"631 547 OFFCURVE",
"603 547 CURVE",
"575 547 OFFCURVE",
"553 445 OFFCURVE",
"553 417 CURVE",
"553 389 OFFCURVE",
"575 367 OFFCURVE",
"603 367 CURVE"
);
},
{
closed = 1;
nodes = (
"575 547 OFFCURVE",
"553 525 OFFCURVE",
"553 497 CURVE",
"553 469 OFFCURVE",
"575 367 OFFCURVE",
"603 367 CURVE",
"631 367 OFFCURVE",
"653 469 OFFCURVE",
"653 497 CURVE",
"653 525 OFFCURVE",
"631 547 OFFCURVE",
"603 547 CURVE"
);
},
{
closed = 1;
nodes = (
"631 127 OFFCURVE",
"653 149 OFFCURVE",
"653 177 CURVE",
"653 205 OFFCURVE",
"631 227 OFFCURVE",
"603 227 CURVE",
"575 227 OFFCURVE",
"553 205 OFFCURVE",
"553 177 CURVE",
"553 149 OFFCURVE",
"575 127 OFFCURVE",
"603 127 CURVE"
);
},
{
closed = 1;
nodes = (
"432 79 OFFCURVE",
"523 130 OFFCURVE",
"545 148 CURVE SMOOTH",
"566 166 OFFCURVE",
"570 197 OFFCURVE",
"552 218 CURVE SMOOTH",
"534 239 OFFCURVE",
"501 243 OFFCURVE",
"480 224 CURVE SMOOTH",
"460 206 OFFCURVE",
"396 123 OFFCURVE",
"414 101 CURVE SMOOTH"
);
},
{
closed = 1;
nodes = (
"432 79 OFFCURVE",
"464 77 OFFCURVE",
"484 95 CURVE SMOOTH",
"505 114 OFFCURVE",
"570 197 OFFCURVE",
"552 218 CURVE SMOOTH",
"534 239 OFFCURVE",
"441 190 OFFCURVE",
"419 172 CURVE",
"398 154 OFFCURVE",
"396 123 OFFCURVE",
"414 101 CURVE SMOOTH"
);
},
{
closed = 1;
nodes = (
"395 548 OFFCURVE",
"459 465 OFFCURVE",
"479 447 CURVE SMOOTH",
"500 428 OFFCURVE",
"533 432 OFFCURVE",
"551 453 CURVE SMOOTH",
"569 474 OFFCURVE",
"565 505 OFFCURVE",
"544 523 CURVE SMOOTH",
"522 541 OFFCURVE",
"431 592 OFFCURVE",
"413 570 CURVE SMOOTH"
);
},
{
closed = 1;
nodes = (
"395 548 OFFCURVE",
"397 517 OFFCURVE",
"418 499 CURVE",
"440 481 OFFCURVE",
"533 432 OFFCURVE",
"551 453 CURVE SMOOTH",
"569 474 OFFCURVE",
"504 557 OFFCURVE",
"483 576 CURVE SMOOTH",
"463 594 OFFCURVE",
"431 592 OFFCURVE",
"413 570 CURVE SMOOTH"
);
}
);
width = 700;
}
);
},
